<svg width="580" height="600" viewBox="0 0 580 600" fill="none" xmlns="http://www.w3.org/2000/svg">
<g clip-path="url(#clip0_2010_366)">
<path d="M560 0H20C8.9543 0 0 8.9543 0 20V580C0 591.046 8.9543 600 20 600H560C571.046 600 580 591.046 580 580V20C580 8.9543 571.046 0 560 0Z" fill="#0E0E10"/>
<path d="M560 0.5H20C9.23045 0.5 0.5 9.23045 0.5 20V580C0.5 590.77 9.23045 599.5 20 599.5H560C570.77 599.5 579.5 590.77 579.5 580V20C579.5 9.23045 570.77 0.5 560 0.5Z" stroke="#3D3F3F" stroke-opacity="0.3"/>
<path d="M371.881 423.836H316.35C310.275 423.836 305.35 418.912 305.35 412.836V335.856" stroke="#303030"/>
<g filter="url(#filter0_f_2010_366)">
<path d="M296.206 334.526C296.206 340.451 300.051 345.254 304.793 345.254C309.535 345.254 313.379 340.451 313.379 334.526C313.379 328.601 309.535 323.798 304.793 323.798C300.051 323.798 296.206 328.601 296.206 334.526Z" fill="#0E0E10"/>
</g>
<path d="M443.414 375.887H372.347C367.929 375.887 364.347 379.469 364.347 383.887V453.693C364.347 458.111 367.929 461.693 372.347 461.693H443.414C447.833 461.693 451.414 458.111 451.414 453.693V383.887C451.414 379.469 447.833 375.887 443.414 375.887Z" fill="#303030"/>
<path d="M430.404 412.45C430.404 406.894 425.897 402.385 420.336 402.385H394.598C389.04 402.385 384.536 406.894 384.536 412.45V424.426C384.536 429.987 389.039 434.494 394.598 434.494H420.336C425.896 434.494 430.404 429.987 430.404 424.426V412.45ZM415.266 419.336L403.725 425.044C403.273 425.289 401.739 424.962 401.739 424.447V412.725C401.739 412.204 403.287 411.876 403.738 412.137L414.787 418.148C415.248 418.411 415.737 419.079 415.266 419.336Z" fill="url(#paint0_linear_2010_366)"/>
<path d="M175.79 434.781V382.476" stroke="#303030"/>
<g filter="url(#filter1_f_2010_366)">
<path d="M175.594 377.573C172.903 377.573 170.722 380.134 170.722 383.294C170.722 386.453 172.903 389.015 175.594 389.015C178.284 389.015 180.466 386.453 180.466 383.294C180.466 380.134 178.284 377.573 175.594 377.573Z" fill="#0E0E10"/>
</g>
<path d="M210.297 433.998H140C135.582 433.998 132 437.58 132 441.998V510.903C132 515.321 135.582 518.903 140 518.903H210.297C214.715 518.903 218.297 515.321 218.297 510.903V441.998C218.297 437.58 214.715 433.998 210.297 433.998Z" fill="#303030" fill-opacity="0.8"/>
<path d="M164.155 469.312H155.892V495.859H164.155V469.312Z" fill="url(#paint1_linear_2010_366)"/>
<path d="M160.024 456.125C157.374 456.125 155.233 458.269 155.233 460.908C155.233 463.544 157.374 465.694 160.024 465.694C162.669 465.694 164.81 463.544 164.81 460.908C164.81 458.268 162.669 456.125 160.024 456.125Z" fill="url(#paint2_linear_2010_366)"/>
<path d="M185.168 468.657C181.152 468.657 178.457 470.858 177.356 472.945H177.248V469.312H169.331V495.859H177.58V482.733C177.58 479.268 178.233 475.914 182.531 475.914C186.757 475.914 186.817 479.875 186.817 482.956V495.861H195.062V481.303C195.062 474.151 193.521 468.657 185.168 468.657Z" fill="url(#paint3_linear_2010_366)"/>
<path d="M73.1245 327.729V384.299" stroke="#303030"/>
<g filter="url(#filter2_f_2010_366)">
<path d="M73.4185 389.602C76.4871 389.602 78.9747 386.832 78.9747 383.415C78.9747 379.998 76.4871 377.228 73.4185 377.228C70.3499 377.228 67.8623 379.998 67.8623 383.415C67.8623 386.832 70.3499 389.602 73.4185 389.602Z" fill="#0E0E10"/>
</g>
<g filter="url(#filter3_f_2010_366)">
<path d="M74.1834 333.719C77.252 333.719 79.7396 330.949 79.7396 327.532C79.7396 324.115 77.252 321.345 74.1834 321.345C71.1148 321.345 68.6272 324.115 68.6272 327.532C68.6272 330.949 71.1148 333.719 74.1834 333.719Z" fill="#0E0E10"/>
</g>
<path d="M123.424 290.981H182.262" stroke="#303030"/>
<g filter="url(#filter4_f_2010_366)">
<path d="M187.779 290.687C187.779 287.618 184.897 285.131 181.343 285.131C177.789 285.131 174.908 287.618 174.908 290.687C174.908 293.756 177.789 296.243 181.343 296.243C184.897 296.243 187.779 293.756 187.779 290.687Z" fill="#0E0E10"/>
</g>
<path d="M115.424 238.791H33C28.5817 238.791 25 242.373 25 246.791V327.628C25 332.046 28.5817 335.628 33 335.628H115.424C119.842 335.628 123.424 332.046 123.424 327.628V246.791C123.424 242.373 119.842 238.791 115.424 238.791Z" fill="#303030" fill-opacity="0.65"/>
<path d="M87.5387 270.509C85.9048 270.509 84.5811 271.831 84.5811 273.463C84.5811 275.097 85.903 276.42 87.5387 276.42C89.1707 276.42 90.4926 275.097 90.4926 273.463C90.4908 271.831 89.1707 270.509 87.5387 270.509Z" fill="url(#paint4_linear_2010_366)"/>
<path d="M74.3959 274.301C67.5448 274.301 61.9741 279.868 61.9741 286.716C61.9741 293.561 67.5448 299.136 74.3959 299.136C81.2434 299.136 86.8122 293.561 86.8122 286.716C86.8122 279.866 81.2434 274.301 74.3959 274.301ZM74.3959 294.672C70.0046 294.672 66.4357 291.103 66.4357 286.716C66.4357 282.332 70.0046 278.765 74.3959 278.765C78.7781 278.765 82.3452 282.332 82.3452 286.716C82.347 291.105 78.7781 294.672 74.3959 294.672Z" fill="url(#paint5_linear_2010_366)"/>
<path d="M84.2549 311.929H64.12C55.7703 311.929 48.9751 305.132 48.9751 296.784V276.651C48.9751 268.298 55.7721 261.505 64.12 261.505H84.2549C92.6046 261.505 99.3998 268.298 99.3998 276.651V296.784C99.4016 305.134 92.6046 311.929 84.2549 311.929ZM64.12 266.248C58.3834 266.248 53.718 270.915 53.718 276.651V296.784C53.718 302.521 58.3834 307.185 64.12 307.185H84.2549C89.9861 307.185 94.6586 302.521 94.6586 296.784V276.651C94.6586 270.915 89.9861 266.248 84.2549 266.248H64.12Z" fill="url(#paint6_linear_2010_366)"/>
<path d="M193.372 123.641H255.559C261.634 123.641 266.559 128.566 266.559 134.641V176.801" stroke="#303030"/>
<g filter="url(#filter5_f_2010_366)">
<path d="M276.618 177.605C276.618 174.025 272.389 171.123 267.172 171.123C261.955 171.123 257.727 174.025 257.727 177.605C257.727 181.185 261.955 184.087 267.172 184.087C272.389 184.087 276.618 181.185 276.618 177.605Z" fill="#0E0E10"/>
</g>
<path d="M193.708 82H125.661C121.243 82 117.661 85.5817 117.661 90V156.692C117.661 161.11 121.243 164.692 125.661 164.692H193.708C198.126 164.692 201.708 161.11 201.708 156.692V90C201.708 85.5817 198.126 82 193.708 82Z" fill="#303030"/>
<path d="M170.511 126.286L171.76 118.128H163.933V112.833C163.933 110.598 165.027 108.424 168.534 108.424H172.091V101.479C172.091 101.479 168.861 100.927 165.774 100.927C159.326 100.927 155.115 104.833 155.115 111.907V118.126H147.945V126.284H155.115V146.009C156.551 146.235 158.024 146.351 159.519 146.351C161.022 146.351 162.496 146.234 163.933 146.009V126.284L170.511 126.286Z" fill="url(#paint7_linear_2010_366)"/>
<path d="M364.008 127.554H308.266C302.191 127.554 297.266 132.479 297.266 138.554V227.138" stroke="#303030"/>
<g filter="url(#filter6_f_2010_366)">
<path d="M287.732 219.722C287.732 213.871 291.526 209.128 296.207 209.128C300.888 209.128 304.682 213.871 304.682 219.722C304.682 225.573 300.888 230.316 296.207 230.316C291.526 230.316 287.732 225.573 287.732 219.722Z" fill="#0E0E10"/>
</g>
<path d="M394.221 148.878V220.587" stroke="#303030"/>
<g filter="url(#filter7_f_2010_366)">
<path d="M394.636 227.112C397.772 227.112 400.314 217.261 400.314 205.109C400.314 192.957 397.772 183.105 394.636 183.105C391.5 183.105 388.958 192.957 388.958 205.109C388.958 217.261 391.5 227.112 394.636 227.112Z" fill="#0E0E10"/>
</g>
<path d="M421.917 93.3564H365.412C360.994 93.3564 357.412 96.9382 357.412 101.356V156.692C357.412 161.11 360.994 164.692 365.412 164.692H421.917C426.335 164.692 429.917 161.11 429.917 156.692V101.356C429.917 96.9382 426.335 93.3564 421.917 93.3564Z" fill="#303030"/>
<path d="M413.7 124.693H412.078V124.609H393.954V132.665H405.335C403.675 137.354 399.213 140.72 393.954 140.72C387.281 140.72 381.871 135.31 381.871 128.637C381.871 121.964 387.281 116.554 393.954 116.554C397.034 116.554 399.836 117.716 401.97 119.614L407.666 113.918C404.069 110.566 399.258 108.499 393.954 108.499C382.833 108.499 373.816 117.516 373.816 128.637C373.816 139.758 382.833 148.775 393.954 148.775C405.075 148.775 414.092 139.758 414.092 128.637C414.092 127.287 413.953 125.969 413.7 124.693Z" fill="#FBC02D"/>
<path d="M376.137 119.264L382.754 124.116C384.544 119.684 388.88 116.554 393.954 116.554C397.034 116.554 399.836 117.716 401.97 119.614L407.666 113.918C404.069 110.566 399.258 108.499 393.954 108.499C386.219 108.499 379.511 112.866 376.137 119.264Z" fill="#E53935"/>
<path d="M393.954 148.775C399.155 148.775 403.882 146.785 407.455 143.548L401.223 138.273C399.201 139.805 396.688 140.72 393.954 140.72C388.716 140.72 384.268 137.38 382.593 132.719L376.026 137.779C379.359 144.301 386.127 148.775 393.954 148.775Z" fill="#4CAF50"/>
<path d="M413.7 124.693L413.684 124.609H412.078H393.954V132.665H405.335C404.537 134.917 403.089 136.86 401.22 138.274L401.223 138.272L407.456 143.546C407.014 143.947 414.092 138.706 414.092 128.637C414.092 127.287 413.953 125.969 413.7 124.693Z" fill="#1565C0"/>
<path d="M499.385 292.75H368.832" stroke="#303030"/>
<g filter="url(#filter8_f_2010_366)">
<path d="M356.593 293.044C356.593 296.113 362.986 298.6 370.872 298.6C378.758 298.6 385.151 296.113 385.151 293.044C385.151 289.975 378.758 287.488 370.872 287.488C362.986 287.488 356.593 289.975 356.593 293.044Z" fill="#0E0E10"/>
</g>
<g filter="url(#filter9_f_2010_366)">
<path d="M484.039 293.573C484.039 296.709 488.276 299.251 493.503 299.251C498.73 299.251 502.967 296.709 502.967 293.573C502.967 290.437 498.73 287.895 493.503 287.895C488.276 287.895 484.039 290.437 484.039 293.573Z" fill="#0E0E10"/>
</g>
<path d="M549.399 252.564H492.894C488.476 252.564 484.894 256.146 484.894 260.564V315.899C484.894 320.317 488.476 323.899 492.894 323.899H549.399C553.817 323.899 557.399 320.317 557.399 315.899V260.564C557.399 256.146 553.817 252.564 549.399 252.564Z" fill="#555858" fill-opacity="0.6"/>
<path fill-rule="evenodd" clip-rule="evenodd" d="M530.247 282.716C532.932 284.636 536.219 285.766 539.776 285.766V278.932C539.1 278.932 538.429 278.863 537.772 278.723V284.101C534.222 284.101 530.932 282.974 528.245 281.053V294.999C528.245 301.977 522.587 307.631 515.608 307.631C513.002 307.631 510.581 306.844 508.573 305.495C510.865 307.841 514.065 309.296 517.607 309.296C524.585 309.296 530.247 303.639 530.247 296.663V282.716ZM532.711 275.824C531.34 274.325 530.441 272.388 530.247 270.249V269.367H528.349C528.827 272.09 530.456 274.412 532.711 275.824ZM512.985 300.141C512.22 299.138 511.802 297.908 511.807 296.643C511.807 293.455 514.393 290.865 517.587 290.865C518.18 290.865 518.773 290.957 519.339 291.138V284.15C518.678 284.06 518.009 284.022 517.339 284.036V289.473C516.773 289.294 516.182 289.205 515.584 289.205C512.394 289.205 509.802 291.791 509.802 294.983C509.804 297.235 511.098 299.188 512.985 300.141Z" fill="#EE1D52"/>
<path fill-rule="evenodd" clip-rule="evenodd" d="M528.246 281.055C530.932 282.974 534.22 284.102 537.773 284.102V278.724C535.79 278.301 534.035 277.267 532.711 275.826C530.456 274.412 528.827 272.09 528.349 269.369H523.366V296.666C523.357 299.85 520.77 302.424 517.588 302.424C515.709 302.424 514.044 301.529 512.986 300.143C511.097 299.19 509.805 297.238 509.805 294.983C509.805 291.793 512.394 289.205 515.587 289.205C516.199 289.205 516.788 289.301 517.342 289.474V284.036C510.486 284.176 504.97 289.778 504.97 296.665C504.97 300.101 506.344 303.219 508.575 305.497C510.582 306.846 513.004 307.633 515.609 307.633C522.587 307.633 528.247 301.98 528.247 295.001V281.055H528.246Z" fill="white"/>
<path fill-rule="evenodd" clip-rule="evenodd" d="M537.772 278.723V277.268C535.983 277.272 534.228 276.772 532.711 275.824C534.059 277.293 535.825 278.305 537.772 278.723ZM528.349 269.368C528.304 269.11 528.268 268.846 528.246 268.583V267.706H521.368V294.999C521.355 298.181 518.773 300.759 515.585 300.759C514.65 300.759 513.767 300.535 512.985 300.14C514.043 301.526 515.708 302.422 517.587 302.422C520.77 302.422 523.356 299.847 523.365 296.664V269.368H528.349ZM517.339 284.035V282.488C516.764 282.409 516.187 282.37 515.608 282.37C508.625 282.37 502.967 288.024 502.967 294.999C502.967 299.374 505.192 303.225 508.572 305.495C506.34 303.219 504.967 300.101 504.967 296.664C504.968 289.778 510.485 284.175 517.339 284.035Z" fill="#69C9D0"/>
<path d="M328.107 238.791H238.524C234.106 238.791 230.524 242.373 230.524 246.791V334.671C230.524 339.089 234.106 342.671 238.524 342.671H328.107C332.525 342.671 336.107 339.089 336.107 334.671V246.791C336.107 242.373 332.525 238.791 328.107 238.791Z" fill="url(#paint8_linear_2010_366)"/>
<path d="M295.157 323.22C294.945 324.53 293.943 325.481 292.774 325.483L274.255 325.495C273.085 325.496 272.081 324.545 271.868 323.233L271.62 321.694L295.407 321.677L295.157 323.22ZM281.211 255.615C282.307 254.811 283.794 254.794 284.908 255.572L289.026 258.449C295.54 262.999 299.907 270.533 301.108 278.978C301.468 281.51 301.38 284.089 300.971 286.613L299.808 293.785L301.241 293.784C304.414 293.781 306.987 297.226 306.986 301.476L307 319.538C307.001 320.632 306.105 321.302 305.411 320.727L298.226 314.775L298.218 303.582L295.637 319.507L271.384 319.524L268.771 303.394L268.78 314.795L261.603 320.758C260.91 321.334 260.014 320.666 260.013 319.572L260 301.51C259.997 297.259 262.566 293.812 265.737 293.81L267.22 293.809L265.993 286.235C265.586 283.724 265.493 281.162 265.844 278.643C266.995 270.388 271.17 262.985 277.441 258.382L281.211 255.615ZM283.034 291.45C281.574 291.515 280.226 292.145 279.239 293.223C278.253 294.301 277.744 295.7 277.81 297.16C277.874 298.621 278.504 299.969 279.582 300.955C280.66 301.942 282.058 302.449 283.519 302.384C284.979 302.32 286.327 301.69 287.313 300.611C288.299 299.533 288.806 298.136 288.742 296.675C288.678 295.214 288.049 293.867 286.971 292.88C285.893 291.894 284.495 291.385 283.034 291.45ZM283.034 272.416C281.574 272.481 280.226 273.11 279.239 274.189C278.253 275.267 277.744 276.665 277.81 278.125C277.874 279.586 278.504 280.934 279.582 281.921C280.66 282.908 282.058 283.415 283.519 283.35C284.979 283.285 286.327 282.655 287.313 281.577C288.299 280.499 288.806 279.101 288.742 277.64C288.678 276.179 288.049 274.832 286.971 273.846C285.893 272.859 284.495 272.351 283.034 272.416Z" fill="white"/>
</g>
<defs>
<filter id="filter0_f_2010_366" x="294.207" y="321.798" width="21.1729" height="25.4562" filterUnits="userSpaceOnUse" color-interpolation-filters="sRGB">
<feFlood flood-opacity="0" result="BackgroundImageFix"/>
<feBlend mode="normal" in="SourceGraphic" in2="BackgroundImageFix" result="shape"/>
<feGaussianBlur stdDeviation="1" result="effect1_foregroundBlur_2010_366"/>
</filter>
<filter id="filter1_f_2010_366" x="168.722" y="375.573" width="13.7432" height="15.4415" filterUnits="userSpaceOnUse" color-interpolation-filters="sRGB">
<feFlood flood-opacity="0" result="BackgroundImageFix"/>
<feBlend mode="normal" in="SourceGraphic" in2="BackgroundImageFix" result="shape"/>
<feGaussianBlur stdDeviation="1" result="effect1_foregroundBlur_2010_366"/>
</filter>
<filter id="filter2_f_2010_366" x="65.8623" y="375.228" width="15.1123" height="16.3746" filterUnits="userSpaceOnUse" color-interpolation-filters="sRGB">
<feFlood flood-opacity="0" result="BackgroundImageFix"/>
<feBlend mode="normal" in="SourceGraphic" in2="BackgroundImageFix" result="shape"/>
<feGaussianBlur stdDeviation="1" result="effect1_foregroundBlur_2010_366"/>
</filter>
<filter id="filter3_f_2010_366" x="66.6272" y="319.345" width="15.1123" height="16.3746" filterUnits="userSpaceOnUse" color-interpolation-filters="sRGB">
<feFlood flood-opacity="0" result="BackgroundImageFix"/>
<feBlend mode="normal" in="SourceGraphic" in2="BackgroundImageFix" result="shape"/>
<feGaussianBlur stdDeviation="1" result="effect1_foregroundBlur_2010_366"/>
</filter>
<filter id="filter4_f_2010_366" x="172.908" y="283.131" width="16.8708" height="15.1124" filterUnits="userSpaceOnUse" color-interpolation-filters="sRGB">
<feFlood flood-opacity="0" result="BackgroundImageFix"/>
<feBlend mode="normal" in="SourceGraphic" in2="BackgroundImageFix" result="shape"/>
<feGaussianBlur stdDeviation="1" result="effect1_foregroundBlur_2010_366"/>
</filter>
<filter id="filter5_f_2010_366" x="255.727" y="169.123" width="22.8911" height="16.9645" filterUnits="userSpaceOnUse" color-interpolation-filters="sRGB">
<feFlood flood-opacity="0" result="BackgroundImageFix"/>
<feBlend mode="normal" in="SourceGraphic" in2="BackgroundImageFix" result="shape"/>
<feGaussianBlur stdDeviation="1" result="effect1_foregroundBlur_2010_366"/>
</filter>
<filter id="filter6_f_2010_366" x="285.732" y="207.128" width="20.9504" height="25.188" filterUnits="userSpaceOnUse" color-interpolation-filters="sRGB">
<feFlood flood-opacity="0" result="BackgroundImageFix"/>
<feBlend mode="normal" in="SourceGraphic" in2="BackgroundImageFix" result="shape"/>
<feGaussianBlur stdDeviation="1" result="effect1_foregroundBlur_2010_366"/>
</filter>
<filter id="filter7_f_2010_366" x="386.958" y="181.105" width="15.3567" height="48.007" filterUnits="userSpaceOnUse" color-interpolation-filters="sRGB">
<feFlood flood-opacity="0" result="BackgroundImageFix"/>
<feBlend mode="normal" in="SourceGraphic" in2="BackgroundImageFix" result="shape"/>
<feGaussianBlur stdDeviation="1" result="effect1_foregroundBlur_2010_366"/>
</filter>
<filter id="filter8_f_2010_366" x="354.593" y="285.488" width="32.5583" height="15.1124" filterUnits="userSpaceOnUse" color-interpolation-filters="sRGB">
<feFlood flood-opacity="0" result="BackgroundImageFix"/>
<feBlend mode="normal" in="SourceGraphic" in2="BackgroundImageFix" result="shape"/>
<feGaussianBlur stdDeviation="1" result="effect1_foregroundBlur_2010_366"/>
</filter>
<filter id="filter9_f_2010_366" x="482.039" y="285.895" width="22.9277" height="15.3566" filterUnits="userSpaceOnUse" color-interpolation-filters="sRGB">
<feFlood flood-opacity="0" result="BackgroundImageFix"/>
<feBlend mode="normal" in="SourceGraphic" in2="BackgroundImageFix" result="shape"/>
<feGaussianBlur stdDeviation="1" result="effect1_foregroundBlur_2010_366"/>
</filter>
<linearGradient id="paint0_linear_2010_366" x1="372.361" y1="390.475" x2="433.47" y2="439.148" gradientUnits="userSpaceOnUse">
<stop offset="0.2043" stop-color="#FF4F4F"/>
<stop offset="0.7994" stop-color="#910618"/>
</linearGradient>
<linearGradient id="paint1_linear_2010_366" x1="138.583" y1="467.775" x2="193.554" y2="505.748" gradientUnits="userSpaceOnUse">
<stop offset="0.2043" stop-color="#33C5FF"/>
<stop offset="0.837" stop-color="#3388FF"/>
</linearGradient>
<linearGradient id="paint2_linear_2010_366" x1="148.721" y1="453.101" x2="203.689" y2="491.072" gradientUnits="userSpaceOnUse">
<stop offset="0.2043" stop-color="#33C5FF"/>
<stop offset="0.837" stop-color="#3388FF"/>
</linearGradient>
<linearGradient id="paint3_linear_2010_366" x1="144.919" y1="458.599" x2="199.892" y2="496.574" gradientUnits="userSpaceOnUse">
<stop offset="0.2043" stop-color="#33C5FF"/>
<stop offset="0.837" stop-color="#3388FF"/>
</linearGradient>
<linearGradient id="paint4_linear_2010_366" x1="47.4626" y1="315.188" x2="98.5575" y2="261.99" gradientUnits="userSpaceOnUse">
<stop offset="0.2043" stop-color="#FCCB62"/>
<stop offset="0.3445" stop-color="#ED9474"/>
<stop offset="0.4917" stop-color="#E06284"/>
<stop offset="0.6031" stop-color="#D7428E"/>
<stop offset="0.6649" stop-color="#D43692"/>
<stop offset="1" stop-color="#6C48E0"/>
</linearGradient>
<linearGradient id="paint5_linear_2010_366" x1="47.2464" y1="314.983" x2="98.3433" y2="261.782" gradientUnits="userSpaceOnUse">
<stop offset="0.2043" stop-color="#FCCB62"/>
<stop offset="0.3445" stop-color="#ED9474"/>
<stop offset="0.4917" stop-color="#E06284"/>
<stop offset="0.6031" stop-color="#D7428E"/>
<stop offset="0.6649" stop-color="#D43692"/>
<stop offset="1" stop-color="#6C48E0"/>
</linearGradient>
<linearGradient id="paint6_linear_2010_366" x1="47.1389" y1="314.879" x2="98.2351" y2="261.679" gradientUnits="userSpaceOnUse">
<stop offset="0.2043" stop-color="#FCCB62"/>
<stop offset="0.3445" stop-color="#ED9474"/>
<stop offset="0.4917" stop-color="#E06284"/>
<stop offset="0.6031" stop-color="#D7428E"/>
<stop offset="0.6649" stop-color="#D43692"/>
<stop offset="1" stop-color="#6C48E0"/>
</linearGradient>
<linearGradient id="paint7_linear_2010_366" x1="144.237" y1="95.3939" x2="190.927" y2="163.747" gradientUnits="userSpaceOnUse">
<stop offset="0.2043" stop-color="#1583EB"/>
<stop offset="1" stop-color="#0A2A75"/>
</linearGradient>
<linearGradient id="paint8_linear_2010_366" x1="283.315" y1="238.791" x2="283.315" y2="342.671" gradientUnits="userSpaceOnUse">
<stop stop-color="#FF7205"/>
<stop offset="1" stop-color="#FFA122"/>
</linearGradient>
<clipPath id="clip0_2010_366">
<rect width="580" height="600" fill="white"/>
</clipPath>
</defs>
</svg>
