<svg width="39" height="59" viewBox="0 0 39 59" fill="none" xmlns="http://www.w3.org/2000/svg">
<path d="M29.1729 57.1104C28.9964 58.1976 28.1651 58.9866 27.1953 58.9874L11.8291 58.9981C10.8584 58.9989 10.0239 58.2092 9.84766 57.1202L9.6416 55.8438L29.3809 55.8301L29.1729 57.1104ZM17.6006 1.01275C18.5101 0.345397 19.7436 0.330516 20.668 0.97662L24.0859 3.36431C29.4909 7.13981 33.1148 13.3914 34.1113 20.3985C34.4098 22.4997 34.3371 24.6395 33.9971 26.7344L33.0322 32.6856L34.2217 32.6846C36.8539 32.6824 38.9899 35.5404 38.9893 39.0665L39 54.0547C39.0008 54.962 38.2575 55.5182 37.6816 55.0411L31.7188 50.1016L31.7129 40.8145L29.5713 54.0284L9.44629 54.043L7.27832 40.6583L7.28516 50.1192L1.3291 55.0665C0.754071 55.5441 0.0105508 54.9902 0.00976741 54.0831L1.78052e-06 39.0948C-0.00224879 35.5679 2.12932 32.7079 4.76074 32.7061L5.99121 32.7051L4.97363 26.421C4.63597 24.337 4.55719 22.2104 4.84863 20.1202C5.8037 13.2706 9.26917 7.12798 14.4727 3.30865L17.6006 1.01275ZM19.1133 30.7481C17.9013 30.8022 16.7836 31.3242 15.9648 32.2188C15.1462 33.1135 14.7243 34.2735 14.7783 35.4854C14.8316 36.6974 15.3543 37.8161 16.249 38.6348C17.1436 39.4534 18.3028 39.8743 19.5147 39.8204C20.7267 39.7671 21.8463 39.2444 22.665 38.3497C23.4827 37.455 23.9029 36.2956 23.8496 35.0831C23.7963 33.8711 23.2746 32.7533 22.3799 31.9346C21.4852 31.1159 20.3252 30.6941 19.1133 30.7481ZM19.1133 14.9532C17.9014 15.0072 16.7835 15.5293 15.9648 16.4239C15.1461 17.3186 14.7243 18.4795 14.7783 19.6915C14.8317 20.9033 15.3544 22.0223 16.249 22.8409C17.1436 23.6593 18.3029 24.0794 19.5147 24.0254C20.7267 23.9722 21.8463 23.4504 22.665 22.5557C23.4829 21.661 23.9029 20.5009 23.8496 19.2881C23.7963 18.0762 23.2745 16.9584 22.3799 16.1397C21.4852 15.3211 20.3252 14.8992 19.1133 14.9532Z" fill="url(#paint0_linear_2010_355)"/>
<defs>
<linearGradient id="paint0_linear_2010_355" x1="5.09248" y1="29.4897" x2="39.5646" y2="33.7987" gradientUnits="userSpaceOnUse">
<stop stop-color="#FF6700"/>
<stop offset="1" stop-color="#FF9F00"/>
</linearGradient>
</defs>
</svg>
