<svg width="2306" height="1544" viewBox="0 0 2306 1544" fill="none" xmlns="http://www.w3.org/2000/svg">
<g opacity="0.25">
<path opacity="0.0196" d="M1308.43 1262.81C1310.93 1169.26 1130.78 1088.55 906.052 1082.55C681.327 1076.54 497.127 1147.52 494.628 1241.07C492.129 1334.63 672.278 1415.34 897.002 1421.34C1121.73 1427.34 1305.93 1356.37 1308.43 1262.81Z" fill="#0F0A26"/>
<path opacity="0.0392" d="M1307.01 1262.65C1309.48 1170.34 1131.6 1090.7 909.721 1084.77C687.837 1078.85 505.966 1148.88 503.5 1241.19C501.035 1333.5 678.908 1413.14 900.792 1419.06C1122.68 1424.99 1304.55 1354.96 1307.01 1262.65Z" fill="#0F0A26"/>
<path opacity="0.0588" d="M1305.72 1262.7C1308.16 1171.63 1132.57 1093.04 913.531 1087.17C694.488 1081.3 514.939 1150.36 512.498 1241.43C510.056 1332.5 685.646 1411.09 904.689 1416.96C1123.73 1422.84 1303.28 1353.77 1305.72 1262.7Z" fill="#0F0A26"/>
<path opacity="0.0784" d="M1304.43 1262.75C1306.85 1172.92 1133.54 1095.38 917.339 1089.57C701.136 1083.75 523.91 1151.85 521.493 1241.68C519.075 1331.5 692.383 1409.04 908.585 1414.86C1124.79 1420.68 1302.01 1352.57 1304.43 1262.75Z" fill="#0F0A26"/>
<path opacity="0.098" d="M1303.01 1262.58C1305.4 1173.99 1134.36 1097.53 921.002 1091.78C707.64 1086.04 532.744 1153.2 530.36 1241.78C527.976 1330.37 699.008 1406.83 912.369 1412.57C1125.73 1418.32 1300.63 1351.16 1303.01 1262.58Z" fill="#0F0A26"/>
<path opacity="0.1176" d="M1301.72 1262.61C1304.08 1175.27 1135.33 1099.86 924.805 1094.17C714.284 1088.49 541.71 1154.68 539.351 1242.02C536.992 1329.36 705.741 1404.78 916.262 1410.46C1126.78 1416.15 1299.36 1349.95 1301.72 1262.61Z" fill="#0F0A26"/>
<path opacity="0.1373" d="M1300.42 1262.65C1302.75 1176.55 1136.29 1102.19 928.606 1096.56C720.925 1090.93 550.674 1156.16 548.34 1242.26C546.006 1328.36 712.472 1402.72 920.153 1408.35C1127.83 1413.98 1298.09 1348.75 1300.42 1262.65Z" fill="#0F0A26"/>
<path opacity="0.1569" d="M1298.99 1262.47C1301.29 1177.61 1137.1 1104.32 932.261 1098.77C727.422 1093.22 559.501 1157.5 557.201 1242.36C554.9 1327.21 719.091 1400.5 923.931 1406.06C1128.77 1411.61 1296.69 1347.32 1298.99 1262.47Z" fill="#0F0A26"/>
<path opacity="0.1765" d="M1297.69 1262.5C1299.97 1178.88 1138.06 1106.65 936.058 1101.15C734.058 1095.65 568.461 1158.98 566.185 1242.59C563.91 1326.2 725.819 1398.44 927.819 1403.94C1129.82 1409.43 1295.42 1346.11 1297.69 1262.5Z" fill="#0F0A26"/>
<path opacity="0.1961" d="M1296.39 1262.52C1298.64 1180.15 1139.01 1108.97 939.851 1103.53C740.692 1098.09 577.419 1160.45 575.169 1242.82C572.919 1325.19 732.546 1396.37 931.704 1401.81C1130.86 1407.25 1294.14 1344.89 1296.39 1262.52Z" fill="#0F0A26"/>
<path opacity="0.2157" d="M1294.95 1262.33C1297.17 1181.2 1139.82 1111.09 943.498 1105.73C747.18 1100.36 586.236 1161.78 584.021 1242.91C581.805 1324.04 739.156 1394.15 935.474 1399.51C1131.79 1404.87 1292.74 1343.45 1294.95 1262.33Z" fill="#0F0A26"/>
<path opacity="0.2353" d="M1293.64 1262.34C1295.83 1182.46 1140.76 1113.4 947.286 1108.09C753.808 1102.79 595.188 1163.25 592.998 1243.13C590.808 1323.02 745.878 1392.07 939.356 1397.38C1132.83 1402.68 1291.45 1342.22 1293.64 1262.34Z" fill="#0F0A26"/>
<path opacity="0.2549" d="M1292.33 1262.35C1294.5 1183.71 1141.71 1115.7 951.07 1110.46C760.433 1105.21 604.137 1164.71 601.974 1243.35C599.81 1321.99 752.598 1390 943.236 1395.24C1133.87 1400.49 1290.17 1340.99 1292.33 1262.35Z" fill="#0F0A26"/>
<path opacity="0.2745" d="M1291.02 1262.35C1293.15 1184.95 1142.65 1118 954.851 1112.82C767.054 1107.63 613.083 1166.17 610.946 1243.57C608.809 1320.97 759.315 1387.92 947.112 1393.1C1134.91 1398.29 1288.88 1339.75 1291.02 1262.35Z" fill="#0F0A26"/>
<path opacity="0.2941" d="M1289.7 1262.35C1291.81 1186.19 1143.58 1120.3 958.629 1115.18C773.673 1110.05 622.026 1167.63 619.916 1243.79C617.805 1319.94 766.031 1385.83 950.987 1390.96C1135.94 1396.08 1287.59 1338.5 1289.7 1262.35Z" fill="#0F0A26"/>
<path opacity="0.3137" d="M1288.38 1262.34C1290.46 1187.43 1144.52 1122.59 962.403 1117.53C780.288 1112.46 630.965 1169.08 628.882 1244C626.798 1318.91 772.743 1383.74 954.858 1388.81C1136.97 1393.87 1286.3 1337.25 1288.38 1262.34Z" fill="#0F0A26"/>
<path opacity="0.3333" d="M1286.93 1262.12C1288.98 1188.45 1145.3 1124.69 966.03 1119.7C786.755 1114.72 639.763 1170.39 637.714 1244.06C635.665 1317.73 779.335 1381.5 958.61 1386.48C1137.89 1391.47 1284.88 1335.79 1286.93 1262.12Z" fill="#0F0A26"/>
<path opacity="0.3529" d="M1285.6 1262.1C1287.62 1189.67 1146.23 1126.97 969.796 1122.04C793.362 1117.12 648.695 1171.84 646.674 1244.27C644.652 1316.69 786.042 1379.4 962.476 1384.32C1138.91 1389.25 1283.58 1334.53 1285.6 1262.1Z" fill="#0F0A26"/>
<path opacity="0.3725" d="M1284.27 1262.07C1286.26 1190.89 1147.15 1129.24 973.559 1124.38C799.965 1119.52 657.623 1173.28 655.629 1244.47C653.635 1315.65 792.744 1377.3 966.338 1382.16C1139.93 1387.02 1282.27 1333.26 1284.27 1262.07Z" fill="#0F0A26"/>
<path opacity="0.3922" d="M1282.93 1262.04C1284.9 1192.1 1148.07 1131.51 977.318 1126.71C806.565 1121.91 666.549 1174.72 664.582 1244.66C662.616 1314.6 799.445 1375.19 970.198 1379.99C1140.95 1384.79 1280.97 1331.98 1282.93 1262.04Z" fill="#0F0A26"/>
<path opacity="0.4118" d="M1281.59 1262C1283.53 1193.31 1148.98 1133.77 981.071 1129.04C813.159 1124.3 675.468 1176.15 673.53 1244.85C671.592 1313.55 806.14 1373.08 974.053 1377.82C1141.97 1382.55 1279.66 1330.7 1281.59 1262Z" fill="#0F0A26"/>
<path opacity="0.4314" d="M1280.25 1261.96C1282.16 1194.5 1149.89 1136.03 984.82 1131.36C819.748 1126.68 684.383 1177.58 682.473 1245.03C680.563 1312.49 812.832 1370.96 977.904 1375.63C1142.98 1380.31 1278.34 1329.41 1280.25 1261.96Z" fill="#0F0A26"/>
<path opacity="0.451" d="M1278.9 1261.9C1280.79 1195.69 1150.8 1138.28 988.565 1133.67C826.334 1129.06 693.294 1179 691.413 1245.21C689.532 1311.43 819.521 1368.84 981.752 1373.45C1143.98 1378.06 1277.02 1328.12 1278.9 1261.9Z" fill="#0F0A26"/>
<path opacity="0.4706" d="M1277.55 1261.84C1279.4 1196.87 1151.69 1140.52 992.303 1135.98C832.913 1131.43 702.199 1180.42 700.347 1245.39C698.495 1310.36 826.205 1366.71 985.595 1371.25C1144.99 1375.8 1275.7 1326.81 1277.55 1261.84Z" fill="#0F0A26"/>
<path opacity="0.4902" d="M1276.33 1261.98C1278.16 1198.25 1152.73 1142.95 996.182 1138.45C839.632 1133.96 711.24 1181.97 709.41 1245.7C707.58 1309.43 833.006 1364.73 989.556 1369.23C1146.11 1373.72 1274.5 1325.7 1276.33 1261.98Z" fill="#0F0A26"/>
<path opacity="0.5098" d="M1274.97 1261.9C1276.77 1199.42 1153.62 1145.17 999.91 1140.74C846.201 1136.31 720.135 1183.38 718.335 1245.86C716.535 1308.35 839.681 1362.59 993.391 1367.02C1147.1 1371.45 1273.17 1324.38 1274.97 1261.9Z" fill="#0F0A26"/>
<path opacity="0.5294" d="M1273.6 1261.81C1275.37 1200.57 1154.5 1147.39 1003.63 1143.03C852.762 1138.67 729.023 1184.78 727.253 1246.02C725.482 1307.26 846.35 1360.44 997.22 1364.8C1148.09 1369.16 1271.83 1323.05 1273.6 1261.81Z" fill="#0F0A26"/>
<path opacity="0.549" d="M1272.22 1261.72C1273.96 1201.72 1155.37 1149.6 1007.35 1145.31C859.317 1141.01 737.905 1186.17 736.164 1246.17C734.424 1306.16 853.014 1358.28 1001.04 1362.58C1149.07 1366.87 1270.48 1321.71 1272.22 1261.72Z" fill="#0F0A26"/>
<path opacity="0.5686" d="M1270.98 1261.81C1272.69 1203.06 1156.39 1151.99 1011.2 1147.75C866.012 1143.51 746.923 1187.7 745.207 1246.45C743.49 1305.21 859.797 1356.28 1004.98 1360.52C1150.17 1364.76 1269.26 1320.57 1270.98 1261.81Z" fill="#0F0A26"/>
<path opacity="0.5882" d="M1269.59 1261.7C1271.28 1204.18 1157.25 1154.18 1014.9 1150.01C872.552 1145.83 755.79 1189.07 754.104 1246.59C752.419 1304.1 866.447 1354.1 1008.79 1358.28C1151.14 1362.45 1267.9 1319.21 1269.59 1261.7Z" fill="#0F0A26"/>
<path opacity="0.6078" d="M1268.2 1261.57C1269.85 1205.3 1158.1 1156.36 1018.59 1152.25C879.085 1148.15 764.651 1190.44 762.996 1246.71C761.341 1302.98 873.092 1351.92 1012.6 1356.02C1152.11 1360.13 1266.54 1317.84 1268.2 1261.57Z" fill="#0F0A26"/>
<path opacity="0.6275" d="M1266.93 1261.63C1268.56 1206.6 1159.09 1158.71 1022.42 1154.67C885.756 1150.62 773.646 1191.95 772.016 1246.97C770.387 1302 879.856 1349.89 1016.52 1353.93C1153.19 1357.98 1265.3 1316.65 1266.93 1261.63Z" fill="#0F0A26"/>
<path opacity="0.6471" d="M1265.52 1261.48C1267.12 1207.69 1159.92 1160.87 1026.1 1156.89C892.273 1152.92 782.491 1193.29 780.892 1247.08C779.294 1300.86 886.486 1347.69 1020.31 1351.66C1154.14 1355.64 1263.92 1315.26 1265.52 1261.48Z" fill="#0F0A26"/>
<path opacity="0.6667" d="M1264.24 1261.51C1265.81 1208.97 1160.9 1163.2 1029.91 1159.28C898.927 1155.37 791.469 1194.78 789.897 1247.32C788.325 1299.86 893.235 1345.63 1024.22 1349.55C1155.21 1353.47 1262.66 1314.05 1264.24 1261.51Z" fill="#0F0A26"/>
<path opacity="0.6863" d="M1262.75 1261.67C1264.29 1210.37 1161.67 1165.67 1033.54 1161.81C905.41 1157.95 800.286 1196.4 798.742 1247.69C797.197 1298.99 899.816 1343.7 1027.95 1347.55C1156.08 1351.41 1261.2 1312.96 1262.75 1261.67Z" fill="#0F0A26"/>
<path opacity="0.7059" d="M1261.45 1261.67C1262.97 1211.62 1162.63 1167.97 1037.33 1164.17C912.043 1160.37 809.244 1197.87 807.727 1247.92C806.209 1297.97 906.548 1341.62 1031.84 1345.42C1157.13 1349.22 1259.93 1311.72 1261.45 1261.67Z" fill="#0F0A26"/>
<path opacity="0.7255" d="M1260 1261.47C1261.48 1212.66 1163.42 1170.07 1040.97 1166.35C918.517 1162.62 818.047 1199.17 816.563 1247.98C815.078 1296.79 913.142 1339.37 1035.59 1343.1C1158.04 1346.82 1258.51 1310.27 1260 1261.47Z" fill="#0F0A26"/>
<path opacity="0.7451" d="M1258.68 1261.44C1260.13 1213.87 1164.35 1172.34 1044.74 1168.68C925.127 1165.02 826.983 1200.61 825.527 1248.18C824.071 1295.74 919.854 1337.27 1039.46 1340.93C1159.08 1344.59 1257.22 1309 1258.68 1261.44Z" fill="#0F0A26"/>
<path opacity="0.7647" d="M1257.34 1261.39C1258.77 1215.07 1165.27 1174.6 1048.5 1171C931.724 1167.4 835.906 1202.04 834.478 1248.36C833.051 1294.68 926.555 1335.15 1043.33 1338.75C1160.1 1342.35 1255.92 1307.71 1257.34 1261.39Z" fill="#0F0A26"/>
<path opacity="0.7843" d="M1256 1261.32C1257.39 1216.24 1166.17 1176.84 1052.24 1173.3C938.307 1169.77 844.814 1203.45 843.416 1248.53C842.018 1293.61 933.243 1333.01 1047.17 1336.55C1161.1 1340.08 1254.6 1306.4 1256 1261.32Z" fill="#0F0A26"/>
<path opacity="0.8039" d="M1254.77 1261.43C1256.15 1217.6 1167.2 1179.24 1056.11 1175.76C945.024 1172.28 853.854 1205 852.482 1248.83C851.109 1292.67 940.052 1331.03 1051.14 1334.5C1162.23 1337.98 1253.4 1305.27 1254.77 1261.43Z" fill="#0F0A26"/>
<path opacity="0.8235" d="M1253.4 1261.32C1254.74 1218.73 1168.08 1181.43 1059.83 1178.02C951.576 1174.61 862.734 1206.37 861.391 1248.97C860.049 1291.56 946.715 1328.85 1054.96 1332.27C1163.21 1335.68 1252.06 1303.91 1253.4 1261.32Z" fill="#0F0A26"/>
<path opacity="0.8431" d="M1252.01 1261.19C1253.32 1219.84 1168.93 1183.61 1063.52 1180.26C958.11 1176.92 871.595 1207.73 870.284 1249.08C868.972 1290.43 953.361 1326.66 1058.77 1330.01C1164.18 1333.35 1250.7 1302.54 1252.01 1261.19Z" fill="#0F0A26"/>
<path opacity="0.8627" d="M1250.74 1261.22C1252.02 1221.11 1169.91 1185.94 1067.34 1182.65C964.775 1179.37 880.584 1209.22 879.3 1249.33C878.016 1289.44 960.124 1324.61 1062.69 1327.9C1165.26 1331.18 1249.45 1301.33 1250.74 1261.22Z" fill="#0F0A26"/>
<path opacity="0.8824" d="M1249.45 1261.23C1250.71 1222.36 1170.88 1188.24 1071.15 1185.02C971.419 1181.8 889.554 1210.69 888.298 1249.56C887.042 1288.42 966.87 1322.54 1066.6 1325.76C1166.33 1328.99 1248.19 1300.09 1249.45 1261.23Z" fill="#0F0A26"/>
<path opacity="0.902" d="M1248.14 1261.2C1249.37 1223.58 1171.82 1190.52 1074.93 1187.36C978.041 1184.2 898.502 1212.14 897.275 1249.76C896.048 1287.38 973.597 1320.44 1070.49 1323.6C1167.38 1326.76 1246.91 1298.83 1248.14 1261.2Z" fill="#0F0A26"/>
<path opacity="0.9216" d="M1246.81 1261.14C1248.01 1224.76 1172.74 1192.76 1078.69 1189.67C984.64 1186.57 907.427 1213.55 906.23 1249.93C905.032 1286.31 980.303 1318.31 1074.35 1321.41C1168.4 1324.51 1245.61 1297.52 1246.81 1261.14Z" fill="#0F0A26"/>
<path opacity="0.9412" d="M1245.27 1261.19C1246.43 1226.06 1173.45 1195.12 1082.25 1192.09C991.047 1189.06 916.169 1215.09 915.002 1250.22C913.835 1285.36 986.821 1316.29 1078.02 1319.32C1169.22 1322.35 1244.1 1296.33 1245.27 1261.19Z" fill="#0F0A26"/>
<path opacity="0.9608" d="M1243.88 1261.06C1245.02 1227.17 1174.31 1197.3 1085.95 1194.33C997.592 1191.37 925.041 1216.44 923.905 1250.34C922.769 1284.23 993.478 1314.1 1081.84 1317.06C1170.2 1320.03 1242.75 1294.95 1243.88 1261.06Z" fill="#0F0A26"/>
<path opacity="0.9804" d="M1242.62 1261.08C1243.72 1228.43 1175.29 1199.61 1089.77 1196.71C1004.25 1193.81 934.029 1217.92 932.921 1250.57C931.814 1283.22 1000.24 1312.04 1085.76 1314.94C1171.28 1317.84 1241.51 1293.72 1242.62 1261.08Z" fill="#0F0A26"/>
<path d="M1241.31 1261.04C1242.39 1229.64 1176.24 1201.88 1093.56 1199.04C1010.88 1196.2 942.982 1219.36 941.904 1250.77C940.826 1282.17 1006.98 1309.93 1089.66 1312.77C1172.34 1315.61 1240.24 1292.45 1241.31 1261.04Z" fill="#0F0A26"/>
</g>
<g opacity="0.25">
<path opacity="0.0196" d="M1850.55 1307.53C1850.92 1268.87 1669.01 1235.82 1444.25 1233.71C1219.49 1231.59 1037 1261.22 1036.63 1299.88C1036.27 1338.54 1218.18 1371.59 1442.93 1373.7C1667.69 1375.82 1850.19 1346.19 1850.55 1307.53Z" fill="#0F0A26"/>
<path opacity="0.0392" d="M1849.17 1307.47C1849.53 1269.33 1669.92 1236.71 1448 1234.63C1226.08 1232.54 1045.9 1261.77 1045.54 1299.92C1045.18 1338.07 1224.79 1370.68 1446.7 1372.77C1668.62 1374.85 1848.81 1345.62 1849.17 1307.47Z" fill="#0F0A26"/>
<path opacity="0.0588" d="M1847.78 1307.42C1848.13 1269.79 1670.83 1237.61 1451.75 1235.55C1232.68 1233.49 1054.79 1262.33 1054.44 1299.96C1054.09 1337.59 1231.39 1369.77 1450.47 1371.83C1669.54 1373.89 1847.43 1345.05 1847.78 1307.42Z" fill="#0F0A26"/>
<path opacity="0.0784" d="M1846.57 1307.58C1846.93 1270.46 1671.92 1238.7 1455.69 1236.65C1239.45 1234.59 1063.87 1263.02 1063.52 1300.14C1063.17 1337.26 1238.18 1369.01 1454.41 1371.07C1670.64 1373.12 1846.22 1344.69 1846.57 1307.58Z" fill="#0F0A26"/>
<path opacity="0.098" d="M1845.18 1307.52C1845.53 1270.91 1672.83 1239.59 1459.43 1237.57C1246.04 1235.54 1072.77 1263.57 1072.42 1300.17C1072.08 1336.78 1244.78 1368.1 1458.17 1370.12C1671.57 1372.15 1844.84 1344.12 1845.18 1307.52Z" fill="#0F0A26"/>
<path opacity="0.1176" d="M1843.8 1307.45C1844.14 1271.36 1673.73 1240.48 1463.18 1238.48C1252.63 1236.48 1081.66 1264.12 1081.32 1300.21C1080.98 1336.3 1251.39 1367.18 1461.94 1369.18C1672.49 1371.18 1843.45 1343.55 1843.8 1307.45Z" fill="#0F0A26"/>
<path opacity="0.1373" d="M1842.41 1307.39C1842.74 1271.81 1674.63 1241.37 1466.93 1239.4C1259.22 1237.43 1090.56 1264.67 1090.22 1300.25C1089.88 1335.82 1257.99 1366.27 1465.7 1368.24C1673.41 1370.21 1842.07 1342.97 1842.41 1307.39Z" fill="#0F0A26"/>
<path opacity="0.1569" d="M1841.19 1307.54C1841.53 1272.48 1675.72 1242.46 1470.86 1240.49C1265.99 1238.52 1099.64 1265.36 1099.3 1300.42C1098.96 1335.48 1264.77 1365.5 1469.64 1367.47C1674.51 1369.44 1840.86 1342.61 1841.19 1307.54Z" fill="#0F0A26"/>
<path opacity="0.1765" d="M1839.8 1307.48C1840.13 1272.93 1676.63 1243.34 1474.6 1241.4C1272.57 1239.47 1108.53 1265.9 1108.2 1300.45C1107.86 1335 1271.37 1364.59 1473.4 1366.52C1675.42 1368.46 1839.47 1342.03 1839.8 1307.48Z" fill="#0F0A26"/>
<path opacity="0.1961" d="M1838.41 1307.41C1838.73 1273.37 1677.53 1244.23 1478.34 1242.32C1279.15 1240.4 1117.42 1266.45 1117.09 1300.48C1116.76 1334.52 1277.97 1363.67 1477.16 1365.58C1676.34 1367.49 1838.08 1341.45 1838.41 1307.41Z" fill="#0F0A26"/>
<path opacity="0.2157" d="M1837.01 1307.34C1837.33 1273.82 1678.42 1245.11 1482.08 1243.23C1285.73 1241.34 1126.3 1266.99 1125.98 1300.51C1125.66 1334.04 1284.57 1362.74 1480.91 1364.63C1677.26 1366.51 1836.69 1340.86 1837.01 1307.34Z" fill="#0F0A26"/>
<path opacity="0.2353" d="M1835.79 1307.48C1836.11 1274.47 1679.51 1246.19 1486.01 1244.31C1292.5 1242.44 1135.38 1267.68 1135.06 1300.69C1134.74 1333.7 1291.34 1361.98 1484.85 1363.86C1678.35 1365.73 1835.47 1340.49 1835.79 1307.48Z" fill="#0F0A26"/>
<path opacity="0.2549" d="M1834.39 1307.41C1834.71 1274.91 1680.4 1247.07 1489.74 1245.22C1299.08 1243.37 1144.26 1268.22 1143.94 1300.71C1143.63 1333.21 1297.94 1361.05 1488.6 1362.9C1679.26 1364.75 1834.08 1339.91 1834.39 1307.41Z" fill="#0F0A26"/>
<path opacity="0.2745" d="M1832.99 1307.34C1833.3 1275.35 1681.3 1247.95 1493.47 1246.13C1305.65 1244.3 1153.14 1268.76 1152.83 1300.74C1152.52 1332.72 1304.53 1360.13 1492.35 1361.95C1680.17 1363.77 1832.68 1339.32 1832.99 1307.34Z" fill="#0F0A26"/>
<path opacity="0.2941" d="M1831.77 1307.47C1832.08 1276 1682.38 1249.02 1497.4 1247.21C1312.42 1245.4 1162.21 1269.44 1161.9 1300.91C1161.59 1332.38 1311.3 1359.36 1496.28 1361.17C1681.26 1362.98 1831.46 1338.94 1831.77 1307.47Z" fill="#0F0A26"/>
<path opacity="0.3137" d="M1830.37 1307.39C1830.67 1276.44 1683.26 1249.9 1501.13 1248.11C1318.99 1246.33 1171.09 1269.97 1170.79 1300.93C1170.48 1331.89 1317.89 1358.43 1500.03 1360.21C1682.17 1362 1830.06 1338.35 1830.37 1307.39Z" fill="#0F0A26"/>
<path opacity="0.3333" d="M1828.96 1307.31C1829.26 1276.87 1684.15 1250.77 1504.85 1249.01C1325.56 1247.25 1179.97 1270.51 1179.67 1300.95C1179.37 1331.39 1324.48 1357.5 1503.77 1359.25C1683.07 1361.01 1828.66 1337.76 1828.96 1307.31Z" fill="#0F0A26"/>
<path opacity="0.3529" d="M1827.74 1307.44C1828.03 1277.51 1685.23 1251.83 1508.77 1250.09C1332.31 1248.34 1189.03 1271.19 1188.73 1301.12C1188.44 1331.05 1331.24 1356.72 1507.7 1358.47C1684.15 1360.22 1827.44 1337.37 1827.74 1307.44Z" fill="#0F0A26"/>
<path opacity="0.3725" d="M1826.32 1307.36C1826.61 1277.94 1686.11 1252.7 1512.49 1250.98C1338.88 1249.26 1197.9 1271.72 1197.61 1301.13C1197.32 1330.55 1337.82 1355.79 1511.44 1357.51C1685.05 1359.23 1826.03 1336.77 1826.32 1307.36Z" fill="#0F0A26"/>
<path opacity="0.3922" d="M1825.09 1307.48C1825.38 1278.58 1687.18 1253.76 1516.4 1252.06C1345.63 1250.35 1206.96 1272.39 1206.67 1301.3C1206.38 1330.2 1344.58 1355.01 1515.36 1356.72C1686.13 1358.43 1824.81 1336.38 1825.09 1307.48Z" fill="#0F0A26"/>
<path opacity="0.4118" d="M1823.68 1307.39C1823.96 1279 1688.06 1254.63 1520.12 1252.95C1352.19 1251.27 1215.82 1272.92 1215.54 1301.31C1215.26 1329.7 1351.16 1354.07 1519.09 1355.75C1687.03 1357.43 1823.39 1335.78 1823.68 1307.39Z" fill="#0F0A26"/>
<path opacity="0.4314" d="M1822.05 1307.48C1822.33 1279.61 1688.73 1255.68 1523.66 1254.03C1358.59 1252.38 1224.54 1273.63 1224.26 1301.51C1223.98 1329.38 1357.58 1353.31 1522.65 1354.96C1687.72 1356.61 1821.77 1335.36 1822.05 1307.48Z" fill="#0F0A26"/>
<path opacity="0.451" d="M1820.81 1307.6C1821.09 1280.24 1689.8 1256.73 1527.56 1255.09C1365.33 1253.45 1233.59 1274.3 1233.31 1301.66C1233.04 1329.02 1364.33 1352.53 1526.56 1354.17C1688.8 1355.81 1820.54 1334.96 1820.81 1307.6Z" fill="#0F0A26"/>
<path opacity="0.4706" d="M1819.39 1307.5C1819.66 1280.65 1690.67 1257.59 1531.27 1255.98C1371.88 1254.37 1242.45 1274.82 1242.18 1301.67C1241.91 1328.51 1370.9 1351.58 1530.29 1353.19C1689.68 1354.8 1819.12 1334.34 1819.39 1307.5Z" fill="#0F0A26"/>
<path opacity="0.4902" d="M1818.15 1307.61C1818.42 1281.27 1691.73 1258.63 1535.17 1257.04C1378.62 1255.44 1251.49 1275.49 1251.23 1301.82C1250.96 1328.16 1377.65 1350.8 1534.2 1352.39C1690.75 1353.99 1817.88 1333.94 1818.15 1307.61Z" fill="#0F0A26"/>
<path opacity="0.5098" d="M1816.72 1307.5C1816.98 1281.68 1692.59 1259.48 1538.88 1257.91C1385.17 1256.35 1260.35 1276.01 1260.08 1301.82C1259.82 1327.64 1384.21 1349.84 1537.92 1351.41C1691.63 1352.98 1816.45 1333.32 1816.72 1307.5Z" fill="#0F0A26"/>
<path opacity="0.5294" d="M1815.47 1307.6C1815.73 1282.3 1693.64 1260.52 1542.77 1258.97C1391.9 1257.41 1269.38 1276.67 1269.12 1301.97C1268.86 1327.28 1390.96 1349.05 1541.83 1350.6C1692.7 1352.16 1815.21 1332.91 1815.47 1307.6Z" fill="#0F0A26"/>
<path opacity="0.549" d="M1814.03 1307.49C1814.29 1282.7 1694.49 1261.36 1546.47 1259.84C1398.44 1258.32 1278.23 1277.18 1277.97 1301.97C1277.72 1326.76 1397.51 1348.09 1545.54 1349.62C1693.57 1351.14 1813.78 1332.28 1814.03 1307.49Z" fill="#0F0A26"/>
<path opacity="0.5686" d="M1812.78 1307.58C1813.03 1283.3 1695.54 1262.4 1550.35 1260.89C1405.16 1259.38 1287.26 1277.83 1287.01 1302.11C1286.76 1326.39 1404.25 1347.29 1549.44 1348.8C1694.62 1350.31 1812.53 1331.86 1812.78 1307.58Z" fill="#0F0A26"/>
<path opacity="0.5882" d="M1811.33 1307.46C1811.58 1283.69 1696.39 1263.23 1554.04 1261.75C1411.69 1260.27 1296.1 1278.33 1295.85 1302.1C1295.6 1325.86 1410.8 1346.33 1553.14 1347.81C1695.49 1349.29 1811.09 1331.22 1811.33 1307.46Z" fill="#0F0A26"/>
<path opacity="0.6078" d="M1810.07 1307.54C1810.32 1284.29 1697.42 1264.25 1557.92 1262.79C1418.41 1261.32 1305.12 1278.98 1304.88 1302.24C1304.63 1325.49 1417.53 1345.52 1557.03 1346.99C1696.54 1348.45 1809.83 1330.79 1810.07 1307.54Z" fill="#0F0A26"/>
<path opacity="0.6275" d="M1808.62 1307.41C1808.86 1284.68 1698.26 1265.08 1561.6 1263.64C1424.93 1262.21 1313.95 1279.48 1313.71 1302.22C1313.47 1324.95 1424.07 1344.55 1560.73 1345.98C1697.4 1347.42 1808.38 1330.15 1808.62 1307.41Z" fill="#0F0A26"/>
<path opacity="0.6471" d="M1807.35 1307.48C1807.58 1285.26 1699.29 1266.09 1565.47 1264.67C1431.64 1263.26 1322.97 1280.12 1322.73 1302.35C1322.49 1324.57 1430.79 1343.74 1564.61 1345.15C1698.44 1346.57 1807.11 1329.71 1807.35 1307.48Z" fill="#0F0A26"/>
<path opacity="0.6667" d="M1806.07 1307.55C1806.31 1285.84 1700.31 1267.1 1569.33 1265.7C1438.35 1264.3 1331.98 1280.76 1331.74 1302.47C1331.51 1324.18 1437.51 1342.92 1568.49 1344.32C1699.47 1345.72 1805.84 1329.26 1806.07 1307.55Z" fill="#0F0A26"/>
<path opacity="0.6863" d="M1804.6 1307.4C1804.83 1286.21 1701.13 1267.91 1572.99 1266.54C1444.85 1265.17 1340.79 1281.24 1340.56 1302.44C1340.33 1323.64 1444.03 1341.93 1572.17 1343.3C1700.31 1344.67 1804.38 1328.6 1804.6 1307.4Z" fill="#0F0A26"/>
<path opacity="0.7059" d="M1803.32 1307.46C1803.54 1286.77 1702.14 1268.91 1576.84 1267.56C1451.54 1266.2 1349.79 1281.87 1349.56 1302.56C1349.34 1323.24 1450.74 1341.1 1576.04 1342.46C1701.34 1343.81 1803.09 1328.14 1803.32 1307.46Z" fill="#0F0A26"/>
<path opacity="0.7255" d="M1802.03 1307.5C1802.25 1287.33 1703.15 1269.9 1580.69 1268.56C1458.23 1267.23 1358.78 1282.5 1358.56 1302.67C1358.34 1322.84 1457.43 1340.27 1579.89 1341.61C1702.35 1342.94 1801.81 1327.67 1802.03 1307.5Z" fill="#0F0A26"/>
<path opacity="0.7451" d="M1800.53 1307.34C1800.75 1287.68 1703.95 1270.69 1584.33 1269.39C1464.72 1268.08 1367.57 1282.96 1367.36 1302.62C1367.14 1322.28 1463.94 1339.27 1583.56 1340.57C1703.18 1341.87 1800.32 1327 1800.53 1307.34Z" fill="#0F0A26"/>
<path opacity="0.7647" d="M1799.23 1307.37C1799.44 1288.23 1704.94 1271.67 1588.17 1270.38C1471.39 1269.1 1376.55 1283.58 1376.34 1302.72C1376.13 1321.86 1470.63 1338.42 1587.4 1339.71C1704.18 1340.99 1799.02 1326.51 1799.23 1307.37Z" fill="#0F0A26"/>
<path opacity="0.7843" d="M1797.92 1307.39C1798.12 1288.76 1705.93 1272.64 1591.99 1271.37C1478.05 1270.11 1385.52 1284.18 1385.32 1302.81C1385.11 1321.44 1477.31 1337.57 1591.24 1338.84C1705.18 1340.1 1797.71 1326.02 1797.92 1307.39Z" fill="#0F0A26"/>
<path opacity="0.8039" d="M1796.6 1307.41C1796.8 1289.29 1706.9 1273.6 1595.81 1272.35C1484.71 1271.11 1394.49 1284.79 1394.28 1302.9C1394.08 1321.02 1483.98 1336.71 1595.07 1337.96C1706.17 1339.2 1796.39 1325.52 1796.6 1307.41Z" fill="#0F0A26"/>
<path opacity="0.8235" d="M1795.27 1307.41C1795.47 1289.81 1707.87 1274.55 1599.61 1273.32C1491.36 1272.1 1403.44 1285.38 1403.24 1302.98C1403.04 1320.58 1490.64 1335.85 1598.89 1337.07C1707.15 1338.29 1795.07 1325.01 1795.27 1307.41Z" fill="#0F0A26"/>
<path opacity="0.8431" d="M1793.93 1307.41C1794.12 1290.32 1708.83 1275.49 1603.41 1274.29C1498 1273.09 1412.39 1285.97 1412.19 1303.06C1412 1320.14 1497.29 1334.97 1602.71 1336.17C1708.12 1337.38 1793.73 1324.5 1793.93 1307.41Z" fill="#0F0A26"/>
<path opacity="0.8627" d="M1792.58 1307.39C1792.77 1290.81 1709.77 1276.42 1607.2 1275.24C1504.63 1274.06 1421.32 1286.54 1421.13 1303.12C1420.94 1319.69 1503.94 1334.09 1606.51 1335.27C1709.08 1336.45 1792.39 1323.97 1792.58 1307.39Z" fill="#0F0A26"/>
<path opacity="0.8824" d="M1791.22 1307.36C1791.4 1291.3 1710.71 1277.34 1610.97 1276.18C1511.24 1275.03 1430.24 1287.11 1430.06 1303.17C1429.87 1319.23 1510.57 1333.19 1610.3 1334.35C1710.03 1335.51 1791.03 1323.42 1791.22 1307.36Z" fill="#0F0A26"/>
<path opacity="0.902" d="M1789.84 1307.32C1790.03 1291.77 1711.63 1278.25 1614.74 1277.11C1517.85 1275.98 1439.15 1287.67 1438.97 1303.21C1438.79 1318.76 1517.19 1332.29 1614.08 1333.42C1710.97 1334.55 1789.66 1322.87 1789.84 1307.32Z" fill="#0F0A26"/>
<path opacity="0.9216" d="M1788.46 1307.27C1788.64 1292.23 1712.54 1279.14 1618.49 1278.03C1524.44 1276.92 1448.05 1288.21 1447.87 1303.25C1447.7 1318.28 1523.79 1331.37 1617.84 1332.48C1711.89 1333.59 1788.28 1322.3 1788.46 1307.27Z" fill="#0F0A26"/>
<path opacity="0.9412" d="M1787.25 1307.39C1787.43 1292.87 1713.63 1280.21 1622.42 1279.12C1531.21 1278.02 1457.13 1288.91 1456.96 1303.43C1456.78 1317.95 1530.58 1330.61 1621.79 1331.7C1713 1332.8 1787.08 1321.91 1787.25 1307.39Z" fill="#0F0A26"/>
<path opacity="0.9608" d="M1785.83 1307.31C1786 1293.3 1714.51 1281.07 1626.14 1280.01C1537.77 1278.94 1466 1289.43 1465.83 1303.43C1465.66 1317.44 1537.16 1329.66 1625.52 1330.73C1713.89 1331.8 1785.66 1321.31 1785.83 1307.31Z" fill="#0F0A26"/>
<path opacity="0.9804" d="M1784.6 1307.4C1784.76 1293.9 1715.56 1282.11 1630.04 1281.06C1544.51 1280.01 1475.04 1290.09 1474.88 1303.59C1474.71 1317.08 1543.91 1328.87 1629.44 1329.93C1714.96 1330.98 1784.43 1320.89 1784.6 1307.4Z" fill="#0F0A26"/>
<path d="M1783.14 1307.27C1783.3 1294.29 1716.4 1282.94 1633.72 1281.91C1551.03 1280.89 1483.87 1290.58 1483.71 1303.56C1483.55 1316.54 1550.45 1327.9 1633.13 1328.92C1715.82 1329.95 1782.98 1320.25 1783.14 1307.27Z" fill="#0F0A26"/>
</g>
<g opacity="0.25">
<path opacity="0.0196" d="M744.438 520.09C745.01 490.761 645.514 465.035 522.207 462.63C398.9 460.225 298.477 482.052 297.905 511.381C297.333 540.71 396.829 566.436 520.135 568.841C643.442 571.246 743.866 549.42 744.438 520.09Z" fill="#0F0A26"/>
<path opacity="0.0392" d="M743.08 520.033C743.645 491.094 645.471 465.71 523.802 463.337C402.134 460.964 303.045 482.5 302.48 511.44C301.916 540.379 400.09 565.763 521.758 568.136C643.427 570.509 742.516 548.972 743.08 520.033Z" fill="#0F0A26"/>
<path opacity="0.0588" d="M741.724 519.975C742.281 491.425 645.428 466.383 525.398 464.041C405.367 461.7 307.612 482.947 307.055 511.497C306.498 540.047 403.351 565.09 523.381 567.431C643.412 569.772 741.167 548.525 741.724 519.975Z" fill="#0F0A26"/>
<path opacity="0.0784" d="M740.368 519.918C740.917 491.758 645.386 467.057 526.994 464.748C408.602 462.439 312.18 483.396 311.631 511.556C311.082 539.716 406.613 564.417 525.005 566.726C643.397 569.035 739.818 548.078 740.368 519.918Z" fill="#0F0A26"/>
<path opacity="0.098" d="M739.011 519.859C739.553 492.089 645.344 467.73 528.59 465.453C411.836 463.176 316.749 483.842 316.208 511.613C315.666 539.383 409.875 563.742 526.629 566.019C643.383 568.296 738.47 547.63 739.011 519.859Z" fill="#0F0A26"/>
<path opacity="0.1176" d="M737.656 519.802C738.19 492.421 645.302 468.404 530.186 466.158C415.07 463.913 321.317 484.29 320.783 511.671C320.249 539.052 413.136 563.069 528.252 565.315C643.368 567.56 737.122 547.183 737.656 519.802Z" fill="#0F0A26"/>
<path opacity="0.1373" d="M736.298 519.745C736.825 492.753 645.26 469.078 531.782 466.865C418.304 464.652 325.885 484.738 325.358 511.73C324.832 538.721 416.397 562.396 529.875 564.61C643.353 566.823 735.772 546.736 736.298 519.745Z" fill="#0F0A26"/>
<path opacity="0.1569" d="M734.943 519.686C735.461 493.085 645.218 469.752 533.378 467.57C421.537 465.389 330.452 485.185 329.934 511.787C329.415 538.389 419.659 561.722 531.499 563.903C643.339 566.084 734.424 546.288 734.943 519.686Z" fill="#0F0A26"/>
<path opacity="0.1765" d="M733.585 519.629C734.097 493.417 645.175 470.425 534.973 468.276C424.771 466.126 335.02 485.633 334.509 511.845C333.998 538.058 422.92 561.049 533.122 563.199C643.323 565.348 733.074 545.841 733.585 519.629Z" fill="#0F0A26"/>
<path opacity="0.1961" d="M732.23 519.571C732.733 493.748 645.133 471.098 536.569 468.981C428.005 466.864 339.588 486.08 339.084 511.903C338.581 537.725 426.181 560.375 534.745 562.492C643.309 564.61 731.726 545.393 732.23 519.571Z" fill="#0F0A26"/>
<path opacity="0.2157" d="M730.872 519.513C731.369 494.08 645.09 471.772 538.164 469.686C431.239 467.601 344.156 486.528 343.66 511.961C343.164 537.394 429.442 559.702 536.368 561.788C643.294 563.873 730.376 544.946 730.872 519.513Z" fill="#0F0A26"/>
<path opacity="0.2353" d="M729.516 519.456C730.004 494.413 645.048 472.446 539.76 470.393C434.473 468.339 348.724 486.976 348.236 512.02C347.748 537.063 432.704 559.029 537.991 561.083C643.279 563.136 729.027 544.499 729.516 519.456Z" fill="#0F0A26"/>
<path opacity="0.2549" d="M728.16 519.398C728.641 494.744 645.006 473.12 541.356 471.098C437.706 469.077 353.292 487.424 352.811 512.077C352.33 536.73 435.965 558.355 539.615 560.376C643.265 562.398 727.679 544.051 728.16 519.398Z" fill="#0F0A26"/>
<path opacity="0.2745" d="M726.802 519.34C727.276 495.076 644.963 473.793 542.951 471.803C440.94 469.814 357.859 487.871 357.386 512.135C356.913 536.399 439.226 557.682 541.237 559.672C643.249 561.661 726.329 543.604 726.802 519.34Z" fill="#0F0A26"/>
<path opacity="0.2941" d="M725.447 519.282C725.912 495.408 644.921 474.467 544.547 472.509C444.173 470.551 362.427 488.318 361.961 512.193C361.496 536.067 442.487 557.008 542.861 558.966C643.234 560.924 724.981 543.157 725.447 519.282Z" fill="#0F0A26"/>
<path opacity="0.3137" d="M724.09 519.225C724.548 495.74 644.878 475.14 546.143 473.215C447.408 471.289 366.995 488.766 366.537 512.251C366.079 535.736 445.749 556.336 544.484 558.262C643.22 560.187 723.632 542.71 724.09 519.225Z" fill="#0F0A26"/>
<path opacity="0.3333" d="M722.734 519.166C723.184 496.071 644.836 475.814 547.738 473.92C450.641 472.026 371.562 489.213 371.112 512.308C370.662 535.404 449.01 555.661 546.107 557.555C643.205 559.449 722.283 542.262 722.734 519.166Z" fill="#0F0A26"/>
<path opacity="0.3529" d="M721.377 519.109C721.82 496.403 644.794 476.487 549.334 474.625C453.875 472.763 376.131 489.661 375.688 512.367C375.245 535.073 452.271 554.989 547.731 556.851C643.19 558.712 720.934 541.815 721.377 519.109Z" fill="#0F0A26"/>
<path opacity="0.3725" d="M720.021 519.052C720.456 496.736 644.751 477.161 550.93 475.331C457.108 473.502 380.698 490.109 380.263 512.425C379.827 534.741 455.532 554.315 549.354 556.145C643.175 557.975 719.585 541.368 720.021 519.052Z" fill="#0F0A26"/>
<path opacity="0.3922" d="M718.665 518.993C719.092 497.067 644.709 477.835 552.526 476.037C460.343 474.239 385.267 490.556 384.839 512.482C384.412 534.409 458.794 553.641 550.978 555.439C643.161 557.237 718.237 540.919 718.665 518.993Z" fill="#0F0A26"/>
<path opacity="0.4118" d="M717.308 518.936C717.728 497.399 644.667 478.508 554.122 476.742C463.577 474.976 389.835 491.004 389.415 512.541C388.995 534.078 462.056 552.968 552.601 554.734C643.146 556.5 716.888 540.473 717.308 518.936Z" fill="#0F0A26"/>
<path opacity="0.4314" d="M715.952 518.878C716.365 497.731 644.625 479.182 555.718 477.448C466.811 475.714 394.403 491.451 393.99 512.598C393.578 533.746 465.317 552.294 554.224 554.028C643.132 555.762 715.54 540.025 715.952 518.878Z" fill="#0F0A26"/>
<path opacity="0.451" d="M714.594 518.82C714.999 498.062 644.582 479.855 557.313 478.153C470.044 476.451 398.97 491.899 398.566 512.656C398.161 533.414 468.578 551.622 555.847 553.324C643.116 555.026 714.19 539.578 714.594 518.82Z" fill="#0F0A26"/>
<path opacity="0.4706" d="M713.239 518.763C713.636 498.395 644.54 480.53 558.909 478.86C473.278 477.189 403.538 492.347 403.141 512.715C402.743 533.083 471.839 550.949 557.47 552.619C643.102 554.289 712.841 539.131 713.239 518.763Z" fill="#0F0A26"/>
<path opacity="0.4902" d="M711.882 518.705C712.272 498.727 644.498 481.203 560.505 479.565C476.512 477.927 408.106 492.795 407.717 512.773C407.327 532.751 475.101 550.275 559.094 551.913C643.087 553.551 711.492 538.683 711.882 518.705Z" fill="#0F0A26"/>
<path opacity="0.5098" d="M710.526 518.648C710.908 499.059 644.455 481.877 562.1 480.27C479.745 478.664 412.673 493.242 412.291 512.831C411.909 532.42 478.362 549.602 560.717 551.208C643.072 552.814 710.144 538.237 710.526 518.648Z" fill="#0F0A26"/>
<path opacity="0.5294" d="M709.169 518.589C709.544 499.39 644.413 482.55 563.696 480.976C482.979 479.401 417.242 493.689 416.867 512.888C416.493 532.087 481.623 548.928 562.34 550.502C643.057 552.076 708.795 537.788 709.169 518.589Z" fill="#0F0A26"/>
<path opacity="0.549" d="M707.812 518.532C708.179 499.723 644.371 483.224 565.292 481.682C486.214 480.139 421.81 494.137 421.444 512.947C421.077 531.757 484.885 548.256 563.964 549.798C643.042 551.34 707.445 537.342 707.812 518.532Z" fill="#0F0A26"/>
<path opacity="0.5686" d="M706.456 518.473C706.815 500.054 644.328 483.897 566.888 482.386C489.447 480.876 426.377 494.584 426.018 513.004C425.659 531.424 488.146 547.581 565.587 549.091C643.027 550.601 706.097 536.893 706.456 518.473Z" fill="#0F0A26"/>
<path opacity="0.5882" d="M705.099 518.416C705.451 500.386 644.286 484.571 568.484 483.093C492.681 481.615 430.946 495.032 430.594 513.062C430.243 531.093 491.408 546.907 567.21 548.386C643.013 549.864 704.748 536.447 705.099 518.416Z" fill="#0F0A26"/>
<path opacity="0.6078" d="M703.744 518.359C704.088 500.719 644.244 485.245 570.08 483.799C495.915 482.352 435.513 495.48 435.169 513.121C434.825 530.762 494.669 546.235 568.834 547.682C642.998 549.128 703.4 536 703.744 518.359Z" fill="#0F0A26"/>
<path opacity="0.6275" d="M702.386 518.301C702.723 501.05 644.201 485.918 571.675 484.504C499.148 483.089 440.081 495.927 439.745 513.178C439.408 530.429 497.93 545.561 570.456 546.975C642.983 548.39 702.05 535.552 702.386 518.301Z" fill="#0F0A26"/>
<path opacity="0.6471" d="M701.03 518.244C701.359 501.382 644.159 486.592 573.27 485.209C502.382 483.827 444.648 496.375 444.32 513.237C443.991 530.098 501.191 544.888 572.079 546.271C642.968 547.654 700.701 535.105 701.03 518.244Z" fill="#0F0A26"/>
<path opacity="0.6667" d="M699.673 518.185C699.994 501.713 644.116 487.265 574.866 485.914C505.615 484.564 449.216 496.822 448.895 513.294C448.574 529.766 504.452 544.214 573.702 545.564C642.953 546.915 699.352 534.657 699.673 518.185Z" fill="#0F0A26"/>
<path opacity="0.6863" d="M698.316 518.128C698.63 502.046 644.074 487.94 576.462 486.621C508.85 485.302 453.785 497.27 453.471 513.352C453.158 529.434 507.714 543.54 575.326 544.859C642.938 546.178 698.003 534.21 698.316 518.128Z" fill="#0F0A26"/>
<path opacity="0.7059" d="M696.962 518.071C697.268 502.378 644.033 488.613 578.059 487.326C512.084 486.04 458.353 497.718 458.047 513.411C457.741 529.104 510.976 542.868 576.95 544.155C642.925 545.442 696.656 533.763 696.962 518.071Z" fill="#0F0A26"/>
<path opacity="0.7255" d="M695.604 518.012C695.903 502.709 643.99 489.286 579.654 488.032C515.318 486.777 462.921 498.165 462.623 513.468C462.324 528.771 514.237 542.194 578.573 543.449C642.909 544.703 695.306 533.315 695.604 518.012Z" fill="#0F0A26"/>
<path opacity="0.7451" d="M694.249 517.955C694.539 503.041 643.948 489.96 581.25 488.737C518.552 487.514 467.489 498.613 467.198 513.527C466.907 528.44 517.498 541.522 580.197 542.744C642.895 543.967 693.958 532.869 694.249 517.955Z" fill="#0F0A26"/>
<path opacity="0.7647" d="M692.891 517.897C693.175 503.373 643.905 490.634 582.845 489.443C521.785 488.252 472.057 499.06 471.774 513.584C471.49 528.108 520.76 540.847 581.82 542.038C642.88 543.229 692.608 532.421 692.891 517.897Z" fill="#0F0A26"/>
<path opacity="0.7843" d="M691.536 517.839C691.811 503.705 643.864 491.308 584.441 490.149C525.019 488.99 476.624 499.509 476.349 513.643C476.073 527.777 524.021 540.174 583.443 541.333C642.865 542.492 691.26 531.973 691.536 517.839Z" fill="#0F0A26"/>
<path opacity="0.8039" d="M690.179 517.782C690.447 504.038 643.821 491.982 586.037 490.855C528.253 489.728 481.193 499.956 480.925 513.701C480.657 527.446 527.283 539.502 585.066 540.629C642.85 541.756 689.911 531.527 690.179 517.782Z" fill="#0F0A26"/>
<path opacity="0.8235" d="M688.823 517.724C689.084 504.37 643.779 492.655 587.633 491.56C531.487 490.465 485.76 500.404 485.5 513.759C485.239 527.114 530.544 538.828 586.69 539.923C642.836 541.018 688.563 531.079 688.823 517.724Z" fill="#0F0A26"/>
<path opacity="0.8431" d="M687.466 517.666C687.718 504.701 643.736 493.328 589.228 492.265C534.72 491.202 490.328 500.851 490.075 513.816C489.822 526.782 533.805 538.155 588.312 539.218C642.82 540.281 687.213 530.632 687.466 517.666Z" fill="#0F0A26"/>
<path opacity="0.8627" d="M686.109 517.608C686.354 505.033 643.694 494.002 590.824 492.971C537.955 491.94 494.896 501.298 494.651 513.874C494.406 526.45 537.066 537.48 589.936 538.512C642.805 539.543 685.864 530.184 686.109 517.608Z" fill="#0F0A26"/>
<path opacity="0.8824" d="M684.753 517.551C684.991 505.366 643.652 494.677 592.42 493.678C541.188 492.678 499.464 501.747 499.226 513.933C498.989 526.119 540.327 536.808 591.559 537.807C642.791 538.806 684.515 529.737 684.753 517.551Z" fill="#0F0A26"/>
<path opacity="0.902" d="M683.396 517.493C683.626 505.696 643.609 495.349 594.015 494.382C544.422 493.414 504.032 502.193 503.802 513.99C503.572 525.787 543.589 536.134 593.182 537.101C642.776 538.068 683.166 529.289 683.396 517.493Z" fill="#0F0A26"/>
<path opacity="0.9216" d="M682.04 517.436C682.263 506.029 643.567 496.024 595.611 495.088C547.656 494.153 508.599 502.642 508.377 514.049C508.154 525.455 546.85 535.461 594.806 536.396C642.762 537.331 681.818 528.842 682.04 517.436Z" fill="#0F0A26"/>
<path opacity="0.9412" d="M680.684 517.379C680.899 506.361 643.525 496.698 597.208 495.794C550.89 494.891 513.168 503.09 512.954 514.108C512.739 525.125 550.112 534.789 596.43 535.692C642.747 536.596 680.469 528.397 680.684 517.379Z" fill="#0F0A26"/>
<path opacity="0.9608" d="M679.327 517.32C679.535 506.692 643.482 497.37 598.803 496.499C554.123 495.627 517.735 503.536 517.528 514.164C517.32 524.792 553.372 534.114 598.052 534.985C642.732 535.857 679.12 527.947 679.327 517.32Z" fill="#0F0A26"/>
<path opacity="0.9804" d="M677.971 517.263C678.171 507.026 643.441 498.046 600.399 497.206C557.358 496.367 522.304 503.986 522.104 514.223C521.905 524.461 556.635 533.441 599.676 534.281C642.718 535.12 677.771 527.501 677.971 517.263Z" fill="#0F0A26"/>
<path d="M676.615 517.205C676.807 507.357 643.399 498.718 601.996 497.911C560.593 497.103 526.873 504.433 526.681 514.281C526.489 524.13 559.897 532.768 601.3 533.576C642.704 534.383 676.423 527.054 676.615 517.205Z" fill="#0F0A26"/>
</g>
<path d="M687.323 346.823L670.897 384.895C668.022 391.558 667.817 399.07 670.323 405.88L673.961 415.766C675.813 420.799 675.433 426.382 672.915 431.118L616.041 538.107C613.391 543.093 615.409 548.497 619.383 551.137C621.767 552.721 660.935 564.345 660.935 564.345C668.55 561.743 676.305 545.237 680.54 538.394L769.529 346.183L687.323 346.823Z" fill="#3851A3"/>
<path d="M918.861 247.621C918.861 208.552 888.999 176.648 851.216 174.001V173.764L630.421 124.777C610.282 161.024 598.825 202.92 598.825 247.574C598.825 292.228 610.281 334.255 630.421 370.503L851.216 321.516V321.242C888.999 318.593 918.861 286.689 918.861 247.621Z" fill="url(#paint0_linear_100_84)"/>
<path d="M875.028 247.61C875.028 267.361 871.426 285.95 865.094 301.983C851.791 335.909 826.405 358.855 797.244 358.855C792.182 358.855 729.575 359.918 724.782 358.596C688.922 348.708 719.46 301.824 719.46 247.61C719.46 194.282 684.41 147.221 719.448 136.423C724.753 134.788 791.599 136.423 797.244 136.423C826.405 136.423 851.849 159.369 865.094 193.294C871.426 209.328 875.028 227.859 875.028 247.61Z" fill="url(#paint1_linear_100_84)"/>
<path d="M792.238 247.61C792.238 267.361 788.636 285.95 782.304 301.983C769.001 335.909 743.615 358.855 714.454 358.855C671.524 358.855 636.67 309.071 636.67 247.61C636.67 186.208 671.525 136.423 714.454 136.423C743.615 136.423 769.059 159.369 782.304 193.294C788.636 209.328 792.238 227.859 792.238 247.61Z" fill="#3851A3"/>
<path d="M724.782 358.596L708.356 396.668C705.481 403.331 705.276 410.843 707.782 417.653L711.42 427.539C713.272 432.572 712.892 438.156 710.374 442.891L653.5 549.88C649.26 557.857 656.972 566.907 665.52 563.986L671.448 561.96C679.063 559.358 685.539 554.196 689.774 547.353L806.988 357.956L724.782 358.596Z" fill="url(#paint2_linear_100_84)"/>
<path d="M689.938 356.24L713.956 358.9C715.557 359.077 716.52 360.764 715.859 362.233L696.794 404.6C696.225 405.865 694.88 406.592 693.51 406.374L669.327 402.542L668.832 396.702L685.677 358.762C686.377 357.067 688.115 356.038 689.938 356.24Z" fill="#223877"/>
<path d="M688.577 359.259L659.968 385.667L670.238 399.605L694.624 402.543L688.577 359.259Z" fill="#DD7B19"/>
<path d="M712.963 362.197L684.354 388.605L694.624 402.543L712.963 362.197Z" fill="url(#paint3_linear_100_84)"/>
<path d="M688.577 359.259L712.963 362.197L684.354 388.605L659.968 385.667L688.577 359.259Z" fill="url(#paint4_linear_100_84)"/>
<path d="M778.542 247.613C778.542 192.649 748.679 147.766 710.896 144.042V143.708L490.101 74.791C469.962 125.785 458.506 184.725 458.506 247.546C458.506 310.367 469.962 369.491 490.101 420.487L710.896 351.57V351.184C748.679 347.46 778.542 302.576 778.542 247.613Z" fill="url(#paint5_linear_100_84)"/>
<path d="M409.294 494.551C504.683 494.551 582.01 383.997 582.01 247.622C582.01 111.247 504.683 0.692993 409.294 0.692993C313.906 0.692993 236.578 111.247 236.578 247.622C236.578 383.997 313.906 494.551 409.294 494.551Z" fill="url(#paint6_linear_100_84)"/>
<path d="M395.836 494.551C491.225 494.551 568.552 383.997 568.552 247.622C568.552 111.247 491.225 0.692993 395.836 0.692993C300.448 0.692993 223.12 111.247 223.12 247.622C223.12 383.997 300.448 494.551 395.836 494.551Z" fill="url(#paint7_linear_100_84)"/>
<path d="M555.059 247.58C555.059 288.021 547.684 326.082 534.72 358.91C507.483 428.373 455.504 475.355 395.796 475.355C307.898 475.355 236.532 373.422 236.532 247.58C236.532 121.858 307.897 19.925 395.796 19.925C455.504 19.925 507.601 66.9071 534.72 136.37C547.684 169.196 555.059 207.139 555.059 247.58Z" fill="url(#paint8_linear_100_84)"/>
<path d="M555.059 247.58C555.059 288.021 547.684 326.082 534.72 358.91L392.584 314.545V180.735L534.72 136.37C547.684 169.196 555.059 207.139 555.059 247.58Z" fill="url(#paint9_linear_100_84)"/>
<path d="M395.836 314.53C421.682 314.53 442.635 284.574 442.635 247.622C442.635 210.67 421.682 180.714 395.836 180.714C369.99 180.714 349.037 210.67 349.037 247.622C349.037 284.574 369.99 314.53 395.836 314.53Z" fill="url(#paint10_linear_100_84)"/>
<path d="M1054.79 84.3021L1737.07 284.853C1759.42 291.425 1772.52 314.561 1766.66 337.114L1607.13 950.368C1600.72 975.014 1561.84 995.395 1537.92 986.65L890.367 738.62C869.784 731.093 858.112 709.332 863.229 688.021L986.436 108.237C992.198 84.2371 1031.11 77.3411 1054.79 84.3021Z" fill="url(#paint11_linear_100_84)"/>
<path d="M1030.2 88.382L1712.47 288.934C1734.83 295.506 1747.93 318.642 1742.06 341.195L1582.53 954.449C1576.12 979.095 1549.87 992.856 1525.95 984.111L865.77 742.701C845.187 735.174 833.515 713.413 838.632 692.102L976.073 119.706C981.835 95.706 1006.52 81.422 1030.2 88.382Z" fill="url(#paint12_linear_100_84)"/>
<path d="M1540.76 970.027C1537.68 970.027 1534.63 969.49 1531.68 968.415L871.505 727.002C858.894 722.395 851.753 709.074 854.882 696.002L992.317 123.594C995.187 111.674 1005.74 103.344 1017.99 103.344C1020.5 103.344 1023.03 103.709 1025.48 104.419L1707.75 304.966C1721.55 309.016 1729.5 323.086 1725.88 336.964L1566.35 950.238C1563.31 961.889 1552.8 970.027 1540.76 970.027Z" fill="url(#paint13_linear_100_84)"/>
<g opacity="0.25">
<path opacity="0.0196" d="M1826.51 671.217C1826.88 632.558 1644.97 599.506 1420.21 597.393C1195.45 595.28 1012.96 624.907 1012.59 663.566C1012.23 702.226 1194.14 735.278 1418.9 737.391C1643.65 739.504 1826.15 709.877 1826.51 671.217Z" fill="#0F0A26"/>
<path opacity="0.0392" d="M1825.13 671.175C1825.49 633.03 1645.88 600.415 1423.96 598.329C1202.05 596.243 1021.86 625.476 1021.5 663.621C1021.14 701.767 1200.75 734.381 1422.66 736.467C1644.58 738.554 1824.77 709.321 1825.13 671.175Z" fill="#0F0A26"/>
<path opacity="0.0588" d="M1823.74 671.133C1824.1 633.501 1646.79 601.325 1427.71 599.266C1208.64 597.206 1030.76 626.044 1030.4 663.676C1030.05 701.308 1207.36 733.484 1426.43 735.544C1645.51 737.603 1823.39 708.766 1823.74 671.133Z" fill="#0F0A26"/>
<path opacity="0.0784" d="M1822.53 671.243C1822.89 634.125 1647.88 602.369 1431.65 600.315C1215.41 598.26 1039.83 626.686 1039.48 663.804C1039.13 700.923 1214.14 732.678 1430.37 734.733C1646.6 736.787 1822.18 708.362 1822.53 671.243Z" fill="#0F0A26"/>
<path opacity="0.098" d="M1821.15 671.199C1821.49 634.593 1648.79 603.276 1435.39 601.248C1222 599.221 1048.73 627.252 1048.38 663.858C1048.04 700.463 1220.74 731.781 1434.14 733.808C1647.53 735.836 1820.8 707.804 1821.15 671.199Z" fill="#0F0A26"/>
<path opacity="0.1176" d="M1819.76 671.153C1820.1 635.061 1649.69 604.181 1439.14 602.181C1228.59 600.181 1057.63 627.817 1057.28 663.909C1056.94 700.001 1227.35 730.881 1437.9 732.881C1648.45 734.881 1819.42 707.244 1819.76 671.153Z" fill="#0F0A26"/>
<path opacity="0.1373" d="M1818.37 671.107C1818.71 635.529 1650.6 605.087 1442.89 603.114C1235.18 601.141 1066.52 628.383 1066.18 663.961C1065.85 699.539 1233.95 729.981 1441.66 731.954C1649.37 733.927 1818.03 706.685 1818.37 671.107Z" fill="#0F0A26"/>
<path opacity="0.1569" d="M1817.15 671.211C1817.49 636.147 1651.69 606.127 1446.82 604.16C1241.95 602.193 1075.6 629.025 1075.26 664.089C1074.92 699.154 1240.73 729.173 1445.6 731.14C1650.47 733.107 1816.82 706.276 1817.15 671.211Z" fill="#0F0A26"/>
<path opacity="0.1765" d="M1815.76 671.163C1816.09 636.612 1652.59 607.031 1450.56 605.091C1248.53 603.152 1084.49 629.589 1084.16 664.14C1083.82 698.691 1247.33 728.272 1449.36 730.211C1651.39 732.151 1815.43 705.714 1815.76 671.163Z" fill="#0F0A26"/>
<path opacity="0.1961" d="M1814.37 671.113C1814.69 637.076 1653.49 607.933 1454.3 606.021C1255.11 604.108 1093.38 630.151 1093.05 664.188C1092.72 698.226 1253.93 727.368 1453.12 729.281C1652.3 731.193 1814.04 705.15 1814.37 671.113Z" fill="#0F0A26"/>
<path opacity="0.2157" d="M1812.97 671.063C1813.29 637.539 1654.38 608.834 1458.04 606.949C1261.69 605.065 1102.26 630.713 1101.94 664.237C1101.62 697.762 1260.53 726.466 1456.87 728.351C1653.22 730.236 1812.65 704.588 1812.97 671.063Z" fill="#0F0A26"/>
<path opacity="0.2353" d="M1811.75 671.161C1812.07 638.15 1655.47 609.868 1461.96 607.991C1268.46 606.114 1111.34 631.353 1111.01 664.364C1110.69 697.374 1267.3 725.656 1460.8 727.533C1654.31 729.41 1811.43 704.172 1811.75 671.161Z" fill="#0F0A26"/>
<path opacity="0.2549" d="M1810.35 671.108C1810.67 638.611 1656.36 610.768 1465.7 608.919C1275.04 607.069 1120.22 631.914 1119.9 664.411C1119.59 696.908 1273.9 724.751 1464.56 726.601C1655.22 728.45 1810.04 703.605 1810.35 671.108Z" fill="#0F0A26"/>
<path opacity="0.2745" d="M1808.95 671.055C1809.26 639.072 1657.26 611.667 1469.43 609.845C1281.61 608.024 1129.1 632.474 1128.79 664.458C1128.48 696.441 1280.49 723.846 1468.31 725.667C1656.13 727.489 1808.64 703.039 1808.95 671.055Z" fill="#0F0A26"/>
<path opacity="0.2941" d="M1807.73 671.148C1808.04 639.678 1658.33 612.697 1473.36 610.885C1288.38 609.072 1138.17 633.113 1137.86 664.583C1137.55 696.053 1287.26 723.034 1472.24 724.847C1657.22 726.659 1807.42 702.618 1807.73 671.148Z" fill="#0F0A26"/>
<path opacity="0.3137" d="M1806.33 671.092C1806.63 640.135 1659.22 613.594 1477.08 611.809C1294.95 610.024 1147.05 633.672 1146.74 664.628C1146.44 695.584 1293.85 722.126 1475.99 723.911C1658.12 725.696 1806.02 702.048 1806.33 671.092Z" fill="#0F0A26"/>
<path opacity="0.3333" d="M1804.92 671.033C1805.22 640.59 1660.11 614.486 1480.81 612.729C1301.52 610.972 1155.93 634.227 1155.63 664.67C1155.33 695.113 1300.44 721.216 1479.73 722.973C1659.03 724.73 1804.62 701.476 1804.92 671.033Z" fill="#0F0A26"/>
<path opacity="0.3529" d="M1803.69 671.12C1803.99 641.191 1661.18 615.512 1484.73 613.765C1308.27 612.018 1164.99 634.865 1164.69 664.794C1164.39 694.724 1307.2 720.402 1483.65 722.149C1660.11 723.896 1803.4 701.05 1803.69 671.12Z" fill="#0F0A26"/>
<path opacity="0.3725" d="M1802.28 671.058C1802.57 641.643 1662.07 616.403 1488.45 614.684C1314.84 612.965 1173.86 635.418 1173.57 664.834C1173.28 694.25 1313.78 719.49 1487.4 721.208C1661.01 722.927 1801.99 700.474 1802.28 671.058Z" fill="#0F0A26"/>
<path opacity="0.3922" d="M1801.05 671.142C1801.34 642.24 1663.14 617.426 1492.36 615.718C1321.59 614.01 1182.91 636.056 1182.63 664.958C1182.34 693.86 1320.54 718.674 1491.32 720.382C1662.09 722.09 1800.76 700.044 1801.05 671.142Z" fill="#0F0A26"/>
<path opacity="0.4118" d="M1799.63 671.077C1799.92 642.688 1664.01 618.313 1496.08 616.634C1328.15 614.955 1191.78 636.607 1191.5 664.995C1191.21 693.384 1327.12 717.759 1495.05 719.438C1662.98 721.117 1799.35 699.465 1799.63 671.077Z" fill="#0F0A26"/>
<path opacity="0.4314" d="M1798.07 671.196C1798.35 643.324 1664.76 619.39 1499.68 617.739C1334.61 616.089 1200.56 637.345 1200.28 665.217C1200.01 693.089 1333.6 717.022 1498.67 718.673C1663.75 720.324 1797.79 699.068 1798.07 671.196Z" fill="#0F0A26"/>
<path opacity="0.451" d="M1796.84 671.273C1797.11 643.914 1665.82 620.406 1503.59 618.768C1341.35 617.129 1209.61 637.979 1209.34 665.338C1209.06 692.698 1340.35 716.205 1502.59 717.844C1664.82 719.482 1796.56 698.632 1796.84 671.273Z" fill="#0F0A26"/>
<path opacity="0.4706" d="M1795.41 671.202C1795.68 644.357 1666.69 621.289 1507.3 619.679C1347.9 618.069 1218.47 638.526 1218.2 665.372C1217.93 692.217 1346.92 715.285 1506.31 716.895C1665.71 718.505 1795.14 698.048 1795.41 671.202Z" fill="#0F0A26"/>
<path opacity="0.4902" d="M1794.17 671.274C1794.44 644.942 1667.75 622.301 1511.19 620.704C1354.64 619.107 1227.51 639.159 1227.25 665.491C1226.98 691.823 1353.67 714.464 1510.22 716.061C1666.77 717.658 1793.9 697.606 1794.17 671.274Z" fill="#0F0A26"/>
<path opacity="0.5098" d="M1792.74 671.199C1793 645.381 1668.61 623.18 1514.9 621.612C1361.19 620.044 1236.37 639.702 1236.1 665.521C1235.84 691.339 1360.23 713.54 1513.94 715.108C1667.65 716.676 1792.47 697.017 1792.74 671.199Z" fill="#0F0A26"/>
<path opacity="0.5294" d="M1791.49 671.266C1791.75 645.961 1669.66 624.187 1518.79 622.633C1367.92 621.079 1245.4 640.333 1245.14 665.638C1244.88 690.942 1366.98 712.716 1517.85 714.27C1668.71 715.824 1791.23 696.57 1791.49 671.266Z" fill="#0F0A26"/>
<path opacity="0.549" d="M1790.05 671.186C1790.31 646.395 1670.51 625.062 1522.49 623.537C1374.46 622.012 1254.25 640.873 1253.99 665.664C1253.74 690.455 1373.53 711.789 1521.56 713.314C1669.59 714.839 1789.8 695.977 1790.05 671.186Z" fill="#0F0A26"/>
<path opacity="0.5686" d="M1788.8 671.246C1789.05 646.968 1671.56 626.062 1526.37 624.552C1381.18 623.042 1263.28 641.499 1263.03 665.778C1262.78 690.056 1380.27 710.961 1525.46 712.472C1670.64 713.982 1788.55 695.524 1788.8 671.246Z" fill="#0F0A26"/>
<path opacity="0.5882" d="M1787.35 671.161C1787.6 647.397 1672.41 626.931 1530.06 625.451C1387.71 623.97 1272.12 642.035 1271.87 665.8C1271.62 689.564 1386.82 710.03 1529.16 711.51C1671.51 712.991 1787.11 694.926 1787.35 671.161Z" fill="#0F0A26"/>
<path opacity="0.6078" d="M1786.09 671.216C1786.34 647.964 1673.44 627.928 1533.94 626.463C1394.43 624.998 1281.14 642.659 1280.9 665.91C1280.65 689.162 1393.55 709.198 1533.05 710.663C1672.56 712.128 1785.85 694.467 1786.09 671.216Z" fill="#0F0A26"/>
<path opacity="0.6275" d="M1784.64 671.126C1784.88 648.388 1674.28 628.792 1537.62 627.357C1400.95 625.922 1289.97 643.191 1289.73 665.929C1289.49 688.666 1400.09 708.262 1536.75 709.697C1673.42 711.132 1784.4 693.863 1784.64 671.126Z" fill="#0F0A26"/>
<path opacity="0.6471" d="M1783.37 671.171C1783.6 648.947 1675.31 629.781 1541.48 628.363C1407.66 626.944 1298.98 643.81 1298.75 666.034C1298.51 688.258 1406.81 707.424 1540.63 708.843C1674.45 710.261 1783.13 693.395 1783.37 671.171Z" fill="#0F0A26"/>
<path opacity="0.6667" d="M1782.09 671.213C1782.32 649.503 1676.33 630.767 1545.35 629.365C1414.36 627.964 1307.99 644.427 1307.76 666.138C1307.53 687.848 1413.52 706.584 1544.5 707.986C1675.49 709.387 1781.86 692.924 1782.09 671.213Z" fill="#0F0A26"/>
<path opacity="0.6863" d="M1780.62 671.113C1780.85 649.916 1677.15 631.621 1549.01 630.249C1420.87 628.878 1316.81 644.95 1316.58 666.147C1316.35 687.344 1420.05 705.638 1548.19 707.01C1676.33 708.381 1780.39 692.309 1780.62 671.113Z" fill="#0F0A26"/>
<path opacity="0.7059" d="M1779.33 671.146C1779.56 650.463 1678.16 632.598 1552.86 631.245C1427.56 629.891 1325.8 645.562 1325.58 666.245C1325.36 686.929 1426.75 704.794 1552.05 706.147C1677.35 707.5 1779.11 691.83 1779.33 671.146Z" fill="#0F0A26"/>
<path opacity="0.7255" d="M1778.04 671.174C1778.26 651.004 1679.17 633.571 1556.71 632.236C1434.25 630.901 1334.8 646.17 1334.58 666.34C1334.36 686.51 1433.45 703.944 1555.91 705.278C1678.37 706.613 1777.82 691.344 1778.04 671.174Z" fill="#0F0A26"/>
<path opacity="0.7451" d="M1776.55 671.062C1776.77 651.405 1679.97 634.413 1560.35 633.11C1440.73 631.806 1343.59 646.683 1343.37 666.34C1343.16 685.997 1439.96 702.988 1559.57 704.292C1679.19 705.596 1776.34 690.719 1776.55 671.062Z" fill="#0F0A26"/>
<path opacity="0.7647" d="M1775.25 671.081C1775.46 651.938 1680.96 635.378 1564.18 634.093C1447.4 632.809 1352.57 647.286 1352.36 666.429C1352.15 685.572 1446.64 702.132 1563.42 703.416C1680.2 704.701 1775.03 690.224 1775.25 671.081Z" fill="#0F0A26"/>
<path opacity="0.7843" d="M1773.93 671.094C1774.14 652.464 1681.94 636.337 1568.01 635.072C1454.07 633.807 1361.54 647.884 1361.33 666.514C1361.12 685.143 1453.32 701.27 1567.26 702.535C1681.19 703.8 1773.73 689.723 1773.93 671.094Z" fill="#0F0A26"/>
<path opacity="0.8039" d="M1772.61 671.101C1772.81 652.985 1682.92 637.29 1571.82 636.046C1460.73 634.802 1370.5 648.479 1370.3 666.595C1370.09 684.71 1459.99 700.405 1571.09 701.649C1682.18 702.894 1772.41 689.217 1772.61 671.101Z" fill="#0F0A26"/>
<path opacity="0.8235" d="M1771.28 671.101C1771.48 653.498 1683.88 638.236 1575.63 637.013C1467.37 635.79 1379.45 649.068 1379.26 666.671C1379.06 684.274 1466.65 699.535 1574.91 700.759C1683.16 701.982 1771.08 688.704 1771.28 671.101Z" fill="#0F0A26"/>
<path opacity="0.8431" d="M1769.94 671.095C1770.14 654.006 1684.84 639.178 1579.43 637.976C1474.01 636.774 1388.4 649.653 1388.2 666.743C1388.01 683.832 1473.31 698.66 1578.72 699.862C1684.13 701.063 1769.75 688.184 1769.94 671.095Z" fill="#0F0A26"/>
<path opacity="0.8627" d="M1768.59 671.08C1768.78 654.505 1685.78 640.111 1583.21 638.931C1480.64 637.752 1397.33 650.232 1397.14 666.808C1396.95 683.384 1479.95 697.778 1582.52 698.957C1685.09 700.137 1768.4 687.656 1768.59 671.08Z" fill="#0F0A26"/>
<path opacity="0.8824" d="M1767.23 671.059C1767.41 654.997 1686.72 641.038 1586.99 639.881C1487.25 638.724 1406.25 650.807 1406.07 666.869C1405.88 682.931 1486.58 696.89 1586.31 698.047C1686.04 699.204 1767.04 687.121 1767.23 671.059Z" fill="#0F0A26"/>
<path opacity="0.902" d="M1765.86 671.028C1766.04 655.479 1687.64 641.955 1590.75 640.822C1493.86 639.688 1415.16 651.373 1414.98 666.922C1414.8 682.471 1493.2 695.994 1590.09 697.128C1686.98 698.262 1765.67 686.576 1765.86 671.028Z" fill="#0F0A26"/>
<path opacity="0.9216" d="M1764.47 670.989C1764.65 655.954 1688.55 642.866 1594.5 641.756C1500.45 640.646 1424.06 651.934 1423.88 666.969C1423.71 682.004 1499.8 695.092 1593.85 696.202C1687.9 697.312 1764.29 686.024 1764.47 670.989Z" fill="#0F0A26"/>
<path opacity="0.9412" d="M1763.26 671.07C1763.43 656.549 1689.64 643.889 1598.43 642.795C1507.22 641.7 1433.14 652.585 1432.96 667.106C1432.79 681.628 1506.59 694.287 1597.8 695.381C1689.01 696.476 1763.09 685.592 1763.26 671.07Z" fill="#0F0A26"/>
<path opacity="0.9608" d="M1761.84 671.01C1762.01 657.002 1690.51 644.779 1602.15 643.709C1513.78 642.64 1442 653.129 1441.84 667.137C1441.67 681.146 1513.16 693.369 1601.53 694.438C1689.9 695.508 1761.67 685.018 1761.84 671.01Z" fill="#0F0A26"/>
<path opacity="0.9804" d="M1760.6 671.068C1760.77 657.573 1691.57 645.781 1606.04 644.729C1520.52 643.677 1451.05 653.763 1450.88 667.258C1450.72 680.753 1519.91 692.546 1605.44 693.598C1690.97 694.65 1760.44 684.563 1760.6 671.068Z" fill="#0F0A26"/>
<path d="M1759.15 670.981C1759.31 658 1692.41 646.645 1609.72 645.62C1527.04 644.594 1459.88 654.287 1459.71 667.268C1459.55 680.249 1526.45 691.604 1609.14 692.629C1691.82 693.655 1758.99 683.962 1759.15 670.981Z" fill="#0F0A26"/>
</g>
<path d="M1515.96 1063.11L1097.54 1356.41C1079.31 1369.19 1055.56 1371.05 1035.55 1361.26L399.89 1050.16C381.222 1041.02 375.934 989.782 394.21 979.885L805.676 784.478C825.402 773.797 848.763 772.09 869.832 779.791L1517.65 992.994C1539.03 1000.81 1534.6 1050.04 1515.96 1063.11Z" fill="url(#paint14_linear_100_84)"/>
<path d="M1515.66 1062.36L1097.24 1355.66C1079 1368.45 1055.25 1370.31 1035.25 1360.52L399.582 1049.41C380.914 1040.28 375.626 989.037 393.902 979.14L805.367 783.733C825.093 773.051 848.454 771.345 869.523 779.046L1517.34 992.249C1538.72 1000.06 1534.3 1049.29 1515.66 1062.36Z" fill="url(#paint15_linear_100_84)"/>
<path d="M1515.66 1034.2L1097.24 1327.5C1079 1340.29 1055.25 1342.15 1035.25 1332.36L399.582 1021.25C380.914 1012.12 380.37 985.707 398.647 975.81L805.368 755.574C825.094 744.892 848.455 743.186 869.524 750.887L1509.16 984.687C1530.54 992.501 1534.3 1021.14 1515.66 1034.2Z" fill="url(#paint16_linear_100_84)"/>
<path d="M1515.66 1031.54L1097.24 1324.85C1079 1337.63 1055.25 1339.49 1035.25 1329.7L399.58 1018.6C390.637 1014.22 385.973 1005.87 385.426 997.275C385.058 1006.77 389.708 1016.42 399.58 1021.25L1035.25 1332.36C1055.25 1342.15 1079 1340.29 1097.24 1327.5L1515.66 1034.2C1523.48 1028.72 1527.14 1020.49 1527.42 1012.21C1526.48 1019.57 1522.64 1026.65 1515.66 1031.54Z" fill="white"/>
<path d="M914.188 799.568C897.904 793.125 889.69 789.849 873.05 783.153C855.916 791.492 848.023 795.345 832.985 802.712C849.725 809.574 857.993 812.928 874.388 819.525C889.418 811.948 897.27 808.009 914.188 799.568Z" fill="url(#paint17_linear_100_84)"/>
<path d="M890.884 826.137C907.16 832.639 915.223 835.83 931.259 842.13C946.264 834.281 954.051 830.232 970.654 821.669C954.736 815.503 946.731 812.383 930.569 806.029C913.74 814.508 905.907 818.479 890.884 826.137Z" fill="url(#paint18_linear_100_84)"/>
<path d="M947.412 848.456C963.372 854.687 971.302 857.758 987.127 863.85C1002.1 855.754 1009.83 851.608 1026.11 842.95C1010.4 836.974 1002.53 833.963 986.688 827.862C970.177 836.455 962.409 840.533 947.412 848.456Z" fill="url(#paint19_linear_100_84)"/>
<path d="M1081.11 863.726C1065.45 857.849 1057.63 854.905 1041.96 848.966C1025.76 857.647 1018.06 861.818 1003.09 869.981C1018.88 876.03 1026.75 879.026 1042.51 885C1057.47 876.683 1065.13 872.454 1081.11 863.726Z" fill="url(#paint20_linear_100_84)"/>
<path d="M1136.19 884.309C1120.43 878.442 1112.59 875.519 1096.92 869.654C1081.03 878.396 1073.39 882.648 1058.43 891.023C1074.2 896.98 1082.09 899.945 1097.93 905.889C1112.89 897.379 1120.5 893.079 1136.19 884.309Z" fill="url(#paint21_linear_100_84)"/>
<path d="M1191.92 905.012C1175.9 899.066 1167.96 896.119 1152.14 890.239C1136.52 899.016 1128.92 903.334 1113.95 911.895C1129.85 917.847 1137.82 920.828 1153.9 926.831C1168.9 918.154 1176.48 913.797 1191.92 905.012Z" fill="url(#paint22_linear_100_84)"/>
<path d="M1170.18 932.911C1186.35 938.949 1194.48 941.987 1210.94 948.139C1226.03 939.322 1233.6 934.922 1248.83 926.149C1232.4 920.036 1224.27 917.021 1208.15 911.036C1192.77 919.82 1185.2 924.19 1170.18 932.911Z" fill="url(#paint23_linear_100_84)"/>
<path d="M1227.62 954.38C1244.21 960.592 1252.58 963.732 1269.56 970.122C1284.8 961.194 1292.39 956.764 1307.49 948.031C1290.48 941.66 1282.09 938.532 1265.51 932.354C1250.32 941.118 1242.74 945.528 1227.62 954.38Z" fill="url(#paint24_linear_100_84)"/>
<path d="M1368.42 970.973C1350.68 964.256 1341.96 960.97 1324.76 954.509C1309.69 963.226 1302.09 967.661 1286.79 976.616C1303.95 983.09 1312.63 986.378 1330.28 993.095C1345.74 984.083 1353.4 979.639 1368.42 970.973Z" fill="url(#paint25_linear_100_84)"/>
<path d="M1386.46 977.815C1371.44 986.456 1363.76 990.902 1348.22 999.931C1366.09 1006.76 1375.16 1010.24 1393.63 1017.37C1409.4 1008.3 1417.15 1003.86 1432.2 995.29C1413.57 988.136 1404.44 984.648 1386.46 977.815Z" fill="url(#paint26_linear_100_84)"/>
<path d="M876.53 833.472C853.687 824.227 842.147 819.502 818.66 809.741C804.245 816.825 797.462 820.173 784.146 826.775C807.468 836.925 818.933 841.838 841.629 851.448C845.831 853.227 847.927 854.113 852.112 855.876C864.026 860.896 869.945 863.373 881.735 868.275C895.421 860.987 902.362 857.308 916.891 849.666C905.027 844.946 899.068 842.562 887.078 837.732C882.868 836.035 880.759 835.183 876.53 833.472Z" fill="url(#paint27_linear_100_84)"/>
<path d="M897.785 874.925C913.64 881.473 921.519 884.699 937.235 891.091C951.13 883.436 958.158 879.582 972.744 871.65C956.925 865.486 948.997 862.378 933.041 856.071C918.496 863.799 911.531 867.529 897.785 874.925Z" fill="url(#paint28_linear_100_84)"/>
<path d="M1028.1 893.036C1012.35 886.999 1004.49 883.969 988.701 877.851C974.097 885.862 967.043 889.765 953.087 897.52C968.767 903.86 976.581 906.998 992.218 913.245C1006.33 905.25 1013.45 901.233 1028.1 893.036Z" fill="url(#paint29_linear_100_84)"/>
<path d="M1083.48 914.136C1067.65 908.135 1059.77 905.14 1044.01 899.122C1029.33 907.39 1022.19 911.451 1008.01 919.538C1023.64 925.76 1031.46 928.854 1047.15 935.044C1061.51 926.737 1068.73 922.571 1083.48 914.136Z" fill="url(#paint30_linear_100_84)"/>
<path d="M1139.36 935.262C1123.32 929.209 1115.35 926.204 1099.48 920.197C1084.7 928.696 1077.45 932.902 1063.02 941.294C1078.75 947.485 1086.64 950.579 1102.52 956.802C1117.15 948.209 1124.49 943.908 1139.36 935.262Z" fill="url(#paint31_linear_100_84)"/>
<path d="M1118.59 963.099C1134.55 969.348 1142.58 972.486 1158.79 978.831C1173.74 969.979 1181.23 965.556 1196.27 956.727C1179.86 950.534 1171.74 947.473 1155.61 941.39C1140.7 950.091 1133.31 954.428 1118.59 963.099Z" fill="url(#paint32_linear_100_84)"/>
<path d="M1175.21 985.262C1191.53 991.657 1199.76 994.885 1216.43 1001.44C1231.77 992.356 1239.43 987.825 1254.71 978.841C1237.79 972.418 1229.45 969.259 1212.91 963.009C1197.8 971.885 1190.27 976.341 1175.21 985.262Z" fill="url(#paint33_linear_100_84)"/>
<path d="M1315.17 1001.92C1297.61 995.175 1288.96 991.873 1271.87 985.368C1256.52 994.392 1248.79 998.951 1233.33 1008.09C1250.15 1014.72 1258.66 1018.09 1275.91 1024.94C1291.71 1015.65 1299.59 1011.03 1315.17 1001.92Z" fill="url(#paint34_linear_100_84)"/>
<path d="M1293.44 1031.91C1310.89 1038.86 1319.74 1042.4 1337.72 1049.64C1354.06 1040.18 1362.2 1035.47 1378.18 1026.26C1359.82 1019.12 1350.8 1015.63 1333.02 1008.78C1317.33 1017.92 1309.38 1022.57 1293.44 1031.91Z" fill="url(#paint35_linear_100_84)"/>
<path d="M738.885 849.363C755.23 857.026 763.311 860.773 779.339 868.135C792.505 861.314 798.977 857.97 812.24 851.156C796.024 844.095 787.85 840.502 771.307 833.153C758.227 839.662 751.861 842.845 738.885 849.363Z" fill="url(#paint36_linear_100_84)"/>
<path d="M795.469 875.514C811.387 882.767 819.276 886.325 834.965 893.34C848.384 886.113 855.003 882.555 868.509 875.334C852.64 868.602 844.66 865.189 828.558 858.232C815.224 865.166 808.709 868.573 795.469 875.514Z" fill="url(#paint37_linear_100_84)"/>
<path d="M850.769 900.381C866.382 907.313 874.139 910.725 889.61 917.481C903.28 909.874 910.041 906.115 923.787 898.513C908.134 892.021 900.287 888.745 884.494 882.091C870.919 889.425 864.261 893.042 850.769 900.381Z" fill="url(#paint38_linear_100_84)"/>
<path d="M978.541 921.005C962.972 914.666 955.19 911.48 939.575 905.042C925.759 912.748 918.956 916.563 905.213 924.275C920.644 930.973 928.332 934.285 943.706 940.869C957.637 932.908 964.546 928.961 978.541 921.005Z" fill="url(#paint39_linear_100_84)"/>
<path d="M1033.23 943.118C1017.61 936.842 1009.83 933.704 994.26 927.392C980.189 935.445 973.236 939.444 959.228 947.502C974.598 954.054 982.276 957.309 997.677 963.811C1011.89 955.524 1018.96 951.401 1033.23 943.118Z" fill="url(#paint40_linear_100_84)"/>
<path d="M1088.31 965.162C1072.51 958.862 1064.67 955.727 1049.01 949.453C1034.66 957.826 1027.54 961.996 1013.24 970.373C1028.67 976.868 1036.41 980.109 1051.95 986.618C1066.49 978.031 1073.73 973.747 1088.31 965.162Z" fill="url(#paint41_linear_100_84)"/>
<path d="M1067.69 993.198C1083.3 999.724 1091.15 1003 1106.97 1009.6C1121.87 1000.74 1129.31 996.307 1144.24 987.451C1128.14 981.037 1120.16 977.862 1104.29 971.537C1089.62 980.202 1082.32 984.53 1067.69 993.198Z" fill="url(#paint42_linear_100_84)"/>
<path d="M1122.99 1016.28C1138.91 1022.93 1146.93 1026.28 1163.14 1033.06C1178.47 1023.96 1186.15 1019.39 1201.49 1010.29C1184.95 1003.67 1176.77 1000.41 1160.56 993.951C1145.52 1002.88 1138 1007.35 1122.99 1016.28Z" fill="url(#paint43_linear_100_84)"/>
<path d="M1246.86 1028.49C1235.33 1023.85 1229.61 1021.55 1218.27 1017.01C1202.79 1026.17 1195.04 1030.77 1179.58 1039.94C1190.69 1044.6 1196.28 1046.95 1207.56 1051.69C1212.88 1053.93 1215.55 1055.05 1220.91 1057.31C1244.39 1067.22 1256.32 1072.27 1280.69 1082.67C1297.11 1073.16 1305.37 1068.37 1321.78 1058.87C1296.76 1048.64 1284.54 1043.69 1260.52 1033.99C1255.03 1031.78 1252.3 1030.68 1246.86 1028.49Z" fill="url(#paint44_linear_100_84)"/>
<path d="M692.403 872.835C708.536 880.893 716.516 884.834 732.346 892.573C746.447 885.222 753.163 881.722 766.466 874.813C750.506 867.336 742.461 863.531 726.189 855.749C713.06 862.365 706.423 865.723 692.403 872.835Z" fill="url(#paint45_linear_100_84)"/>
<path d="M748.279 900.33C764.003 907.953 771.797 911.692 787.298 919.059C801.501 911.394 808.321 907.707 821.854 900.408C806.232 893.286 798.376 889.673 782.526 882.308C769.156 889.331 762.41 892.886 748.279 900.33Z" fill="url(#paint46_linear_100_84)"/>
<path d="M802.912 926.451C818.338 933.727 826.002 937.307 841.281 944.39C855.583 936.437 862.505 932.575 876.266 924.911C860.863 918.055 853.138 914.592 837.591 907.555C823.992 914.962 817.143 918.701 802.912 926.451Z" fill="url(#paint47_linear_100_84)"/>
<path d="M930.116 948.636C914.813 941.958 907.16 938.599 891.798 931.804C877.971 939.568 871.019 943.478 856.688 951.509C871.922 958.526 879.512 961.992 894.68 968.877C909.089 960.662 916.118 956.639 930.116 948.636Z" fill="url(#paint48_linear_100_84)"/>
<path d="M983.823 971.89C968.502 965.302 960.861 962.004 945.566 955.361C931.496 963.456 924.433 967.523 909.989 975.808C925.144 982.653 932.712 986.049 947.876 992.825C962.416 984.375 969.565 980.204 983.823 971.89Z" fill="url(#paint49_linear_100_84)"/>
<path d="M1037.8 994.982C1022.34 988.396 1014.66 985.115 999.307 978.537C984.969 986.936 977.783 991.147 963.199 999.659C978.384 1006.42 985.987 1009.79 1001.26 1016.54C1015.96 1007.89 1023.25 1003.58 1037.8 994.982Z" fill="url(#paint50_linear_100_84)"/>
<path d="M1016.7 1023.37C1032.03 1030.13 1039.72 1033.52 1055.21 1040.34C1070.13 1031.5 1077.57 1027.08 1092.47 1018.22C1076.76 1011.55 1068.96 1008.24 1053.44 1001.64C1038.8 1010.31 1031.47 1014.66 1016.7 1023.37Z" fill="url(#paint51_linear_100_84)"/>
<path d="M1070.89 1047.24C1086.46 1054.1 1094.29 1057.55 1110.11 1064.52C1125.3 1055.53 1132.94 1051 1148.24 1041.91C1132.15 1035.07 1124.19 1031.69 1108.38 1024.98C1093.38 1033.9 1085.88 1038.36 1070.89 1047.24Z" fill="url(#paint52_linear_100_84)"/>
<path d="M1126.13 1071.59C1142.06 1078.63 1150.09 1082.18 1166.34 1089.4C1181.88 1080.28 1189.75 1075.66 1205.53 1066.37C1188.95 1059.26 1180.76 1055.77 1164.55 1048.86C1149.12 1058 1141.42 1062.57 1126.13 1071.59Z" fill="url(#paint53_linear_100_84)"/>
<path d="M1182.82 1096.73C1199.22 1104.03 1207.5 1107.73 1224.29 1115.27C1240.27 1106.06 1248.41 1101.36 1264.75 1091.9C1247.56 1084.45 1239.09 1080.79 1222.35 1073.59C1206.42 1082.93 1198.48 1087.58 1182.82 1096.73Z" fill="url(#paint54_linear_100_84)"/>
<path d="M639.892 899.556C656.06 907.866 664.061 911.928 679.941 919.902C696.222 911.416 703.805 907.459 718.391 899.85C702.58 892.026 694.61 888.042 678.501 879.894C663.941 887.295 656.339 891.169 639.892 899.556Z" fill="url(#paint55_linear_100_84)"/>
<path d="M695.925 927.891C711.702 935.742 719.525 939.589 735.084 947.165C751.121 938.563 758.67 934.497 773.281 926.62C757.798 919.175 750.011 915.397 734.305 907.691C719.71 915.379 712.137 919.37 695.925 927.891Z" fill="url(#paint56_linear_100_84)"/>
<path d="M750.757 954.766C766.241 962.243 773.935 965.92 789.269 973.185C805.058 964.492 812.571 960.331 827.203 952.211C811.942 945.058 804.285 941.442 788.877 934.09C774.26 942.04 766.723 946.134 750.757 954.766Z" fill="url(#paint57_linear_100_84)"/>
<path d="M1002.3 1031.86C996.128 1029.11 993.048 1027.73 986.896 1024.99C971.666 1018.18 964.082 1014.79 948.931 1007.98C942.811 1005.22 939.754 1003.85 933.641 1001.09C918.506 994.256 910.951 990.831 895.82 983.926C874.577 974.231 863.956 969.346 842.593 959.4C827.954 967.586 820.451 971.771 804.732 980.485C826.194 990.582 836.862 995.535 858.184 1005.35C873.372 1012.35 880.952 1015.81 896.128 1022.72C902.258 1025.51 905.322 1026.9 911.456 1029.68C926.64 1036.57 934.236 1039.99 949.477 1046.85C955.633 1049.62 958.715 1051 964.886 1053.78C968.171 1055.25 969.815 1055.99 973.105 1057.46C985.116 1062.85 991.136 1065.55 1003.23 1070.96C1018.25 1062.17 1025.73 1057.77 1040.67 1048.94C1028.56 1043.55 1022.53 1040.87 1010.52 1035.52C1007.23 1034.06 1005.58 1033.32 1002.3 1031.86Z" fill="url(#paint58_linear_100_84)"/>
<path d="M1018.81 1077.94C1034.28 1084.86 1042.05 1088.34 1057.71 1095.36C1072.67 1086.61 1080.2 1082.18 1095.34 1073.25C1079.6 1066.24 1071.8 1062.77 1056.29 1055.88C1041.3 1064.74 1033.81 1069.16 1018.81 1077.94Z" fill="url(#paint59_linear_100_84)"/>
<path d="M1073.58 1102.48C1089.33 1109.55 1097.27 1113.12 1113.28 1120.35C1128.24 1111.68 1135.86 1107.24 1151.27 1098.22C1135.12 1090.98 1127.13 1087.42 1111.29 1080.35C1096.08 1089.31 1088.52 1093.75 1073.58 1102.48Z" fill="url(#paint60_linear_100_84)"/>
<path d="M1129.52 1127.7C1145.66 1135.01 1153.8 1138.71 1170.27 1146.25C1185.32 1137.68 1193.07 1133.24 1208.84 1124.17C1192.17 1116.61 1183.94 1112.9 1167.65 1105.57C1152.15 1114.61 1144.49 1119.05 1129.52 1127.7Z" fill="url(#paint61_linear_100_84)"/>
<path d="M1267.06 502.889C1267.06 502.889 1289.4 636.293 1305.38 733.917C1295.87 736.328 1286.85 737.536 1277.27 738.198C1154.82 746.656 1050.7 648.111 1045.07 518.224C1039.44 388.341 1134.45 276.625 1256.89 268.167C1308.53 264.6 1356.19 280.002 1395.32 308.259L1267.06 502.889Z" fill="url(#paint62_linear_100_84)"/>
<path d="M1461.72 611.095C1430.85 673.905 1373.67 720.449 1305.46 733.911C1305.16 732.036 1268.33 735.817 1268.02 733.917C1252.14 637.004 1267.2 503.174 1267.2 503.174L1461.72 611.095Z" fill="url(#paint63_linear_100_84)"/>
<path d="M1535.82 484.323C1537.74 528.589 1528.36 570.716 1509.13 607.678H1471.77L1314.36 499.621L1405.26 304.991H1442.62C1496.12 344.524 1532.57 409.19 1535.82 484.323Z" fill="url(#paint64_linear_100_84)"/>
<path d="M1229.71 502.889C1229.71 502.889 1252.04 636.293 1268.02 733.917C1258.52 736.328 1249.49 737.536 1239.91 738.198C1117.47 746.656 1013.35 648.111 1007.71 518.224C1002.08 388.341 1097.09 276.625 1219.53 268.167C1271.17 264.6 1318.83 280.002 1357.96 308.259L1229.71 502.889Z" fill="url(#paint65_linear_100_84)"/>
<path d="M1424.36 611.095C1393.49 673.905 1336.31 720.449 1268.11 733.911C1252.14 636.41 1229.84 503.174 1229.84 503.174L1424.36 611.095Z" fill="url(#paint66_linear_100_84)"/>
<path d="M1498.47 484.323C1500.38 528.589 1491 570.716 1471.77 607.678L1277 499.621L1405.26 304.991C1458.77 344.524 1495.21 409.19 1498.47 484.323Z" fill="url(#paint67_linear_100_84)"/>
<path d="M1267.2 503.174H1229.84L1424.36 611.095H1461.72L1267.2 503.174Z" fill="url(#paint68_linear_100_84)"/>
<path d="M1395.32 308.258H1357.96L1229.84 503.174H1267.2L1395.32 308.258Z" fill="#222457"/>
<path d="M1715.34 509.191L1618.14 592.466C1596.06 603.777 1596.93 649.58 1620.07 694.771C1643.22 739.962 1679.89 767.427 1701.97 756.117L1826.34 725.889L1715.34 509.191Z" fill="url(#paint69_linear_100_84)"/>
<path d="M2171.39 549.152L1826.39 725.877L1826.3 725.702C1787.79 743.219 1733.24 710.875 1703.22 652.27C1673.11 593.491 1678.83 530.495 1715.45 509.303L1715.36 509.129L2060.36 332.404C2207.85 285.342 2305.2 343.905 2305.2 343.905C2305.2 343.905 2295.76 456.957 2171.39 549.152Z" fill="url(#paint70_linear_100_84)"/>
<path d="M1961 657.389L1944.53 733.248C1936.9 768.358 1908.91 801.672 1870.49 821.35L1711.43 871.178C1699.43 874.936 1693.53 862.858 1703.78 855.524L1774.11 805.188C1787.56 795.561 1796.88 782.396 1799.84 768.833L1806.94 736.306L1955.73 654.01L1961 657.389Z" fill="url(#paint71_linear_100_84)"/>
<path d="M1955.73 654.011L1939.26 729.87C1931.63 764.98 1903.64 798.294 1865.22 817.972L1706.16 867.8C1694.16 871.558 1688.26 859.48 1698.51 852.146L1768.84 801.81C1782.29 792.183 1791.61 779.018 1794.57 765.455L1801.67 732.928L1955.73 654.011Z" fill="url(#paint72_linear_100_84)"/>
<path d="M1865.71 588.248L1831.63 629.731C1815.85 648.931 1782.9 672.57 1744.49 692.249L1593.69 758.216C1582.32 763.191 1573.61 752.22 1584.4 745.949L1665.22 709.502C1679.38 701.27 1690.89 692.385 1697 684.964L1711.65 667.167L1860.83 578.736L1865.71 588.248Z" fill="url(#paint73_linear_100_84)"/>
<path d="M1851.12 442.229L1779.93 411.273C1746.99 396.946 1703.59 400.2 1665.18 419.878L1531.8 519.853C1521.74 527.392 1528.1 539.239 1540.04 535.208L1621.98 507.542C1637.65 502.251 1653.78 502.382 1666.51 507.904L1697.06 521.147L1851.23 446.554L1851.12 442.229Z" fill="url(#paint74_linear_100_84)"/>
<path d="M2171.39 549.152L2163.69 553.095L2163.6 552.92C2125.1 570.437 2070.54 538.093 2040.52 479.488C2010.41 420.709 2016.13 357.713 2052.75 336.521L2052.66 336.347L2060.36 332.404C2207.85 285.342 2305.2 343.905 2305.2 343.905C2305.2 343.905 2295.76 456.957 2171.39 549.152Z" fill="url(#paint75_linear_100_84)"/>
<path d="M1851.23 446.553L1780.04 415.597C1747.09 401.27 1703.7 404.524 1665.29 424.202L1531.91 524.177C1521.85 531.716 1528.2 543.563 1540.14 539.532L1622.09 511.866C1637.76 506.575 1653.88 506.706 1666.62 512.228L1697.17 525.471L1851.23 446.553Z" fill="url(#paint76_linear_100_84)"/>
<path d="M1987.9 583.937C1951.61 602.527 1908.14 590.047 1890.82 556.063C1873.5 522.078 1888.88 479.458 1925.17 460.868C1961.46 442.278 2004.92 454.758 2022.24 488.743C2039.56 522.727 2024.19 565.347 1987.9 583.937Z" fill="url(#paint77_linear_100_84)"/>
<path d="M1983.63 586.1C2019.65 566.997 2034.37 524.191 2016.5 490.491C1998.63 456.79 1954.94 444.957 1918.91 464.061C1882.89 483.164 1868.17 525.97 1886.04 559.67C1903.91 593.37 1947.6 605.204 1983.63 586.1Z" fill="#FBFCFE"/>
<path d="M1976.83 575.431C1947.17 590.625 1911.64 580.425 1897.49 552.649C1883.33 524.873 1895.9 490.039 1925.56 474.844C1955.22 459.65 1990.74 469.85 2004.9 497.626C2019.06 525.403 2006.49 560.237 1976.83 575.431Z" fill="url(#paint78_linear_100_84)"/>
<path d="M1860.83 578.734L1826.75 620.217C1810.98 639.416 1778.03 663.056 1739.61 682.734L1588.82 748.701C1577.44 753.676 1575.49 749.298 1586.28 743.026L1660.35 699.986C1674.51 691.754 1686.02 682.869 1692.13 675.448L1706.77 657.651L1860.83 578.734Z" fill="url(#paint79_linear_100_84)"/>
<path d="M1018.81 484.207C1018.81 484.207 694.275 420.59 666.287 722.018C638.298 1023.45 1144.59 1218.84 1000.5 1464.8C856.412 1710.75 298.449 1285.03 298.449 1285.03" stroke="#F5A21C" stroke-width="4.9139" stroke-miterlimit="10" stroke-dasharray="19.66 19.66"/>
<path d="M329.961 1268L201.085 1381.06L0.794922 1226.41L329.961 1268Z" fill="url(#paint80_linear_100_84)"/>
<path d="M338.291 1311.3L362.69 1438.12L0.794922 1226.41L338.291 1311.3Z" fill="url(#paint81_linear_100_84)"/>
<path d="M329.961 1268L0.794922 1226.41L315.568 1193.19L329.961 1268Z" fill="url(#paint82_linear_100_84)"/>
<path d="M1441.94 1232.79L1393.24 1321.72L1415.68 1330.67L1486.15 1256.14L1441.94 1232.79Z" fill="url(#paint83_linear_100_84)"/>
<path d="M1486.15 1256.14L1504.48 1262.07L1439.69 1324.93L1415.68 1330.67L1486.15 1256.14Z" fill="url(#paint84_linear_100_84)"/>
<path d="M1621.78 1297.91L1660.12 1396.22L1684.94 1392.74L1666.84 1276.25L1621.78 1297.91Z" fill="url(#paint85_linear_100_84)"/>
<path d="M1666.84 1276.25L1682.5 1265.03L1700.24 1377.92L1684.94 1392.74L1666.84 1276.25Z" fill="url(#paint86_linear_100_84)"/>
<path d="M1709.72 1251.82L1787.39 1281.73L1822.34 1269.05L1724.08 1203.93L1709.72 1251.82Z" fill="url(#paint87_linear_100_84)"/>
<path d="M1724.08 1203.93L1726.34 1184.8L1821.96 1256.14L1822.34 1269.05L1724.08 1203.93Z" fill="url(#paint88_linear_100_84)"/>
<path d="M1821.71 1117.4C1796.61 1239.41 1683.98 1319.33 1570.14 1295.91C1456.3 1272.49 1384.36 1154.61 1409.45 1032.6C1434.55 910.597 1547.18 830.675 1661.02 854.092C1774.86 877.51 1846.81 995.398 1821.71 1117.4Z" fill="url(#paint89_linear_100_84)"/>
<path d="M1794.81 1111.87C1769.71 1233.88 1657.08 1313.8 1543.24 1290.38C1429.4 1266.96 1357.45 1149.07 1382.55 1027.07C1407.65 905.064 1520.28 825.142 1634.12 848.56C1747.96 871.977 1819.9 989.865 1794.81 1111.87Z" fill="url(#paint90_linear_100_84)"/>
<path d="M1634.12 848.559C1633.52 848.436 1632.92 848.407 1632.33 848.29C1745.13 872.568 1816.23 989.776 1791.26 1111.14C1766.3 1232.5 1654.72 1312.14 1541.49 1289.92C1542.08 1290.05 1542.64 1290.26 1543.24 1290.38C1657.08 1313.8 1769.71 1233.87 1794.81 1111.87C1819.9 989.865 1747.96 871.977 1634.12 848.559Z" fill="white"/>
<path d="M1749.16 1102.48C1729.63 1197.47 1641.93 1259.69 1553.3 1241.46C1464.66 1223.23 1408.65 1131.44 1428.19 1036.46C1447.73 941.467 1535.42 879.244 1624.06 897.476C1712.69 915.708 1768.7 1007.49 1749.16 1102.48Z" fill="url(#paint91_linear_100_84)"/>
<path d="M1709.71 1094.37C1694.98 1166.01 1628.84 1212.93 1561.99 1199.18C1495.15 1185.43 1452.9 1116.21 1467.64 1044.57C1482.37 972.93 1548.51 926.002 1615.36 939.753C1682.21 953.504 1724.45 1022.73 1709.71 1094.37Z" fill="url(#paint92_linear_100_84)"/>
<path d="M1673.29 1086.87C1662.99 1136.95 1616.75 1169.76 1570.02 1160.15C1523.3 1150.53 1493.76 1102.14 1504.07 1052.06C1514.37 1001.98 1560.6 969.179 1607.33 978.791C1654.06 988.405 1683.59 1036.8 1673.29 1086.87Z" fill="url(#paint93_linear_100_84)"/>
<path d="M1642.13 1080.46C1635.62 1112.1 1606.41 1132.83 1576.89 1126.75C1547.37 1120.68 1528.72 1090.11 1535.22 1058.47C1541.73 1026.84 1570.94 1006.11 1600.46 1012.18C1629.98 1018.25 1648.64 1048.83 1642.13 1080.46Z" fill="url(#paint94_linear_100_84)"/>
<path d="M1616.76 1075.25C1613.34 1091.87 1598 1102.76 1582.48 1099.57C1566.97 1096.38 1557.17 1080.32 1560.59 1063.69C1564.01 1047.07 1579.36 1036.18 1594.87 1039.37C1610.38 1042.56 1620.18 1058.62 1616.76 1075.25Z" fill="url(#paint95_linear_100_84)"/>
<defs>
<linearGradient id="paint0_linear_100_84" x1="758.843" y1="148.667" x2="758.843" y2="300.576" gradientUnits="userSpaceOnUse">
<stop stop-color="#F9FCFF"/>
<stop offset="1" stop-color="#D1D1D1"/>
</linearGradient>
<linearGradient id="paint1_linear_100_84" x1="789.454" y1="320.223" x2="789.454" y2="176.929" gradientUnits="userSpaceOnUse">
<stop stop-color="#505FAA"/>
<stop offset="0.7039" stop-color="#8F92C7"/>
<stop offset="1" stop-color="#BCBEDD"/>
</linearGradient>
<linearGradient id="paint2_linear_100_84" x1="774.947" y1="341.075" x2="654.008" y2="570.645" gradientUnits="userSpaceOnUse">
<stop stop-color="#505FAA"/>
<stop offset="0.7039" stop-color="#8F92C7"/>
<stop offset="1" stop-color="#BCBEDD"/>
</linearGradient>
<linearGradient id="paint3_linear_100_84" x1="684.354" y1="382.37" x2="712.963" y2="382.37" gradientUnits="userSpaceOnUse">
<stop stop-color="#F58B21"/>
<stop offset="1" stop-color="#F5B419"/>
</linearGradient>
<linearGradient id="paint4_linear_100_84" x1="659.968" y1="373.932" x2="712.963" y2="373.932" gradientUnits="userSpaceOnUse">
<stop stop-color="#FFC364"/>
<stop offset="1" stop-color="#F5B419"/>
</linearGradient>
<linearGradient id="paint5_linear_100_84" x1="618.523" y1="108.402" x2="618.523" y2="322.113" gradientUnits="userSpaceOnUse">
<stop stop-color="#F9FCFF"/>
<stop offset="1" stop-color="#E7EDF7"/>
</linearGradient>
<linearGradient id="paint6_linear_100_84" x1="407.169" y1="52.5195" x2="411.006" y2="404.742" gradientUnits="userSpaceOnUse">
<stop stop-color="#F9FCFF"/>
<stop offset="1" stop-color="#E7EDF7"/>
</linearGradient>
<linearGradient id="paint7_linear_100_84" x1="206.018" y1="332.411" x2="548.489" y2="179.435" gradientUnits="userSpaceOnUse">
<stop stop-color="#F9FCFF"/>
<stop offset="1" stop-color="#E7EDF7"/>
</linearGradient>
<linearGradient id="paint8_linear_100_84" x1="395.796" y1="407.998" x2="395.796" y2="76.836" gradientUnits="userSpaceOnUse">
<stop stop-color="#F9FCFF"/>
<stop offset="1" stop-color="#D1D1D1"/>
</linearGradient>
<linearGradient id="paint9_linear_100_84" x1="473.822" y1="158.006" x2="473.822" y2="295.581" gradientUnits="userSpaceOnUse">
<stop stop-color="#F9FCFF"/>
<stop offset="1" stop-color="#D1D1D1"/>
</linearGradient>
<linearGradient id="paint10_linear_100_84" x1="395.836" y1="193.725" x2="395.836" y2="276.45" gradientUnits="userSpaceOnUse">
<stop stop-color="#F9FCFF"/>
<stop offset="1" stop-color="#E7EDF7"/>
</linearGradient>
<linearGradient id="paint11_linear_100_84" x1="1231.52" y1="810.683" x2="1408.7" y2="92.3219" gradientUnits="userSpaceOnUse">
<stop stop-color="#505FAA"/>
<stop offset="1" stop-color="#2C3C91"/>
</linearGradient>
<linearGradient id="paint12_linear_100_84" x1="837.433" y1="536.685" x2="1743.46" y2="536.685" gradientUnits="userSpaceOnUse">
<stop stop-color="#505FAA"/>
<stop offset="1" stop-color="#2C3C91"/>
</linearGradient>
<linearGradient id="paint13_linear_100_84" x1="1450.59" y1="134.721" x2="1217.26" y2="682.538" gradientUnits="userSpaceOnUse">
<stop stop-color="#F9FCFF"/>
<stop offset="1" stop-color="#D1D1D1"/>
</linearGradient>
<linearGradient id="paint14_linear_100_84" x1="1476.63" y1="1071.26" x2="669.819" y2="1071.26" gradientUnits="userSpaceOnUse">
<stop stop-color="#505FAA"/>
<stop offset="1" stop-color="#2C3C91"/>
</linearGradient>
<linearGradient id="paint15_linear_100_84" x1="1476.32" y1="1070.51" x2="669.511" y2="1070.51" gradientUnits="userSpaceOnUse">
<stop stop-color="#F9F9FC"/>
<stop offset="1" stop-color="#D7DCEE"/>
</linearGradient>
<linearGradient id="paint16_linear_100_84" x1="385.254" y1="1042.36" x2="1527.66" y2="1042.36" gradientUnits="userSpaceOnUse">
<stop stop-color="#F9F9FC"/>
<stop offset="1" stop-color="#D7DCEE"/>
</linearGradient>
<linearGradient id="paint17_linear_100_84" x1="1555.46" y1="512.758" x2="761.139" y2="826.082" gradientUnits="userSpaceOnUse">
<stop stop-color="#505FAA"/>
<stop offset="1" stop-color="#2C3C91"/>
</linearGradient>
<linearGradient id="paint18_linear_100_84" x1="1536.19" y1="567.864" x2="750.647" y2="877.729" gradientUnits="userSpaceOnUse">
<stop stop-color="#505FAA"/>
<stop offset="1" stop-color="#2C3C91"/>
</linearGradient>
<linearGradient id="paint19_linear_100_84" x1="1518.91" y1="620.66" x2="739.746" y2="928.007" gradientUnits="userSpaceOnUse">
<stop stop-color="#505FAA"/>
<stop offset="1" stop-color="#2C3C91"/>
</linearGradient>
<linearGradient id="paint20_linear_100_84" x1="1503.68" y1="671.65" x2="728.219" y2="977.538" gradientUnits="userSpaceOnUse">
<stop stop-color="#505FAA"/>
<stop offset="1" stop-color="#2C3C91"/>
</linearGradient>
<linearGradient id="paint21_linear_100_84" x1="1490.5" y1="721.382" x2="715.745" y2="1026.99" gradientUnits="userSpaceOnUse">
<stop stop-color="#505FAA"/>
<stop offset="1" stop-color="#2C3C91"/>
</linearGradient>
<linearGradient id="paint22_linear_100_84" x1="1479.24" y1="770.446" x2="701.889" y2="1077.08" gradientUnits="userSpaceOnUse">
<stop stop-color="#505FAA"/>
<stop offset="1" stop-color="#2C3C91"/>
</linearGradient>
<linearGradient id="paint23_linear_100_84" x1="1469.66" y1="819.48" x2="686.115" y2="1128.55" gradientUnits="userSpaceOnUse">
<stop stop-color="#505FAA"/>
<stop offset="1" stop-color="#2C3C91"/>
</linearGradient>
<linearGradient id="paint24_linear_100_84" x1="1461.42" y1="869.166" x2="667.778" y2="1182.22" gradientUnits="userSpaceOnUse">
<stop stop-color="#505FAA"/>
<stop offset="1" stop-color="#2C3C91"/>
</linearGradient>
<linearGradient id="paint25_linear_100_84" x1="1454.08" y1="920.232" x2="646.127" y2="1238.93" gradientUnits="userSpaceOnUse">
<stop stop-color="#505FAA"/>
<stop offset="1" stop-color="#2C3C91"/>
</linearGradient>
<linearGradient id="paint26_linear_100_84" x1="1447.07" y1="973.45" x2="620.308" y2="1299.57" gradientUnits="userSpaceOnUse">
<stop stop-color="#505FAA"/>
<stop offset="1" stop-color="#2C3C91"/>
</linearGradient>
<linearGradient id="paint27_linear_100_84" x1="1361.55" y1="622.551" x2="761.456" y2="859.263" gradientUnits="userSpaceOnUse">
<stop stop-color="#505FAA"/>
<stop offset="1" stop-color="#2C3C91"/>
</linearGradient>
<linearGradient id="paint28_linear_100_84" x1="1464.04" y1="649.695" x2="729.368" y2="939.493" gradientUnits="userSpaceOnUse">
<stop stop-color="#505FAA"/>
<stop offset="1" stop-color="#2C3C91"/>
</linearGradient>
<linearGradient id="paint29_linear_100_84" x1="1458.17" y1="697.563" x2="718.344" y2="989.392" gradientUnits="userSpaceOnUse">
<stop stop-color="#505FAA"/>
<stop offset="1" stop-color="#2C3C91"/>
</linearGradient>
<linearGradient id="paint30_linear_100_84" x1="1452.67" y1="744.762" x2="705.009" y2="1039.68" gradientUnits="userSpaceOnUse">
<stop stop-color="#505FAA"/>
<stop offset="1" stop-color="#2C3C91"/>
</linearGradient>
<linearGradient id="paint31_linear_100_84" x1="1447.46" y1="791.84" x2="688.969" y2="1091.03" gradientUnits="userSpaceOnUse">
<stop stop-color="#505FAA"/>
<stop offset="1" stop-color="#2C3C91"/>
</linearGradient>
<linearGradient id="paint32_linear_100_84" x1="1442.37" y1="839.398" x2="669.738" y2="1144.17" gradientUnits="userSpaceOnUse">
<stop stop-color="#505FAA"/>
<stop offset="1" stop-color="#2C3C91"/>
</linearGradient>
<linearGradient id="paint33_linear_100_84" x1="1437.08" y1="888.074" x2="646.713" y2="1199.84" gradientUnits="userSpaceOnUse">
<stop stop-color="#505FAA"/>
<stop offset="1" stop-color="#2C3C91"/>
</linearGradient>
<linearGradient id="paint34_linear_100_84" x1="1431.21" y1="938.56" x2="619.194" y2="1258.87" gradientUnits="userSpaceOnUse">
<stop stop-color="#505FAA"/>
<stop offset="1" stop-color="#2C3C91"/>
</linearGradient>
<linearGradient id="paint35_linear_100_84" x1="1424.24" y1="991.586" x2="586.367" y2="1322.09" gradientUnits="userSpaceOnUse">
<stop stop-color="#505FAA"/>
<stop offset="1" stop-color="#2C3C91"/>
</linearGradient>
<linearGradient id="paint36_linear_100_84" x1="1427.9" y1="574.405" x2="727.947" y2="850.507" gradientUnits="userSpaceOnUse">
<stop stop-color="#505FAA"/>
<stop offset="1" stop-color="#2C3C91"/>
</linearGradient>
<linearGradient id="paint37_linear_100_84" x1="1426.67" y1="623.96" x2="722.272" y2="901.817" gradientUnits="userSpaceOnUse">
<stop stop-color="#505FAA"/>
<stop offset="1" stop-color="#2C3C91"/>
</linearGradient>
<linearGradient id="paint38_linear_100_84" x1="1424.87" y1="672.128" x2="714.246" y2="952.437" gradientUnits="userSpaceOnUse">
<stop stop-color="#505FAA"/>
<stop offset="1" stop-color="#2C3C91"/>
</linearGradient>
<linearGradient id="paint39_linear_100_84" x1="1422.67" y1="719.332" x2="703.743" y2="1002.92" gradientUnits="userSpaceOnUse">
<stop stop-color="#505FAA"/>
<stop offset="1" stop-color="#2C3C91"/>
</linearGradient>
<linearGradient id="paint40_linear_100_84" x1="1420.17" y1="766.038" x2="690.531" y2="1053.85" gradientUnits="userSpaceOnUse">
<stop stop-color="#505FAA"/>
<stop offset="1" stop-color="#2C3C91"/>
</linearGradient>
<linearGradient id="paint41_linear_100_84" x1="1417.3" y1="812.76" x2="674.273" y2="1105.85" gradientUnits="userSpaceOnUse">
<stop stop-color="#505FAA"/>
<stop offset="1" stop-color="#2C3C91"/>
</linearGradient>
<linearGradient id="paint42_linear_100_84" x1="1413.94" y1="860.057" x2="654.521" y2="1159.62" gradientUnits="userSpaceOnUse">
<stop stop-color="#505FAA"/>
<stop offset="1" stop-color="#2C3C91"/>
</linearGradient>
<linearGradient id="paint43_linear_100_84" x1="1409.85" y1="908.529" x2="630.723" y2="1215.86" gradientUnits="userSpaceOnUse">
<stop stop-color="#505FAA"/>
<stop offset="1" stop-color="#2C3C91"/>
</linearGradient>
<linearGradient id="paint44_linear_100_84" x1="1372.33" y1="997.835" x2="718.805" y2="1255.62" gradientUnits="userSpaceOnUse">
<stop stop-color="#505FAA"/>
<stop offset="1" stop-color="#2C3C91"/>
</linearGradient>
<linearGradient id="paint45_linear_100_84" x1="1413.42" y1="584.559" x2="707.349" y2="863.073" gradientUnits="userSpaceOnUse">
<stop stop-color="#505FAA"/>
<stop offset="1" stop-color="#2C3C91"/>
</linearGradient>
<linearGradient id="paint46_linear_100_84" x1="1409.33" y1="636.365" x2="700.734" y2="915.876" gradientUnits="userSpaceOnUse">
<stop stop-color="#505FAA"/>
<stop offset="1" stop-color="#2C3C91"/>
</linearGradient>
<linearGradient id="paint47_linear_100_84" x1="1404.87" y1="686.625" x2="692.26" y2="967.718" gradientUnits="userSpaceOnUse">
<stop stop-color="#505FAA"/>
<stop offset="1" stop-color="#2C3C91"/>
</linearGradient>
<linearGradient id="paint48_linear_100_84" x1="1400.24" y1="735.723" x2="681.844" y2="1019.1" gradientUnits="userSpaceOnUse">
<stop stop-color="#505FAA"/>
<stop offset="1" stop-color="#2C3C91"/>
</linearGradient>
<linearGradient id="paint49_linear_100_84" x1="1395.59" y1="784.086" x2="669.303" y2="1070.57" gradientUnits="userSpaceOnUse">
<stop stop-color="#505FAA"/>
<stop offset="1" stop-color="#2C3C91"/>
</linearGradient>
<linearGradient id="paint50_linear_100_84" x1="1390.9" y1="832.189" x2="654.342" y2="1122.73" gradientUnits="userSpaceOnUse">
<stop stop-color="#505FAA"/>
<stop offset="1" stop-color="#2C3C91"/>
</linearGradient>
<linearGradient id="paint51_linear_100_84" x1="1386.1" y1="880.549" x2="636.566" y2="1176.21" gradientUnits="userSpaceOnUse">
<stop stop-color="#505FAA"/>
<stop offset="1" stop-color="#2C3C91"/>
</linearGradient>
<linearGradient id="paint52_linear_100_84" x1="1380.97" y1="929.726" x2="615.459" y2="1231.69" gradientUnits="userSpaceOnUse">
<stop stop-color="#505FAA"/>
<stop offset="1" stop-color="#2C3C91"/>
</linearGradient>
<linearGradient id="paint53_linear_100_84" x1="1375.21" y1="980.332" x2="590.415" y2="1289.9" gradientUnits="userSpaceOnUse">
<stop stop-color="#505FAA"/>
<stop offset="1" stop-color="#2C3C91"/>
</linearGradient>
<linearGradient id="paint54_linear_100_84" x1="1368.4" y1="1033.02" x2="560.714" y2="1351.62" gradientUnits="userSpaceOnUse">
<stop stop-color="#505FAA"/>
<stop offset="1" stop-color="#2C3C91"/>
</linearGradient>
<linearGradient id="paint55_linear_100_84" x1="1438.47" y1="578.507" x2="683.261" y2="876.405" gradientUnits="userSpaceOnUse">
<stop stop-color="#505FAA"/>
<stop offset="1" stop-color="#2C3C91"/>
</linearGradient>
<linearGradient id="paint56_linear_100_84" x1="1423.02" y1="636.058" x2="672.88" y2="931.956" gradientUnits="userSpaceOnUse">
<stop stop-color="#505FAA"/>
<stop offset="1" stop-color="#2C3C91"/>
</linearGradient>
<linearGradient id="paint57_linear_100_84" x1="1408.37" y1="691.489" x2="662.106" y2="985.856" gradientUnits="userSpaceOnUse">
<stop stop-color="#505FAA"/>
<stop offset="1" stop-color="#2C3C91"/>
</linearGradient>
<linearGradient id="paint58_linear_100_84" x1="1233.37" y1="883.759" x2="724.879" y2="1084.34" gradientUnits="userSpaceOnUse">
<stop stop-color="#505FAA"/>
<stop offset="1" stop-color="#2C3C91"/>
</linearGradient>
<linearGradient id="paint59_linear_100_84" x1="1352.56" y1="950.509" x2="597.395" y2="1248.39" gradientUnits="userSpaceOnUse">
<stop stop-color="#505FAA"/>
<stop offset="1" stop-color="#2C3C91"/>
</linearGradient>
<linearGradient id="paint60_linear_100_84" x1="1344.56" y1="1002.03" x2="579.81" y2="1303.69" gradientUnits="userSpaceOnUse">
<stop stop-color="#505FAA"/>
<stop offset="1" stop-color="#2C3C91"/>
</linearGradient>
<linearGradient id="paint61_linear_100_84" x1="1336.99" y1="1054.79" x2="559.35" y2="1361.53" gradientUnits="userSpaceOnUse">
<stop stop-color="#505FAA"/>
<stop offset="1" stop-color="#2C3C91"/>
</linearGradient>
<linearGradient id="paint62_linear_100_84" x1="1045.09" y1="518.521" x2="1403.76" y2="502.978" gradientUnits="userSpaceOnUse">
<stop stop-color="#212253"/>
<stop offset="1" stop-color="#313F95"/>
</linearGradient>
<linearGradient id="paint63_linear_100_84" x1="1447.74" y1="519.858" x2="1251.82" y2="651.74" gradientUnits="userSpaceOnUse">
<stop stop-color="#212253"/>
<stop offset="1" stop-color="#313F95"/>
</linearGradient>
<linearGradient id="paint64_linear_100_84" x1="1314.36" y1="456.335" x2="1536.07" y2="456.335" gradientUnits="userSpaceOnUse">
<stop stop-color="#F58B21"/>
<stop offset="1" stop-color="#BF7113"/>
</linearGradient>
<linearGradient id="paint65_linear_100_84" x1="1007.73" y1="518.52" x2="1366.4" y2="502.977" gradientUnits="userSpaceOnUse">
<stop stop-color="#212253"/>
<stop offset="1" stop-color="#313F95"/>
</linearGradient>
<linearGradient id="paint66_linear_100_84" x1="1234.88" y1="619.516" x2="1424.37" y2="611.304" gradientUnits="userSpaceOnUse">
<stop stop-color="#505FAA"/>
<stop offset="0.7039" stop-color="#8F92C7"/>
<stop offset="1" stop-color="#BCBEDD"/>
</linearGradient>
<linearGradient id="paint67_linear_100_84" x1="1275.62" y1="467.591" x2="1497.32" y2="457.983" gradientUnits="userSpaceOnUse">
<stop stop-color="#F58B21"/>
<stop offset="1" stop-color="#F5B419"/>
</linearGradient>
<linearGradient id="paint68_linear_100_84" x1="1229.84" y1="557.134" x2="1461.72" y2="557.134" gradientUnits="userSpaceOnUse">
<stop stop-color="#212253"/>
<stop offset="1" stop-color="#313F95"/>
</linearGradient>
<linearGradient id="paint69_linear_100_84" x1="1873.02" y1="730.418" x2="1646.92" y2="605.447" gradientUnits="userSpaceOnUse">
<stop stop-color="#212253"/>
<stop offset="1" stop-color="#313F95"/>
</linearGradient>
<linearGradient id="paint70_linear_100_84" x1="2064.31" y1="615.406" x2="1953.28" y2="398.657" gradientUnits="userSpaceOnUse">
<stop stop-color="#F9FCFF"/>
<stop offset="1" stop-color="#D1D1D1"/>
</linearGradient>
<linearGradient id="paint71_linear_100_84" x1="1959.56" y1="678.127" x2="1771" y2="839.898" gradientUnits="userSpaceOnUse">
<stop stop-color="#505FAA"/>
<stop offset="0.7039" stop-color="#8F92C7"/>
<stop offset="1" stop-color="#BCBEDD"/>
</linearGradient>
<linearGradient id="paint72_linear_100_84" x1="1808.39" y1="726.924" x2="1846.76" y2="801.828" gradientUnits="userSpaceOnUse">
<stop stop-color="#505FAA"/>
<stop offset="0.7039" stop-color="#8F92C7"/>
<stop offset="1" stop-color="#BCBEDD"/>
</linearGradient>
<linearGradient id="paint73_linear_100_84" x1="1829.36" y1="621.814" x2="1640.92" y2="718.342" gradientUnits="userSpaceOnUse">
<stop stop-color="#505FAA"/>
<stop offset="0.7039" stop-color="#8F92C7"/>
<stop offset="1" stop-color="#BCBEDD"/>
</linearGradient>
<linearGradient id="paint74_linear_100_84" x1="1825.94" y1="480.45" x2="1573.56" y2="465.471" gradientUnits="userSpaceOnUse">
<stop stop-color="#505FAA"/>
<stop offset="0.7039" stop-color="#8F92C7"/>
<stop offset="1" stop-color="#BCBEDD"/>
</linearGradient>
<linearGradient id="paint75_linear_100_84" x1="2232.96" y1="529.015" x2="2121.93" y2="312.267" gradientUnits="userSpaceOnUse">
<stop stop-color="#505FAA"/>
<stop offset="0.7039" stop-color="#8F92C7"/>
<stop offset="1" stop-color="#BCBEDD"/>
</linearGradient>
<linearGradient id="paint76_linear_100_84" x1="1706.38" y1="524.327" x2="1669.27" y2="451.886" gradientUnits="userSpaceOnUse">
<stop stop-color="#505FAA"/>
<stop offset="0.7039" stop-color="#8F92C7"/>
<stop offset="1" stop-color="#BCBEDD"/>
</linearGradient>
<linearGradient id="paint77_linear_100_84" x1="1925.04" y1="460.931" x2="1988.02" y2="583.873" gradientUnits="userSpaceOnUse">
<stop stop-color="#505FAA"/>
<stop offset="0.7039" stop-color="#8F92C7"/>
<stop offset="1" stop-color="#BCBEDD"/>
</linearGradient>
<linearGradient id="paint78_linear_100_84" x1="1978.95" y1="579.627" x2="1927.48" y2="479.145" gradientUnits="userSpaceOnUse">
<stop stop-color="#212253"/>
<stop offset="1" stop-color="#313F95"/>
</linearGradient>
<linearGradient id="paint79_linear_100_84" x1="1713.61" y1="652.493" x2="1737" y2="695.853" gradientUnits="userSpaceOnUse">
<stop stop-color="#505FAA"/>
<stop offset="0.7039" stop-color="#8F92C7"/>
<stop offset="1" stop-color="#BCBEDD"/>
</linearGradient>
<linearGradient id="paint80_linear_100_84" x1="102.043" y1="1335.2" x2="166.353" y2="1245.85" gradientUnits="userSpaceOnUse">
<stop stop-color="#F9FCFF"/>
<stop offset="1" stop-color="#D1D1D1"/>
</linearGradient>
<linearGradient id="paint81_linear_100_84" x1="337.092" y1="1264.07" x2="147.057" y2="1347.49" gradientUnits="userSpaceOnUse">
<stop stop-color="#F9FCFF"/>
<stop offset="1" stop-color="#E7EDF7"/>
</linearGradient>
<linearGradient id="paint82_linear_100_84" x1="303.146" y1="1186.72" x2="113.107" y2="1270.15" gradientUnits="userSpaceOnUse">
<stop stop-color="#F9FCFF"/>
<stop offset="1" stop-color="#E7EDF7"/>
</linearGradient>
<linearGradient id="paint83_linear_100_84" x1="1393.24" y1="1281.73" x2="1486.15" y2="1281.73" gradientUnits="userSpaceOnUse">
<stop stop-color="#505FAA"/>
<stop offset="1" stop-color="#2C3C91"/>
</linearGradient>
<linearGradient id="paint84_linear_100_84" x1="1415.68" y1="1293.41" x2="1504.48" y2="1293.41" gradientUnits="userSpaceOnUse">
<stop stop-color="#212253"/>
<stop offset="1" stop-color="#313F95"/>
</linearGradient>
<linearGradient id="paint85_linear_100_84" x1="1631.42" y1="1375.02" x2="1691.12" y2="1294.18" gradientUnits="userSpaceOnUse">
<stop stop-color="#505FAA"/>
<stop offset="1" stop-color="#2C3C91"/>
</linearGradient>
<linearGradient id="paint86_linear_100_84" x1="1652.65" y1="1368.89" x2="1712.82" y2="1287.42" gradientUnits="userSpaceOnUse">
<stop stop-color="#212253"/>
<stop offset="1" stop-color="#313F95"/>
</linearGradient>
<linearGradient id="paint87_linear_100_84" x1="1770.88" y1="1284.99" x2="1753.7" y2="1198.07" gradientUnits="userSpaceOnUse">
<stop stop-color="#505FAA"/>
<stop offset="1" stop-color="#2C3C91"/>
</linearGradient>
<linearGradient id="paint88_linear_100_84" x1="1782.29" y1="1276.97" x2="1762.64" y2="1177.62" gradientUnits="userSpaceOnUse">
<stop stop-color="#212253"/>
<stop offset="1" stop-color="#313F95"/>
</linearGradient>
<linearGradient id="paint89_linear_100_84" x1="1646.51" y1="928.17" x2="1592.61" y2="1184.09" gradientUnits="userSpaceOnUse">
<stop stop-color="#F9FCFF"/>
<stop offset="1" stop-color="#D1D1D1"/>
</linearGradient>
<linearGradient id="paint90_linear_100_84" x1="1382.55" y1="1027.07" x2="1794.81" y2="1111.87" gradientUnits="userSpaceOnUse">
<stop stop-color="#F9FCFF"/>
<stop offset="1" stop-color="#D1D1D1"/>
</linearGradient>
<linearGradient id="paint91_linear_100_84" x1="1428.19" y1="1036.45" x2="1749.16" y2="1102.48" gradientUnits="userSpaceOnUse">
<stop stop-color="#F58B21"/>
<stop offset="1" stop-color="#F5B419"/>
</linearGradient>
<linearGradient id="paint92_linear_100_84" x1="1467.64" y1="1044.57" x2="1709.71" y2="1094.37" gradientUnits="userSpaceOnUse">
<stop stop-color="#F9FCFF"/>
<stop offset="1" stop-color="#D1D1D1"/>
</linearGradient>
<linearGradient id="paint93_linear_100_84" x1="1504.07" y1="1052.06" x2="1673.29" y2="1086.87" gradientUnits="userSpaceOnUse">
<stop stop-color="#F58B21"/>
<stop offset="1" stop-color="#F5B419"/>
</linearGradient>
<linearGradient id="paint94_linear_100_84" x1="1535.22" y1="1058.47" x2="1642.13" y2="1080.46" gradientUnits="userSpaceOnUse">
<stop stop-color="#F9FCFF"/>
<stop offset="1" stop-color="#D1D1D1"/>
</linearGradient>
<linearGradient id="paint95_linear_100_84" x1="1560.59" y1="1063.69" x2="1616.76" y2="1075.25" gradientUnits="userSpaceOnUse">
<stop stop-color="#F58B21"/>
<stop offset="1" stop-color="#F5B419"/>
</linearGradient>
</defs>
</svg>
