<svg width="1380" height="884" viewBox="0 0 1380 884" fill="none" xmlns="http://www.w3.org/2000/svg">
<g filter="url(#filter0_ddd_2009_116)">
<g clip-path="url(#clip0_2009_116)">
<rect x="50" y="40" width="1280" height="784" rx="5" fill="white"/>
<rect x="50" y="119" width="1280" height="705" fill="#0E0E10"/>
<rect x="50" y="40" width="1280" height="42" fill="#202124"/>
<path d="M390 59C389.448 59 389 59.4477 389 60V64H385C384.448 64 384 64.4477 384 65C384 65.5523 384.448 66 385 66H389V70C389 70.5523 389.448 71 390 71C390.552 71 391 70.5523 391 70V66H395C395.552 66 396 65.5523 396 65C396 64.4477 395.552 64 395 64H391V60C391 59.4477 390.552 59 390 59Z" fill="#BEC1C5"/>
<g filter="url(#filter1_i_2009_116)">
<path fill-rule="evenodd" clip-rule="evenodd" d="M69 68C72.3137 68 75 65.3137 75 62C75 58.6863 72.3137 56 69 56C65.6863 56 63 58.6863 63 62C63 65.3137 65.6863 68 69 68Z" fill="#ED6A5E"/>
</g>
<path d="M69 56.25C72.1756 56.25 74.75 58.8244 74.75 62C74.75 65.1756 72.1756 67.75 69 67.75C65.8244 67.75 63.25 65.1756 63.25 62C63.25 58.8244 65.8244 56.25 69 56.25Z" stroke="#CE5347" stroke-width="0.5"/>
<g filter="url(#filter2_i_2009_116)">
<path fill-rule="evenodd" clip-rule="evenodd" d="M89 68C92.3137 68 95 65.3137 95 62C95 58.6863 92.3137 56 89 56C85.6863 56 83 58.6863 83 62C83 65.3137 85.6863 68 89 68Z" fill="#F6BE4F"/>
</g>
<path d="M89 56.25C92.1756 56.25 94.75 58.8244 94.75 62C94.75 65.1756 92.1756 67.75 89 67.75C85.8244 67.75 83.25 65.1756 83.25 62C83.25 58.8244 85.8244 56.25 89 56.25Z" stroke="#D6A243" stroke-width="0.5"/>
<g filter="url(#filter3_i_2009_116)">
<path fill-rule="evenodd" clip-rule="evenodd" d="M109 68C112.314 68 115 65.3137 115 62C115 58.6863 112.314 56 109 56C105.686 56 103 58.6863 103 62C103 65.3137 105.686 68 109 68Z" fill="#62C554"/>
</g>
<path d="M109 56.25C112.176 56.25 114.75 58.8244 114.75 62C114.75 65.1756 112.176 67.75 109 67.75C105.824 67.75 103.25 65.1756 103.25 62C103.25 58.8244 105.824 56.25 109 56.25Z" stroke="#58A942" stroke-width="0.5"/>
<path d="M360 48C364.418 48 368 51.5817 368 56V74C368 78.4183 371.582 82 376 82H120C124.418 82 128 78.4183 128 74V56C128 51.5817 131.582 48 136 48H360Z" fill="#0E0E10"/>
<mask id="mask0_2009_116" style="mask-type:alpha" maskUnits="userSpaceOnUse" x="164" y="55" width="177" height="20">
<rect x="164" y="55" width="177" height="20" fill="url(#paint0_linear_2009_116)"/>
</mask>
<g mask="url(#mask0_2009_116)">
<path d="M167.662 69.1465C167.045 69.1465 166.445 69.0293 165.863 68.7949C165.281 68.5566 164.797 68.2363 164.41 67.834L164.996 67.0078C165.316 67.3516 165.715 67.6309 166.191 67.8457C166.668 68.0566 167.158 68.1621 167.662 68.1621C168.213 68.1621 168.676 68.0352 169.051 67.7812C169.426 67.5234 169.613 67.1973 169.613 66.8027C169.613 66.6934 169.596 66.5898 169.561 66.4922C169.525 66.3906 169.484 66.3027 169.438 66.2285C169.391 66.1504 169.32 66.0762 169.227 66.0059C169.133 65.9316 169.051 65.8711 168.98 65.8242C168.914 65.7773 168.814 65.7285 168.682 65.6777C168.549 65.623 168.447 65.584 168.377 65.5605C168.311 65.5332 168.201 65.5 168.049 65.4609C167.9 65.418 167.803 65.3906 167.756 65.3789C167.709 65.3672 167.613 65.3457 167.469 65.3145C167.172 65.252 166.895 65.1777 166.637 65.0918C166.383 65.002 166.131 64.8887 165.881 64.752C165.635 64.6113 165.424 64.457 165.248 64.2891C165.076 64.1172 164.938 63.9102 164.832 63.668C164.727 63.4258 164.674 63.1641 164.674 62.8828C164.674 62.1953 164.947 61.6387 165.494 61.2129C166.045 60.7871 166.754 60.5742 167.621 60.5742C168.191 60.5742 168.713 60.668 169.186 60.8555C169.662 61.043 170.049 61.2969 170.346 61.6172L169.818 62.4375C169.592 62.1875 169.277 61.9785 168.875 61.8105C168.477 61.6426 168.055 61.5586 167.609 61.5586C167.086 61.5586 166.652 61.6797 166.309 61.9219C165.969 62.1602 165.799 62.4668 165.799 62.8418C165.799 63.5215 166.459 63.998 167.779 64.2715C167.924 64.2988 168.062 64.3301 168.195 64.3652C168.332 64.4004 168.504 64.4531 168.711 64.5234C168.922 64.5938 169.113 64.6719 169.285 64.7578C169.461 64.8398 169.641 64.9473 169.824 65.0801C170.012 65.2129 170.17 65.3574 170.299 65.5137C170.428 65.666 170.533 65.8496 170.615 66.0645C170.701 66.2793 170.744 66.5098 170.744 66.7559C170.744 67.4551 170.449 68.0293 169.859 68.4785C169.273 68.9238 168.541 69.1465 167.662 69.1465ZM175.373 62.7363C176.248 62.7363 176.979 63.043 177.564 63.6562C178.15 64.2695 178.443 65.0312 178.443 65.9414C178.443 66.8516 178.15 67.6133 177.564 68.2266C176.979 68.8398 176.248 69.1465 175.373 69.1465C174.873 69.1465 174.418 69.0371 174.008 68.8184C173.598 68.5957 173.262 68.2891 173 67.8984V71.2793H171.969V62.8828H173V63.9844C173.262 63.5938 173.598 63.2891 174.008 63.0703C174.418 62.8477 174.873 62.7363 175.373 62.7363ZM175.18 68.1504C175.809 68.1504 176.332 67.9395 176.75 67.5176C177.168 67.0957 177.377 66.5703 177.377 65.9414C177.377 65.3125 177.168 64.7871 176.75 64.3652C176.332 63.9434 175.809 63.7324 175.18 63.7324C174.555 63.7324 174.035 63.9434 173.621 64.3652C173.207 64.7871 173 65.3125 173 65.9414C173 66.5703 173.207 67.0957 173.621 67.5176C174.035 67.9395 174.555 68.1504 175.18 68.1504ZM184.883 62.8828H185.914V69H184.883V67.8984C184.621 68.2891 184.283 68.5957 183.869 68.8184C183.459 69.0371 183.004 69.1465 182.504 69.1465C181.93 69.1465 181.408 69.0078 180.939 68.7305C180.471 68.4492 180.104 68.0645 179.838 67.5762C179.576 67.084 179.445 66.5391 179.445 65.9414C179.445 65.3438 179.576 64.8008 179.838 64.3125C180.104 63.8203 180.471 63.4355 180.939 63.1582C181.408 62.877 181.93 62.7363 182.504 62.7363C183.004 62.7363 183.459 62.8477 183.869 63.0703C184.283 63.2891 184.621 63.5938 184.883 63.9844V62.8828ZM182.697 68.1504C183.322 68.1504 183.842 67.9395 184.256 67.5176C184.674 67.0957 184.883 66.5703 184.883 65.9414C184.883 65.3125 184.674 64.7871 184.256 64.3652C183.842 63.9434 183.322 63.7324 182.697 63.7324C182.068 63.7324 181.545 63.9434 181.127 64.3652C180.709 64.7871 180.5 65.3125 180.5 65.9414C180.5 66.5703 180.709 67.0957 181.127 67.5176C181.545 67.9395 182.068 68.1504 182.697 68.1504ZM190.789 62.7832H190.994V63.8496H190.789C190.145 63.8496 189.635 64.0391 189.26 64.418C188.889 64.793 188.703 65.3008 188.703 65.9414V69H187.672V62.8828H188.703V63.9375C189.184 63.168 189.879 62.7832 190.789 62.7832ZM196.133 69L193.936 66.5391L193.145 67.3828V69H192.113V60.3574H193.145V65.9883L196.068 62.8828H197.416L194.668 65.7715L197.498 69H196.133ZM204.395 60.7207H205.596L202.174 69H201.025L197.615 60.7207H198.84L201.623 67.5703L204.395 60.7207ZM207.242 61.6582C207.043 61.6582 206.877 61.5938 206.744 61.4648C206.611 61.332 206.545 61.168 206.545 60.9727C206.545 60.7734 206.611 60.6094 206.744 60.4805C206.877 60.3516 207.043 60.2871 207.242 60.2871C207.438 60.2871 207.6 60.3516 207.729 60.4805C207.857 60.6094 207.922 60.7734 207.922 60.9727C207.922 61.168 207.855 61.332 207.723 61.4648C207.594 61.5938 207.434 61.6582 207.242 61.6582ZM206.727 69V62.8828H207.758V69H206.727ZM212.908 62.7363C213.783 62.7363 214.514 63.043 215.1 63.6562C215.686 64.2695 215.979 65.0312 215.979 65.9414C215.979 66.8516 215.686 67.6133 215.1 68.2266C214.514 68.8398 213.783 69.1465 212.908 69.1465C212.408 69.1465 211.953 69.0371 211.543 68.8184C211.133 68.5957 210.797 68.2891 210.535 67.8984V69H209.504V60.3574H210.535V63.9844C210.797 63.5938 211.133 63.2891 211.543 63.0703C211.953 62.8477 212.408 62.7363 212.908 62.7363ZM212.715 68.1504C213.344 68.1504 213.867 67.9395 214.285 67.5176C214.703 67.0957 214.912 66.5703 214.912 65.9414C214.912 65.3125 214.703 64.7871 214.285 64.3652C213.867 63.9434 213.344 63.7324 212.715 63.7324C212.09 63.7324 211.57 63.9434 211.156 64.3652C210.742 64.7871 210.535 65.3125 210.535 65.9414C210.535 66.5703 210.742 67.0957 211.156 67.5176C211.57 67.9395 212.09 68.1504 212.715 68.1504ZM223.367 65.9414C223.367 66 223.357 66.1523 223.338 66.3984H218.07C218.176 66.9375 218.432 67.373 218.838 67.7051C219.248 68.0332 219.748 68.1973 220.338 68.1973C220.775 68.1973 221.178 68.1055 221.545 67.9219C221.912 67.7344 222.199 67.4941 222.406 67.2012L223.115 67.8105C222.807 68.2246 222.406 68.5508 221.914 68.7891C221.426 69.0273 220.889 69.1465 220.303 69.1465C219.346 69.1465 218.549 68.8379 217.912 68.2207C217.275 67.6035 216.957 66.8359 216.957 65.918C216.957 65.3242 217.096 64.7852 217.373 64.3008C217.654 63.8125 218.041 63.4297 218.533 63.1523C219.025 62.875 219.572 62.7363 220.174 62.7363C220.771 62.7363 221.314 62.875 221.803 63.1523C222.291 63.4297 222.674 63.8145 222.951 64.3066C223.229 64.7949 223.367 65.3398 223.367 65.9414ZM220.162 63.6855C219.631 63.6855 219.172 63.8516 218.785 64.1836C218.398 64.5117 218.156 64.9375 218.059 65.4609H222.271C222.174 64.9297 221.932 64.502 221.545 64.1777C221.158 63.8496 220.697 63.6855 220.162 63.6855Z" fill="white"/>
</g>
<path d="M348.281 67.8156C348.005 68.0918 348.005 68.5395 348.281 68.8156C348.557 69.0918 349.005 69.0918 349.281 68.8156L352.039 66.0578L354.797 68.8156C355.073 69.0918 355.521 69.0918 355.797 68.8156C356.073 68.5395 356.073 68.0918 355.797 67.8156L353.039 65.0578L355.797 62.3C356.073 62.0239 356.073 61.5761 355.797 61.3C355.521 61.0239 355.073 61.0239 354.797 61.3L352.039 64.0578L349.281 61.3C349.005 61.0239 348.557 61.0239 348.281 61.3C348.005 61.5761 348.005 62.0239 348.281 62.3L351.039 65.0578L348.281 67.8156Z" fill="white"/>
<rect x="50" y="82" width="1280" height="37" fill="#0E0E10"/>
<rect x="50" y="118.5" width="1280" height="0.5" fill="#282828"/>
<path fill-rule="evenodd" clip-rule="evenodd" d="M72.2849 93.818C72.5752 94.1134 72.5712 94.5883 72.2758 94.8786L68.0829 99H77.75C78.1642 99 78.5 99.3358 78.5 99.75C78.5 100.164 78.1642 100.5 77.75 100.5H68.0905L72.2742 104.589C72.5704 104.878 72.5759 105.353 72.2864 105.649C71.9969 105.945 71.522 105.951 71.2258 105.661L65.7258 100.286C65.5817 100.146 65.5003 99.9526 65.5 99.7511C65.4997 99.5496 65.5805 99.3564 65.7242 99.2151L71.2242 93.8089C71.5196 93.5185 71.9945 93.5226 72.2849 93.818Z" fill="#F1F3F4"/>
<path fill-rule="evenodd" clip-rule="evenodd" d="M103.715 93.818C103.425 94.1134 103.429 94.5883 103.724 94.8786L107.917 99H98.25C97.8358 99 97.5 99.3358 97.5 99.75C97.5 100.164 97.8358 100.5 98.25 100.5H107.909L103.726 104.589C103.43 104.878 103.424 105.353 103.714 105.649C104.003 105.945 104.478 105.951 104.774 105.661L110.274 100.286C110.418 100.146 110.5 99.9526 110.5 99.7511C110.5 99.5496 110.419 99.3564 110.276 99.2151L104.776 93.8089C104.48 93.5185 104.005 93.5226 103.715 93.818Z" fill="#86888A"/>
<path d="M131 100C131 97.2386 133.239 95 136 95C137.507 95 138.859 95.6667 139.777 96.7232L137.5 99H143V93.5L140.839 95.6606C139.65 94.3351 137.923 93.5 136 93.5C132.41 93.5 129.5 96.4101 129.5 100C129.5 103.59 132.41 106.5 136 106.5C138.578 106.5 140.804 104.999 141.855 102.826C142.035 102.454 141.879 102.005 141.506 101.825C141.133 101.644 140.685 101.801 140.504 102.174C139.695 103.848 137.981 105 136 105C133.239 105 131 102.761 131 100Z" fill="#F1F3F4"/>
<rect x="158" y="86" width="1128" height="28" rx="14" fill="#202124"/>
<path fill-rule="evenodd" clip-rule="evenodd" d="M176 95C174.619 95 173.5 96.1193 173.5 97.5V98.5H173C172.448 98.5 172 98.9477 172 99.5V104.5C172 105.052 172.448 105.5 173 105.5H179C179.552 105.5 180 105.052 180 104.5V99.5C180 98.9477 179.552 98.5 179 98.5H178.5V97.5C178.5 96.1193 177.381 95 176 95ZM177.5 98.5V97.5C177.5 96.6716 176.828 96 176 96C175.172 96 174.5 96.6716 174.5 97.5V98.5H177.5Z" fill="#EAEAEA"/>
<path d="M196.799 96.6924C197.669 96.6924 198.369 96.9567 198.897 97.4854C199.431 98.014 199.697 98.7158 199.697 99.5908V104H198.494V99.9668C198.494 99.3288 198.305 98.8184 197.927 98.4355C197.549 98.0482 197.043 97.8545 196.409 97.8545C195.748 97.8545 195.22 98.0505 194.823 98.4424C194.427 98.8343 194.229 99.3516 194.229 99.9941V104H193.025V93.917H194.229V97.9912C194.807 97.1253 195.664 96.6924 196.799 96.6924ZM205.371 97.9502H203.225V101.901C203.225 102.64 203.607 103.009 204.373 103.009C204.706 103.009 205.038 102.92 205.371 102.742V103.877C205.011 104.073 204.594 104.171 204.12 104.171C203.432 104.171 202.91 103.991 202.555 103.631C202.199 103.271 202.021 102.758 202.021 102.093V97.9502H200.736V96.8633H202.021V94.9424H203.225V96.8633H205.371V97.9502ZM210.799 97.9502H208.652V101.901C208.652 102.64 209.035 103.009 209.801 103.009C210.133 103.009 210.466 102.92 210.799 102.742V103.877C210.439 104.073 210.022 104.171 209.548 104.171C208.86 104.171 208.338 103.991 207.982 103.631C207.627 103.271 207.449 102.758 207.449 102.093V97.9502H206.164V96.8633H207.449V94.9424H208.652V96.8633H210.799V97.9502ZM216.315 96.6924C217.336 96.6924 218.188 97.0501 218.872 97.7656C219.556 98.4811 219.897 99.3698 219.897 100.432C219.897 101.493 219.556 102.382 218.872 103.098C218.188 103.813 217.336 104.171 216.315 104.171C215.732 104.171 215.201 104.043 214.723 103.788C214.244 103.528 213.852 103.171 213.547 102.715V106.659H212.344V96.8633H213.547V98.1484C213.852 97.6927 214.244 97.3372 214.723 97.082C215.201 96.8223 215.732 96.6924 216.315 96.6924ZM216.09 103.009C216.824 103.009 217.434 102.763 217.922 102.271C218.41 101.778 218.653 101.165 218.653 100.432C218.653 99.6979 218.41 99.085 217.922 98.5928C217.434 98.1006 216.824 97.8545 216.09 97.8545C215.361 97.8545 214.755 98.1006 214.271 98.5928C213.788 99.085 213.547 99.6979 213.547 100.432C213.547 101.165 213.788 101.778 214.271 102.271C214.755 102.763 215.361 103.009 216.09 103.009ZM223.842 104.171C222.689 104.171 221.723 103.797 220.943 103.05L221.613 102.182C222.197 102.779 222.933 103.077 223.821 103.077C224.304 103.077 224.701 102.988 225.011 102.811C225.321 102.628 225.476 102.38 225.476 102.065C225.476 101.933 225.441 101.815 225.373 101.71C225.309 101.601 225.232 101.512 225.141 101.443C225.054 101.375 224.922 101.309 224.744 101.245C224.571 101.177 224.418 101.127 224.286 101.095C224.159 101.058 223.976 101.01 223.739 100.951C223.521 100.896 223.347 100.853 223.22 100.821C223.092 100.785 222.926 100.73 222.721 100.657C222.52 100.584 222.356 100.514 222.229 100.445C222.105 100.377 221.969 100.288 221.818 100.179C221.673 100.065 221.556 99.9463 221.47 99.8232C221.388 99.6956 221.317 99.5452 221.258 99.3721C221.203 99.1943 221.176 99.0007 221.176 98.791C221.176 98.3444 221.303 97.9593 221.559 97.6357C221.814 97.3122 222.144 97.0752 222.55 96.9248C222.955 96.7699 223.409 96.6924 223.91 96.6924C224.94 96.6924 225.813 97.0182 226.528 97.6699L225.852 98.5518C225.327 98.0413 224.685 97.7861 223.924 97.7861C223.491 97.7861 223.131 97.8682 222.844 98.0322C222.557 98.1963 222.413 98.4264 222.413 98.7227C222.413 98.8594 222.447 98.9824 222.516 99.0918C222.584 99.1966 222.661 99.2832 222.748 99.3516C222.839 99.4199 222.976 99.4883 223.158 99.5566C223.34 99.6204 223.493 99.6706 223.616 99.707C223.744 99.7389 223.931 99.7845 224.177 99.8438C224.391 99.8939 224.562 99.9372 224.689 99.9736C224.822 100.006 224.988 100.056 225.188 100.124C225.389 100.192 225.551 100.261 225.674 100.329C225.801 100.393 225.938 100.479 226.084 100.589C226.23 100.698 226.344 100.814 226.426 100.938C226.508 101.061 226.576 101.211 226.631 101.389C226.69 101.562 226.72 101.751 226.72 101.956C226.72 102.644 226.449 103.187 225.906 103.583C225.364 103.975 224.676 104.171 223.842 104.171ZM228.955 99.1396C228.7 99.1396 228.486 99.0553 228.312 98.8867C228.144 98.7135 228.06 98.4993 228.06 98.2441C228.06 97.9889 228.144 97.777 228.312 97.6084C228.486 97.4352 228.7 97.3486 228.955 97.3486C229.215 97.3486 229.431 97.4352 229.604 97.6084C229.778 97.777 229.864 97.9889 229.864 98.2441C229.864 98.4993 229.778 98.7135 229.604 98.8867C229.431 99.0553 229.215 99.1396 228.955 99.1396ZM228.955 104.096C228.7 104.096 228.486 104.009 228.312 103.836C228.144 103.663 228.06 103.451 228.06 103.2C228.06 102.95 228.144 102.738 228.312 102.564C228.486 102.391 228.7 102.305 228.955 102.305C229.215 102.305 229.431 102.391 229.604 102.564C229.778 102.733 229.864 102.945 229.864 103.2C229.864 103.455 229.778 103.67 229.604 103.843C229.431 104.011 229.215 104.096 228.955 104.096ZM230.835 106.099L236.434 93.5H237.65L232.052 106.099H230.835ZM235.456 106.099L241.055 93.5H242.271L236.673 106.099H235.456ZM253.004 96.8633H254.323L251.705 104H250.447L248.472 98.2852L246.496 104H245.238L242.62 96.8633H243.974L245.908 102.53L247.87 96.8633H249.101L251.076 102.544L253.004 96.8633ZM265.254 96.8633H266.573L263.955 104H262.697L260.722 98.2852L258.746 104H257.488L254.87 96.8633H256.224L258.158 102.53L260.12 96.8633H261.351L263.326 102.544L265.254 96.8633ZM277.504 96.8633H278.823L276.205 104H274.947L272.972 98.2852L270.996 104H269.738L267.12 96.8633H268.474L270.408 102.53L272.37 96.8633H273.601L275.576 102.544L277.504 96.8633ZM279.568 104.096C279.313 104.096 279.099 104.009 278.926 103.836C278.757 103.663 278.673 103.451 278.673 103.2C278.673 102.95 278.757 102.738 278.926 102.564C279.099 102.391 279.313 102.305 279.568 102.305C279.828 102.305 280.045 102.391 280.218 102.564C280.391 102.733 280.478 102.945 280.478 103.2C280.478 103.455 280.391 103.67 280.218 103.843C280.045 104.011 279.828 104.096 279.568 104.096ZM284.6 104.171C283.447 104.171 282.48 103.797 281.701 103.05L282.371 102.182C282.954 102.779 283.69 103.077 284.579 103.077C285.062 103.077 285.459 102.988 285.769 102.811C286.078 102.628 286.233 102.38 286.233 102.065C286.233 101.933 286.199 101.815 286.131 101.71C286.067 101.601 285.99 101.512 285.898 101.443C285.812 101.375 285.68 101.309 285.502 101.245C285.329 101.177 285.176 101.127 285.044 101.095C284.916 101.058 284.734 101.01 284.497 100.951C284.278 100.896 284.105 100.853 283.978 100.821C283.85 100.785 283.684 100.73 283.479 100.657C283.278 100.584 283.114 100.514 282.986 100.445C282.863 100.377 282.727 100.288 282.576 100.179C282.43 100.065 282.314 99.9463 282.228 99.8232C282.146 99.6956 282.075 99.5452 282.016 99.3721C281.961 99.1943 281.934 99.0007 281.934 98.791C281.934 98.3444 282.061 97.9593 282.316 97.6357C282.572 97.3122 282.902 97.0752 283.308 96.9248C283.713 96.7699 284.167 96.6924 284.668 96.6924C285.698 96.6924 286.571 97.0182 287.286 97.6699L286.609 98.5518C286.085 98.0413 285.443 97.7861 284.682 97.7861C284.249 97.7861 283.889 97.8682 283.602 98.0322C283.314 98.1963 283.171 98.4264 283.171 98.7227C283.171 98.8594 283.205 98.9824 283.273 99.0918C283.342 99.1966 283.419 99.2832 283.506 99.3516C283.597 99.4199 283.734 99.4883 283.916 99.5566C284.098 99.6204 284.251 99.6706 284.374 99.707C284.502 99.7389 284.688 99.7845 284.935 99.8438C285.149 99.8939 285.32 99.9372 285.447 99.9736C285.579 100.006 285.746 100.056 285.946 100.124C286.147 100.192 286.309 100.261 286.432 100.329C286.559 100.393 286.696 100.479 286.842 100.589C286.988 100.698 287.102 100.814 287.184 100.938C287.266 101.061 287.334 101.211 287.389 101.389C287.448 101.562 287.478 101.751 287.478 101.956C287.478 102.644 287.206 103.187 286.664 103.583C286.122 103.975 285.434 104.171 284.6 104.171ZM292.974 96.6924C293.994 96.6924 294.847 97.0501 295.53 97.7656C296.214 98.4811 296.556 99.3698 296.556 100.432C296.556 101.493 296.214 102.382 295.53 103.098C294.847 103.813 293.994 104.171 292.974 104.171C292.39 104.171 291.859 104.043 291.381 103.788C290.902 103.528 290.51 103.171 290.205 102.715V106.659H289.002V96.8633H290.205V98.1484C290.51 97.6927 290.902 97.3372 291.381 97.082C291.859 96.8223 292.39 96.6924 292.974 96.6924ZM292.748 103.009C293.482 103.009 294.092 102.763 294.58 102.271C295.068 101.778 295.312 101.165 295.312 100.432C295.312 99.6979 295.068 99.085 294.58 98.5928C294.092 98.1006 293.482 97.8545 292.748 97.8545C292.019 97.8545 291.413 98.1006 290.93 98.5928C290.447 99.085 290.205 99.6979 290.205 100.432C290.205 101.165 290.447 101.778 290.93 102.271C291.413 102.763 292.019 103.009 292.748 103.009ZM304.068 96.8633H305.271V104H304.068V102.715C303.763 103.171 303.369 103.528 302.886 103.788C302.407 104.043 301.876 104.171 301.293 104.171C300.623 104.171 300.015 104.009 299.468 103.686C298.921 103.357 298.493 102.909 298.183 102.339C297.877 101.765 297.725 101.129 297.725 100.432C297.725 99.7344 297.877 99.1009 298.183 98.5312C298.493 97.957 298.921 97.5081 299.468 97.1846C300.015 96.8564 300.623 96.6924 301.293 96.6924C301.876 96.6924 302.407 96.8223 302.886 97.082C303.369 97.3372 303.763 97.6927 304.068 98.1484V96.8633ZM301.519 103.009C302.248 103.009 302.854 102.763 303.337 102.271C303.825 101.778 304.068 101.165 304.068 100.432C304.068 99.6979 303.825 99.085 303.337 98.5928C302.854 98.1006 302.248 97.8545 301.519 97.8545C300.785 97.8545 300.174 98.1006 299.687 98.5928C299.199 99.085 298.955 99.6979 298.955 100.432C298.955 101.165 299.199 101.778 299.687 102.271C300.174 102.763 300.785 103.009 301.519 103.009ZM310.959 96.7471H311.198V97.9912H310.959C310.207 97.9912 309.612 98.2122 309.175 98.6543C308.742 99.0918 308.525 99.6842 308.525 100.432V104H307.322V96.8633H308.525V98.0938C309.086 97.196 309.897 96.7471 310.959 96.7471ZM317.193 104L314.63 101.129L313.707 102.113V104H312.504V93.917H313.707V100.486L317.118 96.8633H318.69L315.484 100.233L318.786 104H317.193ZM325.355 96.8633H326.702L323.564 104H322.286L319.155 96.8633H320.536L322.949 102.558L325.355 96.8633ZM328.527 95.4346C328.295 95.4346 328.101 95.3594 327.946 95.209C327.791 95.054 327.714 94.8626 327.714 94.6348C327.714 94.4023 327.791 94.2109 327.946 94.0605C328.101 93.9102 328.295 93.835 328.527 93.835C328.755 93.835 328.944 93.9102 329.095 94.0605C329.245 94.2109 329.32 94.4023 329.32 94.6348C329.32 94.8626 329.243 95.054 329.088 95.209C328.938 95.3594 328.751 95.4346 328.527 95.4346ZM327.926 104V96.8633H329.129V104H327.926ZM335.138 96.6924C336.159 96.6924 337.011 97.0501 337.694 97.7656C338.378 98.4811 338.72 99.3698 338.72 100.432C338.72 101.493 338.378 102.382 337.694 103.098C337.011 103.813 336.159 104.171 335.138 104.171C334.554 104.171 334.023 104.043 333.545 103.788C333.066 103.528 332.674 103.171 332.369 102.715V104H331.166V93.917H332.369V98.1484C332.674 97.6927 333.066 97.3372 333.545 97.082C334.023 96.8223 334.554 96.6924 335.138 96.6924ZM334.912 103.009C335.646 103.009 336.257 102.763 336.744 102.271C337.232 101.778 337.476 101.165 337.476 100.432C337.476 99.6979 337.232 99.085 336.744 98.5928C336.257 98.1006 335.646 97.8545 334.912 97.8545C334.183 97.8545 333.577 98.1006 333.094 98.5928C332.611 99.085 332.369 99.6979 332.369 100.432C332.369 101.165 332.611 101.778 333.094 102.271C333.577 102.763 334.183 103.009 334.912 103.009ZM347.34 100.432C347.34 100.5 347.328 100.678 347.306 100.965H341.16C341.283 101.594 341.582 102.102 342.056 102.489C342.534 102.872 343.118 103.063 343.806 103.063C344.316 103.063 344.785 102.956 345.214 102.742C345.642 102.523 345.977 102.243 346.219 101.901L347.046 102.612C346.686 103.095 346.219 103.476 345.645 103.754C345.075 104.032 344.448 104.171 343.765 104.171C342.648 104.171 341.718 103.811 340.976 103.091C340.233 102.371 339.861 101.475 339.861 100.404C339.861 99.7116 340.023 99.0827 340.347 98.5176C340.675 97.9479 341.126 97.5013 341.7 97.1777C342.274 96.8542 342.912 96.6924 343.614 96.6924C344.312 96.6924 344.945 96.8542 345.515 97.1777C346.084 97.5013 346.531 97.9502 346.854 98.5244C347.178 99.0941 347.34 99.7298 347.34 100.432ZM343.601 97.7998C342.981 97.7998 342.445 97.9935 341.994 98.3809C341.543 98.7637 341.26 99.2604 341.146 99.8711H346.062C345.948 99.2513 345.665 98.7523 345.214 98.374C344.763 97.9912 344.225 97.7998 343.601 97.7998ZM349.227 104.096C348.971 104.096 348.757 104.009 348.584 103.836C348.415 103.663 348.331 103.451 348.331 103.2C348.331 102.95 348.415 102.738 348.584 102.564C348.757 102.391 348.971 102.305 349.227 102.305C349.486 102.305 349.703 102.391 349.876 102.564C350.049 102.733 350.136 102.945 350.136 103.2C350.136 103.455 350.049 103.67 349.876 103.843C349.703 104.011 349.486 104.096 349.227 104.096ZM354.976 104.171C354.265 104.171 353.618 104.009 353.034 103.686C352.451 103.357 351.993 102.909 351.66 102.339C351.332 101.765 351.168 101.129 351.168 100.432C351.168 99.7344 351.332 99.1009 351.66 98.5312C351.993 97.957 352.451 97.5081 353.034 97.1846C353.618 96.8564 354.265 96.6924 354.976 96.6924C355.677 96.6924 356.315 96.8542 356.89 97.1777C357.464 97.4967 357.913 97.932 358.236 98.4834L357.19 99.1123C356.972 98.7249 356.666 98.4196 356.274 98.1963C355.882 97.9684 355.45 97.8545 354.976 97.8545C354.242 97.8545 353.631 98.1006 353.144 98.5928C352.656 99.085 352.412 99.6979 352.412 100.432C352.412 101.165 352.656 101.778 353.144 102.271C353.631 102.763 354.242 103.009 354.976 103.009C355.45 103.009 355.882 102.895 356.274 102.667C356.666 102.439 356.972 102.132 357.19 101.744L358.236 102.373C357.913 102.929 357.462 103.369 356.883 103.692C356.309 104.011 355.673 104.171 354.976 104.171ZM362.974 104.171C362.263 104.171 361.616 104.009 361.032 103.686C360.449 103.357 359.991 102.909 359.658 102.339C359.33 101.765 359.166 101.129 359.166 100.432C359.166 99.7344 359.33 99.1009 359.658 98.5312C359.991 97.957 360.449 97.5081 361.032 97.1846C361.616 96.8564 362.263 96.6924 362.974 96.6924C364.049 96.6924 364.949 97.0501 365.674 97.7656C366.403 98.4811 366.768 99.3698 366.768 100.432C366.768 101.493 366.403 102.382 365.674 103.098C364.949 103.813 364.049 104.171 362.974 104.171ZM362.974 103.009C363.703 103.009 364.309 102.763 364.792 102.271C365.28 101.778 365.523 101.165 365.523 100.432C365.523 99.6979 365.28 99.085 364.792 98.5928C364.309 98.1006 363.703 97.8545 362.974 97.8545C362.24 97.8545 361.629 98.1006 361.142 98.5928C360.654 99.085 360.41 99.6979 360.41 100.432C360.41 101.165 360.654 101.778 361.142 102.271C361.629 102.763 362.24 103.009 362.974 103.009ZM376.878 96.6924C377.698 96.6924 378.352 96.9385 378.84 97.4307C379.332 97.9183 379.578 98.5723 379.578 99.3926V104H378.375V99.7275C378.375 99.1579 378.204 98.7044 377.862 98.3672C377.525 98.0254 377.074 97.8545 376.509 97.8545C375.925 97.8545 375.456 98.0277 375.101 98.374C374.745 98.7204 374.567 99.1807 374.567 99.7549V104H373.364V99.7275C373.364 99.1579 373.193 98.7044 372.852 98.3672C372.514 98.0254 372.063 97.8545 371.498 97.8545C370.915 97.8545 370.445 98.0277 370.09 98.374C369.734 98.7204 369.557 99.1807 369.557 99.7549V104H368.354V96.8633H369.557V97.8271C370.099 97.0706 370.878 96.6924 371.895 96.6924C372.451 96.6924 372.936 96.8154 373.351 97.0615C373.765 97.3076 374.077 97.6517 374.287 98.0938C374.556 97.6426 374.911 97.2962 375.354 97.0547C375.8 96.8132 376.308 96.6924 376.878 96.6924ZM382.135 104.096C381.88 104.096 381.665 104.009 381.492 103.836C381.324 103.663 381.239 103.451 381.239 103.2C381.239 102.95 381.324 102.738 381.492 102.564C381.665 102.391 381.88 102.305 382.135 102.305C382.395 102.305 382.611 102.391 382.784 102.564C382.957 102.733 383.044 102.945 383.044 103.2C383.044 103.455 382.957 103.67 382.784 103.843C382.611 104.011 382.395 104.096 382.135 104.096ZM388.786 96.6924C389.807 96.6924 390.659 97.0501 391.343 97.7656C392.026 98.4811 392.368 99.3698 392.368 100.432C392.368 101.493 392.026 102.382 391.343 103.098C390.659 103.813 389.807 104.171 388.786 104.171C388.203 104.171 387.672 104.043 387.193 103.788C386.715 103.528 386.323 103.171 386.018 102.715V104H384.814V93.917H386.018V98.1484C386.323 97.6927 386.715 97.3372 387.193 97.082C387.672 96.8223 388.203 96.6924 388.786 96.6924ZM388.561 103.009C389.294 103.009 389.905 102.763 390.393 102.271C390.88 101.778 391.124 101.165 391.124 100.432C391.124 99.6979 390.88 99.085 390.393 98.5928C389.905 98.1006 389.294 97.8545 388.561 97.8545C387.831 97.8545 387.225 98.1006 386.742 98.5928C386.259 99.085 386.018 99.6979 386.018 100.432C386.018 101.165 386.259 101.778 386.742 102.271C387.225 102.763 387.831 103.009 388.561 103.009ZM397.611 96.7471H397.851V97.9912H397.611C396.859 97.9912 396.265 98.2122 395.827 98.6543C395.394 99.0918 395.178 99.6842 395.178 100.432V104H393.975V96.8633H395.178V98.0938C395.738 97.196 396.549 96.7471 397.611 96.7471Z" fill="white"/>
<path d="M1309.5 95.1C1309.5 95.9284 1308.83 96.6 1308 96.6C1307.17 96.6 1306.5 95.9284 1306.5 95.1C1306.5 94.2715 1307.17 93.6 1308 93.6C1308.83 93.6 1309.5 94.2715 1309.5 95.1Z" fill="#F1F3F4"/>
<path d="M1309.5 100.1C1309.5 100.928 1308.83 101.6 1308 101.6C1307.17 101.6 1306.5 100.928 1306.5 100.1C1306.5 99.2715 1307.17 98.6 1308 98.6C1308.83 98.6 1309.5 99.2715 1309.5 100.1Z" fill="#F1F3F4"/>
<path d="M1309.5 105.1C1309.5 105.928 1308.83 106.6 1308 106.6C1307.17 106.6 1306.5 105.928 1306.5 105.1C1306.5 104.272 1307.17 103.6 1308 103.6C1308.83 103.6 1309.5 104.272 1309.5 105.1Z" fill="#F1F3F4"/>
<g clip-path="url(#clip1_2009_116)">
<path d="M151.977 73.4187C151.922 73.7532 151.666 73.9955 151.368 73.9959L146.64 73.9998C146.341 74 146.085 73.7568 146.03 73.4217L145.967 73.0291L152.04 73.0252L151.977 73.4187ZM148.415 56.157C148.695 55.9516 149.075 55.9474 149.359 56.1463L150.411 56.8807C152.074 58.0424 153.189 59.9659 153.496 62.1219C153.588 62.7684 153.566 63.4274 153.461 64.0721L153.164 65.9031H153.529C154.339 65.9024 154.996 66.7819 154.996 67.867L155 72.4783C155 72.7574 154.772 72.9285 154.595 72.782L152.76 71.2625L152.758 68.4041L152.099 72.4705L145.906 72.4744L145.239 68.3562L145.241 71.2674L143.409 72.7898C143.232 72.9369 143.003 72.7663 143.003 72.4871L143 67.8748C142.999 66.7897 143.655 65.9095 144.465 65.909H144.844L144.53 63.9754C144.426 63.3342 144.403 62.68 144.492 62.0369C144.786 59.9292 145.852 58.0383 147.453 56.8631L148.415 56.157ZM148.881 65.3064C148.508 65.3231 148.164 65.4843 147.912 65.7596C147.66 66.0348 147.53 66.3916 147.547 66.7645C147.563 67.1374 147.725 67.4823 148 67.7342C148.275 67.9859 148.632 68.1151 149.005 68.0984C149.378 68.082 149.722 67.9214 149.974 67.6463C150.225 67.371 150.355 67.0136 150.339 66.6404C150.322 66.2677 150.162 65.9235 149.887 65.6717C149.611 65.4198 149.254 65.2898 148.881 65.3064ZM148.881 60.4471C148.508 60.4637 148.164 60.6239 147.912 60.8992C147.66 61.1744 147.53 61.5313 147.547 61.9041C147.563 62.277 147.725 62.6219 148 62.8738C148.275 63.1256 148.632 63.2547 149.005 63.2381C149.378 63.2216 149.722 63.0611 149.974 62.7859C150.225 62.5107 150.355 62.1541 150.339 61.7811C150.322 61.4081 150.161 61.0633 149.886 60.8113C149.611 60.5597 149.254 60.4304 148.881 60.4471Z" fill="url(#paint1_linear_2009_116)"/>
</g>
<g filter="url(#filter4_f_2009_116)">
<path d="M1330 713H50V822H1330V713Z" fill="url(#paint2_linear_2009_116)"/>
</g>
</g>
<rect x="50.25" y="40.25" width="1279.5" height="783.5" rx="4.75" stroke="#060606" stroke-width="0.5"/>
</g>
<defs>
<filter id="filter0_ddd_2009_116" x="0" y="0" width="1380" height="884" filterUnits="userSpaceOnUse" color-interpolation-filters="sRGB">
<feFlood flood-opacity="0" result="BackgroundImageFix"/>
<feColorMatrix in="SourceAlpha" type="matrix" values="0 0 0 0 0 0 0 0 0 0 0 0 0 0 0 0 0 0 127 0" result="hardAlpha"/>
<feOffset dy="10"/>
<feGaussianBlur stdDeviation="25"/>
<feColorMatrix type="matrix" values="0 0 0 0 0 0 0 0 0 0 0 0 0 0 0 0 0 0 0.2 0"/>
<feBlend mode="normal" in2="BackgroundImageFix" result="effect1_dropShadow_2009_116"/>
<feColorMatrix in="SourceAlpha" type="matrix" values="0 0 0 0 0 0 0 0 0 0 0 0 0 0 0 0 0 0 127 0" result="hardAlpha"/>
<feOffset dy="20"/>
<feGaussianBlur stdDeviation="15"/>
<feColorMatrix type="matrix" values="0 0 0 0 0 0 0 0 0 0 0 0 0 0 0 0 0 0 0.3 0"/>
<feBlend mode="normal" in2="effect1_dropShadow_2009_116" result="effect2_dropShadow_2009_116"/>
<feColorMatrix in="SourceAlpha" type="matrix" values="0 0 0 0 0 0 0 0 0 0 0 0 0 0 0 0 0 0 127 0" result="hardAlpha"/>
<feOffset/>
<feGaussianBlur stdDeviation="0.5"/>
<feColorMatrix type="matrix" values="0 0 0 0 0 0 0 0 0 0 0 0 0 0 0 0 0 0 0.7 0"/>
<feBlend mode="normal" in2="effect2_dropShadow_2009_116" result="effect3_dropShadow_2009_116"/>
<feBlend mode="normal" in="SourceGraphic" in2="effect3_dropShadow_2009_116" result="shape"/>
</filter>
<filter id="filter1_i_2009_116" x="63" y="56" width="12" height="12" filterUnits="userSpaceOnUse" color-interpolation-filters="sRGB">
<feFlood flood-opacity="0" result="BackgroundImageFix"/>
<feBlend mode="normal" in="SourceGraphic" in2="BackgroundImageFix" result="shape"/>
<feColorMatrix in="SourceAlpha" type="matrix" values="0 0 0 0 0 0 0 0 0 0 0 0 0 0 0 0 0 0 127 0" result="hardAlpha"/>
<feOffset/>
<feGaussianBlur stdDeviation="3"/>
<feComposite in2="hardAlpha" operator="arithmetic" k2="-1" k3="1"/>
<feColorMatrix type="matrix" values="0 0 0 0 0.92549 0 0 0 0 0.427451 0 0 0 0 0.384314 0 0 0 1 0"/>
<feBlend mode="normal" in2="shape" result="effect1_innerShadow_2009_116"/>
</filter>
<filter id="filter2_i_2009_116" x="83" y="56" width="12" height="12" filterUnits="userSpaceOnUse" color-interpolation-filters="sRGB">
<feFlood flood-opacity="0" result="BackgroundImageFix"/>
<feBlend mode="normal" in="SourceGraphic" in2="BackgroundImageFix" result="shape"/>
<feColorMatrix in="SourceAlpha" type="matrix" values="0 0 0 0 0 0 0 0 0 0 0 0 0 0 0 0 0 0 127 0" result="hardAlpha"/>
<feOffset/>
<feGaussianBlur stdDeviation="3"/>
<feComposite in2="hardAlpha" operator="arithmetic" k2="-1" k3="1"/>
<feColorMatrix type="matrix" values="0 0 0 0 0.960784 0 0 0 0 0.768627 0 0 0 0 0.317647 0 0 0 1 0"/>
<feBlend mode="normal" in2="shape" result="effect1_innerShadow_2009_116"/>
</filter>
<filter id="filter3_i_2009_116" x="103" y="56" width="12" height="12" filterUnits="userSpaceOnUse" color-interpolation-filters="sRGB">
<feFlood flood-opacity="0" result="BackgroundImageFix"/>
<feBlend mode="normal" in="SourceGraphic" in2="BackgroundImageFix" result="shape"/>
<feColorMatrix in="SourceAlpha" type="matrix" values="0 0 0 0 0 0 0 0 0 0 0 0 0 0 0 0 0 0 127 0" result="hardAlpha"/>
<feOffset/>
<feGaussianBlur stdDeviation="3"/>
<feComposite in2="hardAlpha" operator="arithmetic" k2="-1" k3="1"/>
<feColorMatrix type="matrix" values="0 0 0 0 0.407843 0 0 0 0 0.8 0 0 0 0 0.345098 0 0 0 1 0"/>
<feBlend mode="normal" in2="shape" result="effect1_innerShadow_2009_116"/>
</filter>
<filter id="filter4_f_2009_116" x="32" y="695" width="1316" height="145" filterUnits="userSpaceOnUse" color-interpolation-filters="sRGB">
<feFlood flood-opacity="0" result="BackgroundImageFix"/>
<feBlend mode="normal" in="SourceGraphic" in2="BackgroundImageFix" result="shape"/>
<feGaussianBlur stdDeviation="9" result="effect1_foregroundBlur_2009_116"/>
</filter>
<linearGradient id="paint0_linear_2009_116" x1="341" y1="65" x2="164" y2="65.0001" gradientUnits="userSpaceOnUse">
<stop stop-opacity="0"/>
<stop offset="0.100283"/>
</linearGradient>
<linearGradient id="paint1_linear_2009_116" x1="144.567" y1="64.9198" x2="155.174" y2="66.2456" gradientUnits="userSpaceOnUse">
<stop stop-color="#FF6700"/>
<stop offset="1" stop-color="#FF9F00"/>
</linearGradient>
<linearGradient id="paint2_linear_2009_116" x1="732.5" y1="767.804" x2="733.427" y2="886.255" gradientUnits="userSpaceOnUse">
<stop stop-color="#0E0E10"/>
<stop offset="1"/>
</linearGradient>
<clipPath id="clip0_2009_116">
<rect x="50" y="40" width="1280" height="784" rx="5" fill="white"/>
</clipPath>
<clipPath id="clip1_2009_116">
<rect width="12" height="18" fill="white" transform="translate(143 56)"/>
</clipPath>
</defs>
</svg>
